<svg xmlns="http://www.w3.org/2000/svg" fill="none" width="80" height="80"><defs><linearGradient x1=".439" y1="0" x2=".576" y2="1" id="a"><stop offset="0%" stop-color="#1149ED"/><stop offset="6.429%" stop-color="#2258F6"/><stop offset="100%" stop-color="#5A83F9"/></linearGradient></defs><g style="mix-blend-mode:passthrough"><path d="M70.165 9H54.174C46.346 9 40 12.656 40 19.712 40 12.656 33.654 9 25.826 9H9.835C5.508 9 2 12.162 2 16.063V60.02c0 3.9 3.508 7.063 7.835 7.063h21.882l5.355 4.838c1.593 1.439 4.181 1.439 5.773 0l5.356-4.838h21.964c4.327 0 7.835-3.162 7.835-7.063V16.062C78 12.162 74.492 9 70.165 9z" fill="url(#a)"/><path d="M11 49q0-.098.01-.196t.028-.194q.02-.096.048-.19.029-.095.066-.185.038-.091.084-.178.046-.086.101-.168.055-.082.117-.158.062-.076.132-.145.07-.07.145-.132.076-.062.158-.117.082-.055.168-.1.087-.047.178-.085.09-.037.184-.066.094-.028.19-.048.097-.019.195-.028.098-.01.196-.01h18q.098 0 .196.01t.194.028q.096.02.19.048.095.029.185.066.091.038.178.084.086.047.168.101.082.055.158.117.076.062.145.132.07.07.132.145.062.076.117.158.055.082.1.168.047.087.085.178.037.09.066.184.028.095.048.19.019.097.028.195.01.098.01.196t-.01.196q-.01.098-.028.194-.02.096-.048.19-.029.095-.066.185-.038.091-.084.178-.047.086-.101.168-.055.082-.117.158-.062.076-.132.145-.07.07-.145.132-.076.062-.158.117-.082.055-.168.1-.087.047-.178.085-.09.037-.184.066-.095.028-.19.048-.097.019-.195.028-.098.01-.196.01H13q-.098 0-.196-.01t-.194-.028q-.097-.02-.19-.048-.095-.029-.185-.066-.091-.038-.178-.084-.086-.047-.168-.101-.082-.055-.158-.117-.076-.062-.145-.132-.07-.07-.132-.145-.062-.076-.117-.158-.055-.082-.1-.168-.047-.087-.085-.178-.037-.09-.066-.184-.028-.095-.048-.19-.019-.097-.028-.195Q11 49.098 11 49zm0-10q0-.098.01-.196t.028-.194q.02-.096.048-.19.029-.095.066-.185.038-.091.084-.178.046-.086.101-.168.055-.082.117-.158.062-.076.132-.145.07-.07.145-.132.076-.062.158-.117.082-.055.168-.1.087-.047.178-.085.09-.037.184-.066.094-.028.19-.048.097-.019.195-.028.098-.01.196-.01h18q.098 0 .196.01t.194.028q.096.02.19.048.095.029.185.066.091.038.178.084.086.047.168.101.082.055.158.117.076.062.145.132.07.07.132.145.062.076.117.158.055.082.1.168.047.087.085.178.037.09.066.184.028.095.048.19.019.097.028.195.01.098.01.196t-.01.196q-.01.098-.028.194-.02.096-.048.19-.029.095-.066.185-.038.091-.084.178-.047.086-.101.168-.055.082-.117.158-.062.076-.132.145-.07.07-.145.132-.076.062-.158.117-.082.055-.168.1-.087.047-.178.085-.09.037-.184.066-.095.028-.19.048-.097.019-.195.028-.098.01-.196.01H13q-.098 0-.196-.01t-.194-.028q-.097-.02-.19-.048-.095-.029-.185-.066-.091-.038-.178-.084-.086-.047-.168-.101-.082-.055-.158-.117-.076-.062-.145-.132-.07-.07-.132-.145-.062-.076-.117-.158-.055-.082-.1-.168-.047-.087-.085-.178-.037-.09-.066-.184-.028-.095-.048-.19-.019-.097-.028-.195Q11 39.098 11 39zm0-10q0-.098.01-.196t.028-.194q.02-.097.048-.19.029-.095.066-.185.038-.091.084-.178.046-.086.101-.168.055-.082.117-.158.062-.076.132-.145.07-.07.145-.132.076-.062.158-.117.082-.055.168-.1.087-.047.178-.085.09-.037.184-.066.094-.028.19-.048.097-.019.195-.028.098-.01.196-.01h18q.098 0 .196.01t.194.028q.096.02.19.048.095.029.185.066.091.038.178.084.086.046.168.101.082.055.158.117.076.062.145.132.07.07.132.145.062.076.117.158.055.082.1.168.047.087.085.178.037.09.066.184.028.094.048.19.019.097.028.195.01.098.01.196t-.01.196q-.01.098-.028.194-.02.097-.048.19-.029.095-.066.185-.038.091-.084.178-.047.086-.101.168-.055.082-.117.158-.062.076-.132.145-.07.07-.145.132-.076.062-.158.117-.082.055-.168.1-.087.047-.178.085-.09.037-.184.066-.095.028-.19.048-.097.019-.195.028-.098.01-.196.01H13q-.098 0-.196-.01t-.194-.028q-.097-.02-.19-.048-.095-.029-.185-.066-.091-.038-.178-.084-.086-.046-.168-.101-.082-.055-.158-.117-.076-.062-.145-.132-.07-.07-.132-.145-.062-.076-.117-.158-.055-.082-.1-.168-.047-.087-.085-.178-.037-.09-.066-.184-.028-.094-.048-.19-.019-.097-.028-.195Q11 29.098 11 29zm36 20q0-.098.01-.196t.028-.194q.02-.096.048-.19.029-.095.066-.185.038-.091.084-.178.046-.086.101-.168.055-.082.117-.158.062-.076.132-.145.07-.07.145-.132.076-.062.158-.117.082-.055.168-.1.087-.047.178-.085.09-.037.184-.066.094-.028.19-.048.097-.019.195-.028.098-.01.196-.01h18q.098 0 .196.01t.194.028q.097.02.19.048.095.029.185.066.091.038.178.084.086.047.168.101.082.055.158.117.076.062.145.132.07.07.132.145.062.076.117.158.055.082.1.168.047.087.085.178.037.09.066.184.028.095.048.19.019.097.028.195.01.098.01.196t-.01.196q-.01.098-.028.194-.02.096-.048.19-.029.095-.066.185-.038.091-.084.178-.046.086-.101.168-.055.082-.117.158-.062.076-.132.145-.07.07-.145.132-.076.062-.158.117-.082.055-.168.1-.087.047-.178.085-.09.037-.184.066-.094.028-.19.048-.097.019-.195.028-.098.01-.196.01H49q-.098 0-.196-.01t-.194-.028q-.097-.02-.19-.048-.095-.029-.185-.066-.091-.038-.178-.084-.086-.047-.168-.101-.082-.055-.158-.117-.076-.062-.145-.132-.07-.07-.132-.145-.062-.076-.117-.158-.055-.082-.1-.168-.047-.087-.085-.178-.037-.09-.066-.184-.028-.095-.048-.19-.019-.097-.028-.195Q47 49.098 47 49zm0-10q0-.098.01-.196t.028-.194q.02-.096.048-.19.029-.095.066-.185.038-.091.084-.178.046-.086.101-.168.055-.082.117-.158.062-.076.132-.145.07-.07.145-.132.076-.062.158-.117.082-.055.168-.1.087-.047.178-.085.09-.037.184-.066.094-.028.19-.048.097-.019.195-.028.098-.01.196-.01h18q.098 0 .196.01t.194.028q.097.02.19.048.095.029.185.066.091.038.178.084.086.047.168.101.082.055.158.117.076.062.145.132.07.07.132.145.062.076.117.158.055.082.1.168.047.087.085.178.037.09.066.184.028.095.048.19.019.097.028.195.01.098.01.196t-.01.196q-.01.098-.028.194-.02.096-.048.19-.029.095-.066.185-.038.091-.084.178-.046.086-.101.168-.055.082-.117.158-.062.076-.132.145-.07.07-.145.132-.076.062-.158.117-.082.055-.168.1-.087.047-.178.085-.09.037-.184.066-.094.028-.19.048-.097.019-.195.028-.098.01-.196.01H49q-.098 0-.196-.01t-.194-.028q-.097-.02-.19-.048-.095-.029-.185-.066-.091-.038-.178-.084-.086-.047-.168-.101-.082-.055-.158-.117-.076-.062-.145-.132-.07-.07-.132-.145-.062-.076-.117-.158-.055-.082-.1-.168-.047-.087-.085-.178-.037-.09-.066-.184-.028-.095-.048-.19-.019-.097-.028-.195Q47 39.098 47 39zm0-10q0-.098.01-.196t.028-.194q.02-.097.048-.19.029-.095.066-.185.038-.091.084-.178.046-.086.101-.168.055-.082.117-.158.062-.076.132-.145.07-.07.145-.132.076-.062.158-.117.082-.055.168-.1.087-.047.178-.085.09-.037.184-.066.094-.028.19-.048.097-.019.195-.028.098-.01.196-.01h18q.098 0 .196.01t.194.028q.097.02.19.048.095.029.185.066.091.038.178.084.086.046.168.101.082.055.158.117.076.062.145.132.07.07.132.145.062.076.117.158.055.082.1.168.047.087.085.178.037.09.066.184.028.094.048.19.019.097.028.195.01.098.01.196t-.01.196q-.01.098-.028.194-.02.097-.048.19-.029.095-.066.185-.038.091-.084.178-.046.086-.101.168-.055.082-.117.158-.062.076-.132.145-.07.07-.145.132-.076.062-.158.117-.082.055-.168.1-.087.047-.178.085-.09.037-.184.066-.094.028-.19.048-.097.019-.195.028-.098.01-.196.01H49q-.098 0-.196-.01t-.194-.028q-.097-.02-.19-.048-.095-.029-.185-.066-.091-.038-.178-.084-.086-.046-.168-.101-.082-.055-.158-.117-.076-.062-.145-.132-.07-.07-.132-.145-.062-.076-.117-.158-.055-.082-.1-.168-.047-.087-.085-.178-.037-.09-.066-.184-.028-.094-.048-.19-.019-.097-.028-.195Q47 29.098 47 29z" fill="#FFF"/></g></svg>