<svg xmlns="http://www.w3.org/2000/svg" fill="none" width="80" height="80"><defs><linearGradient x1=".439" y1="0" x2=".576" y2="1" id="a"><stop offset="0%" stop-color="#1149ED"/><stop offset="6.429%" stop-color="#2258F6"/><stop offset="100%" stop-color="#5A83F9"/></linearGradient></defs><g style="mix-blend-mode:passthrough"><path d="M10 67a8 8 0 008 8h44a8 8 0 008-8V23.845a8 8 0 00-2.887-6.153L55.266 7.847A8 8 0 0050.153 6H18a8 8 0 00-8 8v53z" fill="url(#a)"/><rect x="20" y="44" width="36" height="4" rx="2" fill="#FFF"/><rect x="20" y="54" width="40" height="4" rx="2" fill="#FFF"/><rect x="20" y="34" width="27" height="4" rx="2" fill="#FFF"/><rect x="20" y="24" width="24" height="4" rx="2" fill="#FFF"/></g></svg>