<svg xmlns="http://www.w3.org/2000/svg" fill="none" width="80" height="80"><defs><linearGradient x1=".439" y1="0" x2=".576" y2="1" id="a"><stop offset="0%" stop-color="#1149ED"/><stop offset="6.429%" stop-color="#2258F6"/><stop offset="100%" stop-color="#5A83F9"/></linearGradient></defs><g style="mix-blend-mode:passthrough"><circle cx="40" cy="40" fill="url(#a)" r="35"/><ellipse cx="39.8" cy="55.484" rx="2.5" ry="2.516" fill="#FFF"/><path d="M29.486 26.873q2.68-3.106 4.76-4.366Q36.734 21 39.936 21q4.732 0 7.855 2.706 1.533 1.328 2.362 3.118.847 1.828.847 3.894 0 2.937-1.606 5.253-.9 1.297-3.184 3.29-1.241 1.083-1.813 1.667-.898.918-1.467 1.827-1.43 2.285-1.43 5.673h-4q0-4.536 2.039-7.794.798-1.277 2-2.505.681-.695 2.041-1.882 1.91-1.666 2.527-2.556.893-1.287.893-2.973 0-2.405-1.829-3.99Q43.176 25 39.935 25q-2.084 0-3.616.928-1.538.932-3.805 3.558l-3.028-2.613zM33 28.18q0 .098-.01.196t-.028.194q-.02.096-.048.19-.029.094-.066.185-.038.09-.084.178-.046.086-.101.168-.055.082-.117.158-.062.075-.132.145-.07.07-.145.132-.076.062-.158.117-.082.054-.168.1-.087.047-.178.084-.09.038-.184.067-.094.028-.19.047-.097.02-.195.03-.098.009-.196.009t-.196-.01q-.098-.01-.194-.029-.097-.019-.19-.047-.095-.029-.185-.067-.091-.037-.178-.083-.086-.047-.168-.101-.082-.055-.158-.117-.076-.063-.145-.132-.07-.07-.132-.145-.062-.076-.117-.158-.055-.082-.1-.168-.047-.087-.085-.178-.037-.09-.066-.185-.028-.094-.048-.19-.019-.096-.028-.194-.01-.098-.01-.196 0-.099.01-.196.01-.098.028-.194.02-.097.048-.19.029-.095.066-.186.038-.09.084-.177.046-.087.101-.168.055-.082.117-.158.062-.076.132-.145.07-.07.145-.132.076-.063.158-.117.082-.055.168-.101.087-.046.178-.084.09-.038.184-.066.094-.029.19-.048.097-.019.195-.029.098-.01.196-.01t.196.01q.098.01.194.03.097.018.19.047.095.028.185.066.091.038.178.084.086.046.168.1.082.055.158.118.076.062.145.132.07.069.132.145.062.076.117.158.055.081.1.168.047.087.085.177.037.091.066.185.028.094.048.19.019.097.028.195.01.097.01.196zm8.5 20.248q0 .098-.01.196t-.028.194q-.02.096-.048.19-.029.094-.066.185-.038.09-.084.178-.047.086-.101.168-.055.082-.117.158-.062.075-.132.145-.07.07-.145.132-.076.062-.158.117-.082.054-.168.1-.087.047-.178.084-.09.038-.184.067-.094.028-.19.047-.097.02-.195.03-.098.009-.196.009t-.196-.01q-.098-.01-.194-.029-.097-.019-.19-.047-.095-.029-.185-.066-.091-.038-.178-.084-.086-.047-.168-.101-.082-.055-.158-.117-.076-.062-.145-.132-.07-.07-.132-.145-.062-.076-.117-.158-.055-.082-.1-.168-.047-.087-.085-.178-.037-.09-.066-.185-.028-.094-.048-.19-.019-.096-.028-.194-.01-.098-.01-.196 0-.099.01-.196.01-.098.028-.194.02-.097.048-.19.029-.095.066-.186.038-.09.084-.177.046-.087.101-.168.055-.082.117-.158.062-.076.132-.145.07-.07.145-.132.076-.063.158-.117.082-.055.168-.101.087-.046.178-.084.09-.038.184-.066.094-.029.19-.048.097-.019.195-.029.098-.01.196-.01t.196.01q.098.01.194.03.097.018.19.047.095.028.185.066.091.038.178.084.086.046.168.1.082.055.158.118.076.062.145.132.07.069.132.145.062.076.117.158.055.081.1.168.047.087.085.177.037.091.066.185.028.094.048.19.019.097.028.195.01.097.01.196z" fill="#FFF"/></g></svg>