<svg xmlns="http://www.w3.org/2000/svg" fill="none" width="80" height="80"><defs><linearGradient x1=".439" y1="0" x2=".576" y2="1" id="a"><stop offset="0%" stop-color="#1149ED"/><stop offset="6.429%" stop-color="#2258F6"/><stop offset="100%" stop-color="#5A83F9"/></linearGradient></defs><g style="mix-blend-mode:passthrough"><path d="M66.75 8h-53.5C8.694 8 5 11.692 5 16.244v39.904c0 4.553 3.694 8.245 8.25 8.245h3.378a3.172 3.172 0 013.174 3.171v7.26c0 2.587 2.935 4.088 5.034 2.566l17.118-12.392a3.174 3.174 0 011.86-.601H66.75c4.556 0 8.25-3.692 8.25-8.244V16.244C75 11.692 71.306 8 66.75 8z" fill="url(#a)"/><path d="M23.437 33.609q.489.505 1.356 1.228 1.662 1.388 3.558 2.537 5.892 3.57 11.915 3.626h.19q8.708 0 16.136-7.366l2.816 2.84Q50.811 45 40.457 45h-.229q-7.12-.066-13.95-4.205-2.155-1.306-4.049-2.887-1.03-.86-1.666-1.517l2.874-2.782zM24 35q0 .098-.01.196t-.028.194q-.02.097-.048.19-.029.095-.066.185-.038.091-.084.178-.046.086-.101.168-.055.082-.117.158-.062.076-.132.145-.07.07-.145.132-.076.062-.158.117-.082.055-.168.1-.087.047-.178.085-.09.037-.184.066-.094.028-.19.048-.097.019-.195.028-.098.01-.196.01t-.196-.01q-.098-.01-.194-.028-.097-.02-.19-.048-.095-.029-.185-.066-.091-.038-.178-.084-.086-.046-.168-.101-.082-.055-.158-.117-.076-.062-.145-.132-.07-.07-.132-.145-.062-.076-.117-.158-.055-.082-.1-.168-.047-.087-.085-.178-.037-.09-.066-.184-.028-.094-.048-.19-.019-.097-.028-.195Q20 35.098 20 35t.01-.196q.01-.098.028-.194.02-.097.048-.19.029-.095.066-.185.038-.091.084-.178.046-.086.101-.168.055-.082.117-.158.062-.076.132-.145.07-.07.145-.132.076-.062.158-.117.082-.055.168-.1.087-.047.178-.085.09-.037.184-.066.094-.028.19-.048.097-.019.195-.028.098-.01.196-.01t.196.01q.098.01.194.028.097.02.19.048.095.029.185.066.091.038.178.084.086.046.168.101.082.055.158.117.076.062.145.132.07.07.132.145.062.076.117.158.055.082.1.168.047.087.085.178.037.09.066.184.028.094.048.19.019.097.028.195.01.098.01.196zm36 .054q0 .099-.01.197-.01.097-.028.194-.02.096-.048.19-.029.094-.066.185-.038.09-.084.177-.047.087-.101.169-.055.081-.117.157-.062.076-.132.146-.07.07-.145.131-.076.063-.158.117-.082.055-.168.101-.087.047-.178.084-.09.038-.184.066-.095.029-.19.048-.097.02-.195.029-.098.01-.196.01t-.196-.01q-.098-.01-.194-.029-.096-.02-.19-.048-.095-.028-.185-.066-.091-.037-.178-.084-.086-.046-.168-.1-.082-.055-.158-.118-.076-.062-.145-.131-.07-.07-.132-.146-.062-.076-.117-.157-.055-.082-.1-.169-.047-.086-.085-.177-.037-.09-.066-.185-.028-.094-.048-.19-.019-.097-.028-.194-.01-.098-.01-.197 0-.098.01-.196.01-.097.028-.194.02-.096.048-.19.029-.094.066-.185.038-.09.084-.177.047-.087.101-.169.055-.081.117-.157.062-.076.132-.146.07-.07.145-.132.076-.062.158-.116.082-.055.168-.101.087-.047.178-.084.09-.038.184-.066.095-.029.19-.048.097-.02.195-.029.098-.01.196-.01t.196.01q.098.01.194.029.096.02.19.048.095.028.185.066.091.037.178.084.086.046.168.1.082.055.158.117.076.063.145.132.07.07.132.146.062.076.117.157.055.082.1.169.047.086.085.177.037.09.066.185.028.094.048.19.019.097.028.194.01.098.01.196z" fill="#FFF"/></g></svg>