<svg fill="none" height="56" width="262" xmlns="http://www.w3.org/2000/svg"><path d="M69.83 28.594a19.08 19.08 0 00-4.577-1.643l.78-1.508a9.993 9.993 0 002.282-6.3q.31-3.15-1.245-4.018-2.386-.759-1.66 1.412 1.46 3.91-.414 5.972A22.514 22.514 0 0054.312 8.827q-6.12-2.926-13.899-.979l-1.566-2.244A16.997 16.997 0 0147.458.368 14.645 14.645 0 0157.967 1.92q4.321 2.398 6.314 8.077a8.722 8.722 0 0110.216.177q2.664 2.133 2.162 6.392 5.72 1.863 7.373 4.217a12.628 12.628 0 011.45 14.47 11.155 11.155 0 01-1.75 2.084q-2.672 2.84-7.63 3.512-.34-8.926-6.272-12.255zM.512 26.734a11.375 11.375 0 018.946-7.755q.384-8.632 4.474-12.45a15.801 15.801 0 0113.846-4.39q7.626 1.579 9.204 7.323a19.946 19.946 0 00-7.243 7.409l-.384.483q-2.598-.703-3.92-.922a54.3 54.3 0 015.283-7.233 1.163 1.163 0 00-.876-1.873.998.998 0 00-.876.23c-.432.395-.83.827-1.188 1.29l-4.984 6.75-.895.833q-6.092.481-7.54 8.023l-.17 1.624a14.498 14.498 0 00-6.69 3.77 17.818 17.818 0 00-4.516 9.071Q-1.236 35.64.512 26.733z" fill="#8391cc"/><path d="M60.983 56H17.175a16.658 16.658 0 01-6.088-2.07 12.493 12.493 0 01-4.232-3.962 13.38 13.38 0 01-2.043-7.137 15.495 15.495 0 011.696-7.704 12.994 12.994 0 013.95-4.44 15.419 15.419 0 015.815-2.519v-.007a13.355 13.355 0 01.377-3.636 7.735 7.735 0 013.996-5.353 7.233 7.233 0 013.372-.82c2.31.12 4.53.946 6.357 2.368v-.012a18.657 18.657 0 013.303-5.574 16.093 16.093 0 014.767-3.84 15.83 15.83 0 017.407-1.746c.502 0 1.022.02 1.54.061a17.315 17.315 0 019.309 3.913 16.571 16.571 0 014.524 6.547 23.395 23.395 0 011.57 8.874c2.93.28 5.66 1.621 7.673 3.774 2.464 2.705 3.598 6.583 3.37 11.53a13.7 13.7 0 01-2.676 6.667 12.565 12.565 0 01-4.345 3.503A15.49 15.49 0 0160.983 56zM24.839 32.884a.892.892 0 00-.784.344c-.4.572-.02 1.694 0 1.742a8.365 8.365 0 003.173 2.593c1.293.465 11.048.838 18.26.838 2.788.06 5.576-.047 8.352-.319a6.207 6.207 0 004.406-2.911c.31-.515.348-1.15.102-1.697a.809.809 0 00-.638-.391h-.033a1.062 1.062 0 00-.64.344 4.964 4.964 0 01-3.238 2.28c-2.386.432-4.81.618-7.233.557-1.262 0-2.162-.031-2.17-.031-.456.01-.98.014-1.558.014-4.6 0-12.005-.313-12.317-.327a7.223 7.223 0 01-5.188-2.98 2.362 2.362 0 00-.494-.06zm81.883-6.39v-12.44q0-2.357 1.42-3.851 1.422-1.5 3.685-1.5 2.69 0 4.134 2.455.883-1.32 1.889-1.888 1.012-.567 2.497-.567 2.35 0 3.602 1.494 1.257 1.494 1.257 4.303v11.994h-5.192v-11.23q0-.833-.135-1.1-.134-.272-.544-.272-.766 0-.766 1.286v11.316h-5.192v-11.23q0-.816-.14-1.094-.141-.278-.55-.278-.767 0-.767 1.372v11.23zm19.76-12.602h4.79v7.216q0 .938.906.938.895 0 .895-.938v-7.216h4.783v7.13q0 2.46-1.649 4.152-1.649 1.69-4.046 1.69-2.725 0-4.386-1.968-1.293-1.535-1.293-4.263zm17.44-4.819v17.421h-4.79V9.074zm5.386 0v4.819h2.147v5.19h-2.147q0 1.5.48 2.067.48.567 1.76.567v4.964q-.368-.186-.55-.186-1.625 0-3.064-.724-1.438-.724-2.31-1.963-1.099-1.581-1.099-4.193V9.074zm14.943 8.989l5.432.139q-.538 4.14-2.924 6.405-2.386 2.259-6.222 2.259-3.9 0-6.532-2.589-2.625-2.594-2.625-6.434 0-3.869 2.678-6.504 2.684-2.635 6.608-2.635 3.865 0 6.45 2.617 1.79 1.807 2.532 5.04l-5.567.364q-.936-2.832-3.544-2.832-1.66 0-2.742 1.118-1.082 1.112-1.082 2.837 0 1.657 1.058 2.746 1.065 1.083 2.69 1.083 1.655 0 2.632-.933.976-.932 1.158-2.681zm10.883-8.989v17.421h-4.789V9.074zm7.177 4.819q2.713 0 4.649 1.853 1.941 1.848 1.941 4.437 0 2.623-1.965 4.47-1.965 1.842-4.736 1.842-2.778 0-4.749-1.847-1.97-1.854-1.97-4.465 0-2.659 1.97-4.472 1.97-1.818 4.86-1.818zm-.13 4.818q-.765 0-1.303.429-.538.429-.538 1.054 0 .614.544 1.048.544.435 1.298.435.766 0 1.31-.435.544-.434.544-1.048 0-.625-.538-1.054-.538-.429-1.316-.429zm7.101-4.818h4.79v7.216q0 .938.906.938.895 0 .895-.938v-7.216h4.783v7.13q0 2.46-1.649 4.152-1.65 1.69-4.047 1.69-2.725 0-4.385-1.968-1.293-1.535-1.293-4.263zm20.51-4.819h4.783v10.674q0 2.792-1.538 4.54-.883 1.014-2.245 1.61-1.363.597-2.796.597-2.848 0-4.807-1.824-1.959-1.824-1.959-4.471 0-2.566 1.942-4.436 1.947-1.871 4.608-1.871.42 0 1.28-.185v5.218q-.59-.215-1.175-.215-.742 0-1.275.44-.532.44-.532 1.066 0 .597.55 1.031.55.429 1.322.429 1.842 0 1.842-2.108zm-103.07 27.311v8.643h.99v-3.535h2.522c1.98 0 2.981-.86 2.981-2.566 0-1.695-.99-2.542-2.97-2.542zm.99.86h2.47c.692 0 1.199.133 1.536.425.338.252.507.678.507 1.257 0 .583-.169 1.005-.495 1.285-.338.276-.844.422-1.547.422h-2.471zm6.682 1.524v3.875c0 1.695.746 2.558 2.27 2.558.845 0 1.52-.39 2.027-1.14v.966h.963v-6.259h-.963v3.816c-.075.532-.279.97-.617 1.308-.326.316-.699.485-1.111.485-.566 0-.975-.158-1.23-.45-.255-.29-.373-.736-.373-1.331v-3.828zm8.453-2.021l-.954.398v1.623h-1.253v.812h1.253v3.985c0 .473.098.824.302 1.064.216.268.593.398 1.1.398h.939v-.808h-.798c-.216 0-.373-.063-.455-.157-.098-.099-.134-.268-.134-.497V39.58h1.544v-.812h-1.544zm9.357 1.852c-.7 0-1.288.327-1.76 1.005v-.836h-.966v6.26h.966v-3.812c0-.497.146-.922.432-1.261a1.335 1.335 0 011.1-.532c.955 0 1.438.544 1.438 1.66v3.944h.962v-3.921c0-.509.134-.907.425-1.222.263-.315.616-.461 1.025-.461.53 0 .915.134 1.159.425.228.265.35.678.35 1.234v3.945h.966v-4.103c0-.713-.205-1.284-.593-1.706-.409-.414-.927-.619-1.58-.619-.436 0-.797.099-1.1.292-.337.181-.628.484-.868.894-.35-.8-1.001-1.186-1.956-1.186zm7.582.17v3.874c0 1.695.746 2.558 2.27 2.558.845 0 1.52-.39 2.027-1.14v.966h.962v-6.259h-.962v3.816c-.075.532-.279.97-.617 1.308-.326.316-.699.485-1.111.485-.566 0-.975-.158-1.23-.45-.255-.29-.373-.736-.373-1.331v-3.828zm6.98-2.555v8.813h.955v-8.813zm4.239.533l-.955.398v1.623h-1.253v.812h1.253v3.985c0 .473.098.824.303 1.064.216.268.593.398 1.1.398h.938v-.808h-.797c-.216 0-.373-.063-.456-.157-.098-.099-.133-.268-.133-.497V39.58h1.543v-.812h-1.543zm3.405-.34a.688.688 0 00-.518.206c-.146.122-.208.291-.208.508 0 .209.062.378.208.52a.741.741 0 001.037 0 .691.691 0 00.216-.52c0-.217-.07-.386-.216-.508a.688.688 0 00-.519-.205zm-.483 2.361v6.26h.967v-6.26zm5.684-.169c-.942 0-1.63.402-2.078 1.198v-1.029h-.903v8.66h.966v-3.536c.483.871 1.17 1.309 2.062 1.309s1.584-.343 2.09-.993c.456-.607.7-1.372.7-2.29 0-.946-.244-1.707-.712-2.314-.522-.678-1.233-1.005-2.125-1.005zm-.121.8c.663 0 1.17.24 1.52.749.29.437.448 1.033.448 1.77 0 .749-.158 1.344-.472 1.781-.35.457-.856.702-1.532.702a1.638 1.638 0 01-1.363-.666c-.361-.45-.53-1.029-.53-1.758v-.118c0-.706.153-1.285.467-1.723.338-.496.833-.737 1.462-.737zm4.372-3.185v8.813h.954v-8.813zm5.142 2.385c-.904 0-1.615.327-2.145.981-.534.62-.786 1.392-.786 2.314 0 1.017.263 1.817.821 2.42.53.583 1.253.887 2.149.887.805 0 1.47-.244 1.992-.706.42-.386.699-.87.844-1.474h-.966c-.157.434-.362.761-.629.978-.314.256-.734.39-1.241.39-.593 0-1.065-.193-1.402-.583-.338-.387-.519-.93-.566-1.636h4.922c-.024-1.088-.263-1.947-.723-2.554-.507-.678-1.269-1.017-2.27-1.017zm.027.812c1.183 0 1.846.666 1.964 2.01h-3.897c.06-.619.252-1.104.59-1.466.341-.363.785-.544 1.343-.544zm10.905-.812c-.927 0-1.666.327-2.196.993-.495.607-.735 1.38-.735 2.338s.24 1.73.735 2.325c.519.63 1.241.946 2.184.946.774 0 1.387-.209 1.858-.607.483-.414.786-1.029.931-1.829h-.966c-.146 1.076-.762 1.624-1.823 1.624-.628 0-1.112-.233-1.438-.666-.337-.438-.495-1.045-.495-1.805 0-.765.17-1.368.507-1.817.354-.461.833-.69 1.438-.69.495 0 .892.11 1.206.35.302.245.495.608.581 1.093h.955c-.11-.765-.4-1.333-.884-1.711-.471-.363-1.084-.544-1.858-.544zm4.038-2.385v8.813h.955v-8.813zm5.362 2.385c-.943 0-1.677.315-2.235.97-.53.618-.794 1.39-.794 2.337 0 .93.264 1.707.794 2.313.558.655 1.292.982 2.235.982.927 0 1.677-.327 2.243-.982.519-.606.786-1.383.786-2.313 0-.946-.267-1.719-.798-2.337-.554-.655-1.304-.97-2.23-.97zm0 .812c.652 0 1.17.252 1.556.765.326.457.495 1.028.495 1.73 0 .678-.17 1.257-.495 1.718-.385.509-.904.765-1.556.765-.664 0-1.182-.256-1.548-.765-.337-.46-.495-1.028-.495-1.718 0-.702.158-1.273.495-1.73.366-.513.884-.765 1.548-.765zm4.25-.643v3.875c0 1.695.747 2.558 2.27 2.558.845 0 1.521-.39 2.028-1.14v.966h.962v-6.259h-.962v3.816c-.075.532-.28.97-.617 1.308-.326.316-.7.485-1.112.485-.565 0-.974-.158-1.23-.45-.254-.29-.372-.736-.372-1.331v-3.828zm11.4-2.554v3.705c-.483-.883-1.17-1.32-2.066-1.32-.892 0-1.58.327-2.086 1.005-.471.607-.7 1.356-.7 2.278 0 .942.229 1.719.7 2.326.507.65 1.218.993 2.137.993.939 0 1.638-.402 2.074-1.202v1.028h.904v-8.813zm-1.862 3.185a1.63 1.63 0 011.367.678c.338.45.519 1.04.519 1.766v.122c0 .702-.157 1.273-.46 1.707-.35.484-.833.729-1.461.729-.676 0-1.183-.256-1.52-.741-.303-.434-.448-1.029-.448-1.778 0-.753.145-1.332.46-1.758.337-.484.856-.725 1.543-.725zm6.498-.8c-.7 0-1.277.158-1.713.473-.472.315-.7.725-.7 1.257 0 .536.228.934.712 1.226.29.193.809.375 1.543.556.676.17 1.124.303 1.328.398.389.197.593.461.593.812 0 .705-.57 1.068-1.677 1.068-.53 0-.931-.099-1.194-.292-.267-.216-.448-.567-.523-1.064h-.94c.147 1.439 1.039 2.168 2.68 2.168 1.76 0 2.644-.654 2.644-1.94 0-.543-.255-.969-.75-1.284-.326-.205-.856-.398-1.603-.58-.628-.17-1.064-.303-1.292-.413-.362-.182-.53-.41-.53-.678 0-.276.129-.497.396-.655.244-.17.582-.24 1.014-.24.495 0 .88.098 1.147.292.239.17.397.457.483.847h.943c-.17-1.309-1.018-1.951-2.561-1.951zm8.646-2.191a.688.688 0 00-.52.205c-.144.122-.207.291-.207.508 0 .209.063.378.208.52a.739.739 0 00.519.21.738.738 0 00.518-.21.693.693 0 00.216-.52c0-.217-.071-.386-.216-.508a.687.687 0 00-.518-.205zm-.484 2.36v6.26h.967v-6.26zm5.622-.169c-.41 0-.782.099-1.12.292a2.185 2.185 0 00-.833.8v-.923h-.966v6.26h.966v-3.776c.036-.568.216-1.017.554-1.356a1.53 1.53 0 011.124-.473c1.084 0 1.642.607 1.642 1.829v3.775h.962v-3.846c0-1.723-.782-2.582-2.33-2.582zm5.534-1.852l-.954.398v1.623h-1.253v.812h1.253v3.985c0 .473.098.824.302 1.064.216.268.594.398 1.1.398h.939v-.808h-.797c-.216 0-.373-.063-.456-.157-.098-.099-.134-.268-.134-.497V39.58h1.544v-.812h-1.544zm5.398 1.852c-.943 0-1.677.315-2.235.97-.531.618-.794 1.39-.794 2.337 0 .93.263 1.707.794 2.313.558.655 1.292.982 2.235.982.927 0 1.677-.327 2.243-.982.518-.606.786-1.383.786-2.313 0-.946-.268-1.719-.798-2.337-.554-.655-1.304-.97-2.231-.97zm0 .812c.652 0 1.17.252 1.555.765.326.457.495 1.028.495 1.73 0 .678-.17 1.257-.495 1.718-.385.509-.903.765-1.555.765-.664 0-1.183-.256-1.548-.765-.338-.46-.495-1.028-.495-1.718 0-.702.157-1.273.495-1.73.365-.513.884-.765 1.548-.765zm11.062-.812c-.943 0-1.678.315-2.235.97-.531.618-.794 1.39-.794 2.337 0 .93.263 1.707.794 2.313.557.655 1.292.982 2.235.982.927 0 1.677-.327 2.243-.982.518-.606.785-1.383.785-2.313 0-.946-.267-1.719-.797-2.337-.554-.655-1.304-.97-2.231-.97zm0 .812c.652 0 1.17.252 1.555.765.326.457.495 1.028.495 1.73 0 .678-.17 1.257-.495 1.718-.385.509-.903.765-1.555.765-.664 0-1.183-.256-1.548-.765-.338-.46-.495-1.028-.495-1.718 0-.702.157-1.273.495-1.73.365-.513.884-.765 1.548-.765zm7.169-.812c-.41 0-.782.099-1.12.292a2.185 2.185 0 00-.833.8v-.923h-.966v6.26h.966v-3.776c.036-.568.216-1.017.554-1.356a1.53 1.53 0 011.124-.473c1.084 0 1.642.607 1.642 1.829v3.775h.962v-3.846c0-1.723-.782-2.582-2.33-2.582zm6.438 0c-.903 0-1.614.327-2.145.981-.534.62-.785 1.392-.785 2.314 0 1.017.263 1.817.82 2.42.53.583 1.254.887 2.149.887.806 0 1.469-.244 1.992-.706.42-.386.699-.87.844-1.474h-.966c-.157.434-.361.761-.628.978-.315.256-.735.39-1.242.39-.593 0-1.064-.193-1.402-.583-.338-.387-.52-.93-.566-1.636H262c-.023-1.088-.263-1.947-.722-2.554-.507-.678-1.27-1.017-2.271-1.017zm.028.812c1.182 0 1.846.666 1.964 2.01h-3.897c.059-.619.25-1.104.589-1.466.342-.363.786-.544 1.344-.544z" fill="#fff"/></svg>