<svg fill="none" height="32" width="32" xmlns="http://www.w3.org/2000/svg"><path d="M32 16q0 .393-.02.785-.019.392-.057.783-.038.391-.096.78-.058.388-.134.773-.077.386-.173.767-.095.38-.209.757-.114.375-.246.745-.133.37-.283.733-.15.363-.318.718t-.353.701q-.185.347-.387.684-.202.337-.42.663-.219.327-.453.642-.234.316-.483.62-.249.303-.513.594t-.541.569q-.278.277-.57.541-.29.264-.594.513-.303.25-.619.483-.315.234-.642.453-.327.218-.663.42-.337.202-.684.387-.346.185-.701.353-.355.168-.718.318t-.733.283q-.37.132-.745.246-.376.114-.757.21-.381.095-.767.172-.385.076-.773.134-.389.058-.78.096-.39.039-.783.058Q16.393 32 16 32t-.785-.02q-.392-.018-.783-.057-.391-.038-.78-.096-.388-.058-.773-.134-.386-.077-.767-.172-.38-.096-.757-.21-.375-.114-.745-.246-.37-.133-.733-.283-.363-.15-.718-.318t-.701-.353q-.347-.185-.684-.387-.337-.202-.663-.42-.327-.219-.642-.453-.316-.234-.62-.483-.303-.249-.594-.513t-.569-.541q-.277-.278-.541-.57-.264-.29-.513-.594-.25-.303-.483-.619-.234-.315-.453-.642-.218-.326-.42-.663-.202-.337-.387-.684-.185-.346-.353-.701-.168-.355-.318-.718t-.283-.733q-.132-.37-.246-.745-.114-.376-.21-.757-.095-.381-.172-.767-.076-.385-.134-.773-.057-.389-.096-.78-.038-.39-.058-.783Q0 16.393 0 16t.02-.785q.019-.392.057-.783.039-.391.096-.78.058-.388.134-.773.077-.386.172-.767.096-.38.21-.757.114-.375.246-.745.133-.37.283-.733.15-.363.318-.718t.353-.701q.185-.347.387-.684.202-.337.42-.663.219-.327.453-.642.234-.316.483-.62.249-.303.513-.594t.541-.569q.278-.277.57-.541.29-.264.594-.513.303-.25.619-.483.315-.234.642-.453.326-.218.663-.42.337-.202.684-.387.346-.185.701-.353.355-.168.718-.318t.733-.283q.37-.132.745-.246.376-.114.757-.21.381-.095.767-.172.385-.076.773-.134.389-.057.78-.096.39-.038.783-.058Q15.607 0 16 0t.785.02q.392.019.783.057.391.039.78.096.388.058.773.134.386.077.767.173.38.095.757.209.375.114.745.246.37.133.733.283.363.15.718.318t.701.353q.347.185.684.387.336.202.663.42.327.219.642.453.316.234.62.483.303.249.594.513t.569.541q.277.278.541.57.264.29.513.594.25.303.483.619.234.315.452.642.219.326.42.663.203.337.388.684.185.346.353.701.168.355.318.718t.283.733q.132.37.246.745.114.376.21.757.095.381.172.767.076.385.134.773.057.389.096.78.038.39.058.783.019.392.019.785z" fill="#3f89d7"/><path d="M17.354 24.207h-3.638v-7.75h-1.818v-2.985h1.818V11.68c0-2.434 1.026-3.883 3.943-3.883h2.428v2.986H18.57c-1.136 0-1.211.417-1.211 1.196l-.005 1.493h2.75l-.322 2.986h-2.428z" fill="#fff"/></svg>