<svg fill="none" height="68" width="68" xmlns="http://www.w3.org/2000/svg"><clipPath id="a"><path d="M6 22h55.83v24.81H6z"/></clipPath><path d="M0 0h68v68H0z"/><g clip-path="url(#a)"><path d="M49.43 46.81c6.852-.01 12.4-5.574 12.39-12.426-.01-6.853-5.57-12.401-12.423-12.394-6.853.008-12.403 5.568-12.397 12.42 0 6.852 5.558 12.406 12.41 12.4" fill="#ff0084"/><path d="M18.41 46.81c6.855 0 12.412-5.558 12.41-12.413-.002-6.855-5.561-12.41-12.417-12.407C11.548 21.994 5.994 27.555 6 34.41c0 6.852 5.558 12.406 12.41 12.4z" fill="#0063dc"/></g></svg>