<svg fill="none" height="68" width="68" xmlns="http://www.w3.org/2000/svg"><clipPath id="a"><path d="M0 26h68v16H0z"/></clipPath><g clip-path="url(#a)" fill-rule="evenodd"><path d="M8.055 38.057H2.794v-1.565H7.47a.21.21 0 00.213-.207V34.54a.21.21 0 00-.213-.207H2.794v-1.495h5.188a.21.21 0 00.214-.206v-1.914a.21.21 0 00-.214-.207H.214a.21.21 0 00-.214.207v9.462a.21.21 0 00.214.207h7.841a.21.21 0 00.214-.207v-1.916a.21.21 0 00-.214-.207zm11.142-3.44H14.95a.223.223 0 00-.228.22v1.562c0 .123.102.22.228.22h1.782v1.182a.03.03 0 01-.017.027c-.419.262-.939.4-1.613.4-1.616 0-2.766-1.143-2.766-2.738v-.027c0-1.511 1.136-2.709 2.606-2.709.93 0 1.624.291 2.302.806.09.068.219.052.292-.033l1.388-1.617a.2.2 0 00-.028-.291c-1.042-.822-2.27-1.307-3.971-1.307-3.16 0-5.49 2.257-5.49 5.137v.027c0 2.992 2.373 5.107 5.549 5.107 1.804 0 3.274-.631 4.345-1.462a.2.2 0 00.079-.16v-4.14a.206.206 0 00-.21-.205zm11.195-4.106h-2.37a.21.21 0 00-.213.207v5.014L23.68 30.59a.216.216 0 00-.169-.08h-2.318a.21.21 0 00-.214.208v9.462a.21.21 0 00.214.207h2.37a.21.21 0 00.213-.207v-5.213l4.289 5.339c.04.049.101.079.168.079h2.159a.21.21 0 00.214-.207v-9.46a.214.214 0 00-.214-.207zm26.971 0h-8.51a.21.21 0 00-.214.207v1.984a.21.21 0 00.214.207h2.844v7.271a.21.21 0 00.214.207h2.397a.21.21 0 00.214-.207v-7.244c0-.016.014-.027.028-.027h2.814a.21.21 0 00.213-.207v-1.984a.21.21 0 00-.213-.207zm9.962 7.546h-5.262v-1.565h4.677a.21.21 0 00.214-.207V34.54a.21.21 0 00-.214-.207h-4.677v-1.495h5.189a.21.21 0 00.213-.206v-1.914a.21.21 0 00-.213-.207h-7.77a.21.21 0 00-.213.207v9.462a.21.21 0 00.214.207h7.842a.21.21 0 00.213-.207v-1.916a.214.214 0 00-.213-.207z" fill="#4b4e53"/><path d="M40.204 30.641h-1.172a.142.142 0 01-.143-.138v-4.364c0-.076.064-.139.143-.139h1.172c.079 0 .144.063.144.139v4.364a.142.142 0 01-.144.138zm2.466 6.101l.584-.983a.148.148 0 01.197-.051l3.9 2.18a.139.139 0 01.054.19l-.585.983a.148.148 0 01-.196.052l-3.901-2.18a.138.138 0 01-.054-.19zm-6.687-.982l.584.982a.137.137 0 01-.053.19l-3.901 2.181a.146.146 0 01-.197-.052l-.585-.982a.137.137 0 01.054-.19l3.9-2.181a.146.146 0 01.198.051z" fill="#32bdb5"/><path d="M47.003 31.605l-1.211-2.03a.266.266 0 00-.357-.093l-5.818 3.253-5.818-3.253a.267.267 0 00-.357.092l-1.212 2.031a.25.25 0 00.096.346l5.818 3.253v6.506c0 .14.115.253.261.253h2.42a.257.257 0 00.262-.253v-6.506l5.818-3.253a.25.25 0 00.098-.346z" fill="#4b4e53"/></g></svg>