<svg fill="none" height="68" width="68" xmlns="http://www.w3.org/2000/svg"><clipPath id="a"><path d="M0 10h68v48H0z"/></clipPath><g clip-path="url(#a)"><path d="M16.348 53.727H13.72q-.14-6.902-.768-12.986h-.022L8.935 53.727H6.943L2.978 40.74h-.024q-.442 5.84-.557 12.986H0q.231-8.69 1.16-16.293h3.252l3.786 11.975h.022l3.81-11.972h3.11q1.022 8.9 1.208 16.293m11.38-12.022q-1.6 9.04-4.225 13.137-2.045 3.158-4.484 3.156a4.253 4.253 0 01-1.601-.405v-1.453c.362.052.726.076 1.091.073q1.14 0 1.835-.652.835-.796.835-1.786 0-.677-.65-2.775l-2.878-9.295h2.577l2.066 6.952q.7 2.361.581 3.308a46.852 46.852 0 002.37-10.26z" fill="#00758f"/><path d="M39.222 49.214a4.403 4.403 0 01-1.462 3.404c-.974.883-2.277 1.326-3.922 1.326-1.535 0-3.02-.51-4.46-1.52l.674-1.4q1.857.964 3.365.964 1.416 0 2.218-.65c.55-.429.867-1.104.853-1.817 0-.968-.648-1.794-1.84-2.488q-1.1-.626-3.296-1.936c-1.192-.908-1.787-1.872-1.787-3.467q0-1.981 1.333-3.198 1.333-1.217 3.45-1.22a6.942 6.942 0 013.97 1.207l-.607 1.398a7.456 7.456 0 00-3.022-.668c-.804 0-1.424.202-1.855.605a2.053 2.053 0 00-.701 1.544c0 .966.664 1.801 1.889 2.51q1.112.626 3.363 1.961c1.227.908 1.835 1.862 1.835 3.45m4.693 1.251q-.953-1.595-.953-5.118 0-6.155 3.598-6.155 1.882 0 2.765 1.47.951 1.597.953 5.072 0 6.204-3.6 6.204-1.882 0-2.763-1.473zm9.334 3.652l-2.882-1.476c.262-.219.504-.462.722-.727q1.835-2.243 1.836-6.636 0-8.086-6.107-8.088-2.996 0-4.67 2.053-1.833 2.244-1.833 6.612 0 4.297 1.624 6.3 1.482 1.817 4.48 1.817a6.984 6.984 0 002.053-.287l3.752 2.26 1.024-1.831m9.408-.392h-7.455V37.434h2.51v14.29h4.945v1.997m1.789.007h.415v-1.656h.543v-.34h-1.524v.34h.566zm3.162 0h.393V51.73h-.59l-.483 1.363-.525-1.36h-.57v1.997h.372v-1.52h.023l.546 1.518h.282l.547-1.518v1.518" fill="#f29111"/><path d="M65.803 31.975c-1.515-.04-2.69.118-3.679.545-.284.118-.737.118-.776.492.152.158.175.415.305.63.259.457.591.863.983 1.203.4.314.797.628 1.214.908.737.474 1.577.748 2.29 1.22.418.277.834.63 1.25.927.209.156.34.414.607.51v-.06c-.133-.181-.175-.432-.303-.63-.19-.194-.379-.374-.568-.57a9.272 9.272 0 00-1.97-1.987c-.607-.434-1.926-1.024-2.179-1.751l-.038-.04a7.377 7.377 0 001.309-.318c.643-.181 1.226-.136 1.892-.312.303-.08.606-.182.91-.276v-.182c-.35-.354-.588-.828-.947-1.162a25.626 25.626 0 00-3.122-2.416c-.587-.394-1.346-.648-1.971-.984-.226-.118-.605-.182-.738-.374-.341-.433-.525-1.003-.776-1.517a50.873 50.873 0 01-1.554-3.425c-.34-.767-.548-1.535-.965-2.243-1.952-3.345-4.067-5.372-7.33-7.361-.701-.414-1.535-.592-2.424-.808-.474-.02-.947-.058-1.42-.078-.305-.138-.608-.513-.876-.69-1.08-.709-3.855-2.243-4.659-.217-.512 1.28.757 2.543 1.193 3.19.323.452.74.966.965 1.476.134.334.176.69.304 1.044.303.865.586 1.831.986 2.638.203.424.437.832.7 1.22.153.218.418.314.476.67-.265.394-.286.985-.437 1.477-.681 2.225-.417 4.98.549 6.614.303.492 1.023 1.575 1.99 1.16.851-.362.662-1.476.907-2.458.058-.238.02-.394.134-.545v.04c.264.545.525 1.08.776 1.634.588.963 1.61 1.967 2.463 2.636.454.363.813.966 1.382 1.182v-.058h-.038a2.133 2.133 0 00-.435-.394 9.592 9.592 0 01-.986-1.18 25.466 25.466 0 01-2.12-3.584 25.265 25.265 0 01-.815-1.89c-.114-.237-.114-.59-.303-.709-.285.432-.7.806-.909 1.337-.36.848-.398 1.89-.526 2.975-.075.02-.036 0-.075.038-.606-.156-.815-.807-1.051-1.357-.568-1.398-.662-3.643-.175-5.258.131-.412.7-1.712.473-2.105-.114-.376-.493-.59-.701-.888-.26-.4-.485-.823-.67-1.266-.455-1.102-.684-2.323-1.175-3.425-.273-.533-.59-1.04-.946-1.517-.36-.532-.759-.908-1.042-1.534-.095-.218-.228-.572-.078-.807a.312.312 0 01.263-.258c.246-.216.948.059 1.193.182a9.509 9.509 0 011.875.983c.265.198.55.572.89.672h.398c.606.136 1.29.038 1.857.216.96.332 1.877.788 2.728 1.358a17.226 17.226 0 015.907 6.733c.228.452.325.866.526 1.337.398.968.892 1.952 1.288 2.895.396.942.778 1.87 1.347 2.638.282.413 1.419.63 1.927.847.379.181.966.334 1.307.545.645.412 1.288.886 1.894 1.34.303.236 1.25.726 1.307 1.122" fill="#00758f"/><path d="M46.483 14.867a2.946 2.946 0 00-.776.098v.04h.037c.154.315.419.532.606.809.152.314.286.628.436.944l.037-.04c.268-.196.4-.512.4-.984-.114-.14-.132-.276-.228-.414-.112-.197-.36-.295-.512-.453z" fill="#00758f"/></g></svg>