<svg fill="none" height="68" width="68" xmlns="http://www.w3.org/2000/svg"><clipPath id="a"><path d="M6 1h56v66H6z"/></clipPath><g clip-path="url(#a)"><path d="M14.904 16.811h5.378a.543.543 0 00.56-.549q-.07-4.48-.07-5.769c-.01-.93.198-1.849.606-2.688l.183-.336h-.069l-10.46 10.138a.066.066 0 000 .056c.206-.112.515-.258.549-.27a8.442 8.442 0 013.323-.582zm41.849-1.12a4.69 4.69 0 00-3.014-3.775 41.379 41.379 0 00-7.423-1.288 58.835 58.835 0 00-7.844-.224 4.545 4.545 0 00-2.58-3.462 20.656 20.656 0 00-9.764-.627 5.231 5.231 0 00-2.843 1.77 4.032 4.032 0 00-.72 2.453v5.803c-.006 1.14-.95 2.061-2.112 2.061h-5.39a6.712 6.712 0 00-2.694.482c-.59.244-1.108.63-1.507 1.12a5.243 5.243 0 00-.845 3.293c.034.952.118 1.902.25 2.846.195 1.456 1.805 11.616 3.346 14.708a3.817 3.817 0 002.159 2.24 59.043 59.043 0 0011.316 2.644c2.774.358 4.567 1.12 5.56-1.042q.217-.526.491-1.31c.72-2.17 1.072-4.44 1.04-6.722 0-.068.056-.123.125-.123.07 0 .126.055.126.123 0 1.221-.229 5.5 3.083 6.654 2.22.563 4.485.938 6.77 1.12 2.502.292 4.294 1.233 4.294 7.483 0 3.809-.81 4.324-5.081 4.324-3.426 0-4.773.09-4.773-2.599 0-2.184 2.192-1.949 3.825-1.949.731 0 .206-.526.206-1.87 0-1.345.845-2.107 0-2.129-5.641-.146-8.952 0-8.952 6.89 0 6.25 2.455 7.415 10.448 7.415 6.269 0 8.472-.19 11.064-8.054a70.456 70.456 0 002.501-14.227c.582-5.03-.331-20.13-1.062-24.017zM45.825 32.494a11.9 11.9 0 00-2.215.135c.194-1.546.857-3.44 3.163-3.361 2.546.09 2.912 2.453 2.923 4.044a10.908 10.908 0 00-3.87-.851z" fill="#82c14c"/></g></svg>