<svg fill="none" height="68" width="68" xmlns="http://www.w3.org/2000/svg"><clipPath id="a"><path d="M0 26h68v16H0z"/></clipPath><g clip-path="url(#a)"><path d="M10.965 26.8L0 41.703h3.128l2.352-3.297h5.853l-.079 3.297h2.884l.204-14.903zm.43 9.131H6.97l4.618-6zm32.21-6.491h2.896l1.003-2.64h-2.89z" fill="#0082c8"/><path d="M16.042 41.703L21.743 26.8h3.984c1.11 0 1.813.017 2.12.051.6.063 1.127.189 1.574.378.448.188.84.457 1.173.8.335.342.601.754.805 1.234s.323 1.034.368 1.663c.046.628 0 1.314-.13 2.057-.283 1.606-.833 3.034-1.66 4.274-.828 1.246-1.763 2.234-2.81 2.966-.806.571-1.792.988-2.953 1.263-.658.148-1.644.223-2.953.223zm3.961-2.4h1.542c1.116 0 1.938-.069 2.459-.206.527-.137 1.031-.4 1.513-.777.697-.549 1.326-1.28 1.898-2.194.573-.915.964-1.995 1.18-3.235.186-1.057.152-1.851-.092-2.382s-.6-.886-1.07-1.063c-.33-.12-.941-.183-1.837-.183h-1.762zm14.847-8.394h2.703l-.799 2.097c1.28-1.566 2.51-2.349 3.69-2.349.418 0 .843.103 1.285.314l-1.524 2.389a2.177 2.177 0 00-.81-.143c-.499 0-1.037.189-1.615.572-.584.377-1.071.885-1.474 1.52-.402.634-.86 1.64-1.382 3.017l-1.298 3.388H30.73zm4.069 10.794h2.895l4.126-10.8h-2.896zm11.095 0h-2.493l-.26-10.8h2.844l-.068 4.708c-.017 1.275-.04 2.12-.074 2.543.074-.114.385-.554.93-1.314s.878-1.223 1.002-1.377l3.457-4.554h3.128zm17.34-4.492h-7.259c-.028.115-.045.206-.057.263-.124.72-.022 1.297.306 1.737s.788.663 1.372.663c.963 0 1.796-.503 2.51-1.503l2.516.44c-.686 1.052-1.502 1.84-2.437 2.366a5.977 5.977 0 01-2.975.789c-1.439 0-2.527-.457-3.27-1.377-.742-.92-.98-2.132-.713-3.646A7.93 7.93 0 0159.257 33c1.382-1.56 3.1-2.337 5.156-2.337 1.31 0 2.284.406 2.913 1.223.629.817.816 1.96.56 3.434a9.008 9.008 0 01-.532 1.891zm-2.13-1.782c.028-.132.05-.229.062-.298.141-.8.068-1.4-.221-1.8s-.731-.6-1.326-.6c-.6 0-1.173.229-1.729.68s-.991 1.126-1.314 2.012h4.527z" fill="#717174"/></g></svg>