<svg fill="none" height="68" width="68" xmlns="http://www.w3.org/2000/svg"><g fill="#17bed0"><path d="M33.997 18.46c-8.815.003-15.96 7.03-15.96 15.699.003 8.67 7.148 15.698 15.96 15.698 8.814-.005 15.956-7.032 15.956-15.698 0-8.668-7.143-15.695-15.956-15.698zm2.428 19.794h-5.204v4.096c.002 1.131-.931 2.048-2.08 2.047-1.153.004-2.089-.914-2.088-2.047V27.334c0-1.131.932-2.048 2.083-2.047h7.285c3.643-.004 6.598 2.9 6.598 6.483.001 3.582-2.952 6.486-6.594 6.484z"/><path d="M36.773 29.406h-5.548v4.722h5.552c1.193-.169 2.078-1.175 2.077-2.36.001-1.187-.886-2.194-2.08-2.362z"/><path d="M62.74 35.965c-.548 3.011-2.332 4.676-4.827 5.754 2.603-1.706 4.166-4.58 4.163-7.656-.005-4.507-3.326-8.349-7.848-9.078 1.173 2.39 1.359 4.239 1.11 6.478C53.994 21.053 44.946 13 33.998 13c-11.884 0-21.513 9.473-21.513 21.159-.001 1.912.26 3.815.777 5.658a20.767 20.767 0 01-1.47-7.706 20.813 20.813 0 011.298-7.255C5.509 26.223.002 32.72 0 40.302 0 48.745 6.772 55.649 15.267 56H57.25C63.059 55.762 68 50.87 68 45.106c0-3.958-2.013-7.276-5.26-9.139M34.003 51.904c-9.967.004-18.048-7.942-18.048-17.745-.002-9.8 8.077-17.746 18.042-17.746 9.965-.001 18.043 7.944 18.043 17.746 0 9.8-8.078 17.745-18.043 17.745"/></g></svg>