<svg fill="none" height="68" width="68" xmlns="http://www.w3.org/2000/svg"><path d="M0 0h68v68H0z"/><path d="M5 44h58l-9-32H14zm0 2h58v10H5z" fill="#003146"/><g fill="#fff"><path d="M11 49h2v4h-2zm5 0h2v4h-2zm3 0h14v4H19z"/><rect height="4" rx="2" width="4" x="43" y="49"/><rect height="4" rx="2" width="4" x="49" y="49"/><rect height="4" rx="2" width="4" x="55" y="49"/><path d="M14 49h1v4h-1z"/><path d="M45.5 26.5C45.5 32.299 40.351 37 34 37s-11.5-4.701-11.5-10.5S27.649 16 34 16s11.5 4.701 11.5 10.5zm-5.354 3.123A14.022 14.022 0 0040.42 25h3.949q.13.739.13 1.5 0 1.795-.725 3.467-.403.93-.997 1.749a11.321 11.321 0 00-2.632-2.093zm-.274 1q.849.518 1.586 1.19.362.332.683.687-.321.355-.683.686-1.538 1.404-3.565 2.136-.575.208-1.164.353c1.403-1.286 2.501-3.032 3.143-5.052zm-.646-1.479q.274-1.29.274-2.644 0-.76-.086-1.5H34.5v3.01c1.697.066 3.298.468 4.726 1.134zM34.5 29.01q1.752.074 3.393.668.559.202 1.08.455-.043.145-.09.289-.665 2.034-1.936 3.572-1.024 1.24-2.302 1.988l-.145.007zm-1-1V25h-4.914q-.086.74-.086 1.5 0 1.354.274 2.644A12.303 12.303 0 0133.5 28.01zM28.744 24H33.5v-2.01a12.38 12.38 0 01-3.847-.766q-.304.647-.536 1.353-.229.702-.373 1.423zm-.014-3.165c-.456.975-.799 2.04-1.005 3.165h-3.856q.148-.489.356-.967.791-1.826 2.318-3.22.096-.087.194-.172c.615.458 1.282.859 1.993 1.194zm1.395-.506q1.633.587 3.375.66V17.01l-.146.008q-1.277.748-2.3 1.987-.514.621-.929 1.324zM34.5 17.01l.146.008q1.278.748 2.3 1.987.514.621.929 1.324-1.633.587-3.375.66zm2.23.316q.588.144 1.163.352 1.392.503 2.553 1.322-.769.542-1.638.946a10.92 10.92 0 00-2.078-2.62zm4.533 2.315q.098.085.195.173 1.526 1.393 2.317 3.219.208.478.356.967h-3.856a12.97 12.97 0 00-1.005-3.165 11.673 11.673 0 001.993-1.194zm-12.07.305q-.87-.404-1.639-.946 1.161-.82 2.553-1.322.575-.208 1.163-.352a10.921 10.921 0 00-2.078 2.62zM23.63 25h3.95a14.02 14.02 0 00.275 4.623c-.99.573-1.878 1.28-2.632 2.093q-.595-.818-.998-1.749-.725-1.672-.725-3.467 0-.761.13-1.5zm9.87 4.01v6.98l-.144-.007q-1.278-.749-2.303-1.989-1.27-1.538-1.936-3.572-.047-.145-.09-.29.521-.252 1.08-.454 1.641-.594 3.393-.668zm5.383-6.433q.23.702.373 1.423H34.5v-2.01a12.38 12.38 0 003.848-.766q.304.647.535 1.353zm-10.754 8.045c.641 2.021 1.74 3.767 3.143 5.053q-.59-.145-1.165-.353-2.027-.732-3.564-2.136-.363-.33-.684-.686.321-.355.684-.686.736-.673 1.586-1.192z" fill-rule="evenodd"/></g></svg>