<svg fill="none" height="38" width="228" xmlns="http://www.w3.org/2000/svg"><path d="M0 37.224V11.197q0-4.931 3.004-8.058Q6.008 0 10.792 0q5.687 0 8.74 5.138 1.867-2.763 3.993-3.95Q25.664 0 28.804 0q4.969 0 7.615 3.126 2.657 3.127 2.657 9.004v25.095H28.1V13.729q0-1.745-.284-2.302-.285-.57-1.15-.57-1.62 0-1.62 2.69v23.677H14.068V13.73q0-1.709-.297-2.29-.296-.582-1.162-.582-1.62 0-1.62 2.872v23.495zm41.774-26.367h10.124v15.098q0 1.963 1.916 1.963 1.892 0 1.892-1.963V10.857h10.112v14.917q0 5.15-3.486 8.688Q58.846 38 53.777 38q-5.76 0-9.271-4.12-2.732-3.211-2.732-8.918zM78.64.776v36.449H68.515V.774zm11.388 0v10.081h4.536v10.857h-4.536q0 3.139 1.013 4.326 1.014 1.188 3.721 1.188v10.384q-.779-.388-1.162-.388-3.436 0-6.477-1.514-3.042-1.515-4.884-4.108-2.323-3.308-2.323-8.773V.776zm31.587 18.806l11.484.29q-1.137 8.664-6.181 13.402Q121.875 38 113.765 38q-8.245 0-13.808-5.417-5.55-5.428-5.55-13.462 0-8.094 5.661-13.608Q105.742 0 114.037 0q8.171 0 13.635 5.477 3.783 3.78 5.353 10.542l-11.769.764q-1.977-5.926-7.491-5.926-3.511 0-5.798 2.339-2.287 2.326-2.287 5.937 0 3.466 2.238 5.744 2.25 2.266 5.686 2.266 3.499 0 5.563-1.951 2.065-1.95 2.448-5.61zM144.623.776v36.449h-10.124V.775zm15.171 10.081q5.736 0 9.828 3.878 4.104 3.865 4.104 9.282 0 5.489-4.154 9.354-4.153 3.853-10.013 3.853-5.872 0-10.038-3.865-4.166-3.878-4.166-9.342 0-5.562 4.166-9.355 4.166-3.805 10.273-3.805zm-.272 10.082q-1.62 0-2.757.897-1.137.896-1.137 2.205 0 1.284 1.149 2.193 1.15.909 2.745.909 1.619 0 2.769-.909 1.15-.909 1.15-2.193 0-1.309-1.138-2.205-1.137-.897-2.781-.897zm15.01-10.082h10.124v15.098q0 1.963 1.916 1.963 1.892 0 1.892-1.963V10.857h10.112v14.917q0 5.15-3.486 8.688Q191.604 38 186.535 38q-5.76 0-9.271-4.12-2.732-3.211-2.732-8.918zM217.888.776H228v22.332q0 5.84-3.251 9.5-1.867 2.12-4.747 3.368-2.881 1.248-5.909 1.248-6.021 0-10.162-3.816-4.141-3.817-4.141-9.355 0-5.368 4.104-9.282 4.117-3.914 9.741-3.914.89 0 2.708-.388v10.918q-1.249-.448-2.485-.448-1.57 0-2.695.92-1.125.922-1.125 2.23 0 1.248 1.162 2.157 1.162.897 2.794.897 3.894 0 3.894-4.41z" fill="#fff"/></svg>