<svg fill="none" height="68" width="68" xmlns="http://www.w3.org/2000/svg"><clipPath id="a"><path d="M0 22h68v24H0z"/></clipPath><g clip-path="url(#a)"><path d="M18.582 42.844a2.727 2.727 0 01-2.143 1.192c-1.29 0-1.864-1.13-1.864-2.855 0-1.939.645-3.219 3.723-3.219h.284zm2.426-.446v-7.052c0-3.633-1.549-4.77-4.356-4.77a6.58 6.58 0 00-3.787 1.193l.477 2.058a4.96 4.96 0 013.15-1.311c1.386 0 2.077.834 2.077 2.798v.891h-.342c-4.452 0-6.188 2.027-6.188 5.24 0 2.948 1.549 4.555 3.82 4.555a3.585 3.585 0 002.961-1.4h.162c.036.403.11.802.219 1.193h2.084a20.661 20.661 0 01-.277-3.395zm5.439-8.226a3.35 3.35 0 012.497-1.493c.942 0 1.484.389 1.484 1.518v11.62h2.49V33.99c0-2.29-1.103-3.394-3.187-3.394a4.252 4.252 0 00-3.123 1.487h-.161v-1.324h-2.452v15.059h2.458zM43.132 44.6h.162l.187 1.193h1.832V24.484h-2.465v6.658a3.808 3.808 0 00-2.02-.565c-3.187 0-5.393 2.71-5.393 8.276 0 4.65 1.703 7.147 4.826 7.147a3.55 3.55 0 002.871-1.4zm-.284-1.725a2.603 2.603 0 01-2.303 1.16c-1.8 0-2.49-2.145-2.49-5.646 0-3.062.941-5.892 2.935-5.892a2.47 2.47 0 011.858.715zm14.04 1.882l-.567-1.788a5.393 5.393 0 01-3.052 1.035c-1.936 0-2.968-1.782-2.968-5.176h6.652v-1.255c0-5.095-1.736-6.971-4.388-6.971-3.374 0-4.794 3.514-4.794 8.339 0 4.612 2.02 7.084 5.304 7.084a6.23 6.23 0 003.813-1.243zM52.565 32.46c1.42 0 1.865 1.883 1.865 4.436h-4.07c.155-2.679.697-4.436 2.206-4.436zm12.686-1.7l-2.175 5.478-2.065-5.478h-2.58l3.032 7.26-3.31 7.799h2.426l2.4-6.193 2.465 6.193h2.581l-3.316-7.981 2.968-7.028z" fill="#000"/><path d="M8.014 45.818v-7.53l6.278-16.313h-2.788L6.814 35.07 2.826 24.484H0l5.523 13.717v7.617z" fill="red"/></g></svg>