<svg fill="none" height="68" width="68" xmlns="http://www.w3.org/2000/svg"><g fill="#d2202f"><path d="M28.331 9q7.312 6.499 6.452 12.131c-.43 2.6-3.871 6.715-1.935 10.831 1.935 4.333 3.01 12.565-5.807 10.399-8.818-2.167-7.958-12.781-1.506-18.63C31.772 18.098 29.621 11.816 28.331 9z"/><path d="M34.998 28.28c-.43 4.332 4.302 8.665.43 14.73-2.58 4.116 1.506 9.965 6.668 8.882 5.807-1.083 7.097-4.766 6.882-9.098-.215-5.416-2.366-6.932-7.097-10.832q-5.162-4.332-1.076-12.564-5.377 4.116-5.807 8.882z"/><path d="M19.513 41.277c1.72 1.95 4.732 4.333 10.754 4.55 1.72 0 .43 3.466 4.086 6.498 3.226 2.6 7.312 2.817 9.678 1.95 1.29-.433 2.581-.867 1.506.217-4.302 5.415-11.614 5.199-16.776 3.249-6.237-2.383-7.743-6.932-8.818-9.965-1.505-3.466-.86-7.149-.43-6.499z"/></g></svg>