<svg fill="none" height="68" width="68" xmlns="http://www.w3.org/2000/svg" xmlns:xlink="http://www.w3.org/1999/xlink"><linearGradient id="b" x1=".656" x2=".505" y1=".63" y2=".018"><stop offset="0" stop-color="#f8850f"/><stop offset="1" stop-color="#ffb400"/></linearGradient><linearGradient id="a"><stop offset="0" stop-color="#161616"/><stop offset="1" stop-color="#727272"/></linearGradient><linearGradient id="c" x1="-.036" x2="1.65" xlink:href="#a" y1=".182" y2="1.282"/><linearGradient id="d" x1="-1.877" x2="1.125" xlink:href="#a" y1="-.154" y2=".634"/><path d="M33.093 25h-6.12v14.757h5.95c1.813 0 3.23-2.032 3.23-3.208v-7.806c-.17-1.55-1.417-3.743-3.06-3.743zm.736 11.068c-.083.787-.806 1.374-1.643 1.336h-3.06V27.246h3.06c.909-.003 1.646.693 1.643 1.55zm5.95-6.79v-.321H37.4V39.81h2.324v-6.95c0-.857.735-1.55 1.643-1.55h2.493v-2.193h-3.23c-.34 0-.68-.214-.85.16zM47.656 25h-2.153v2.192h2.153zm-2.153 14.597h2.323V28.902h-2.323zm22.496-4.224v-4.064c-.088-1.263-1.154-2.27-2.493-2.352h-4.307c-1.302.099-2.31 1.12-2.323 2.352v6.095c0 1.177 1.417 2.353 2.493 2.353h6.12v-2.192h-5.553c-.533-.071-.923-.509-.907-1.016v-1.176zm-6.856-2.406V31.63c.027-.373.341-.67.736-.695h2.89c.4.016.72.318.737.695v1.176h-4.307v.16z" fill="#ccc"/><path d="M52.36 39.596h2.89l3.23-10.694h-2.494l-2.324 7.111-2.153-7.11h-2.777z" fill="url(#b)"/><path d="M12.977 28.742H9.18c-.737 0-1.247.856-1.417 1.176-.225-.596-.76-1.04-1.416-1.176h-3.57c-.567 0-1.247.856-1.417 1.176.106-.385.106-.79 0-1.176l-1.36.16v9.839h1.247V31.79q.17-1.711 1.643-1.711h2.153c.885.05 1.59.716 1.644 1.55v7.112h1.416v-7.112q0-1.55 1.417-1.55h2.493c.674.032 1.213.54 1.247 1.176v7.325h1.473v-7.646q-.17-2.192-1.756-2.192z" fill="url(#c)"/><path d="M23.743 29.063v8.661h-3.796c-.973-.062-1.748-.793-1.814-1.71v-6.951l-1.246-.16v7.324c0 1.55.906 2.727 2.89 2.727h3.966v1.337c-.169.48-.568.856-1.076 1.016h-3.4v1.55h3.4c1.246 0 2.493-1.55 2.493-2.352V29.116h-1.417z" fill="url(#d)"/></svg>