<svg fill="none" height="68" width="68" xmlns="http://www.w3.org/2000/svg"><linearGradient id="a" x1="0" x2="1" y1=".498" y2=".498"><stop offset="0" stop-color="#40d5ff"/><stop offset="1" stop-color="#08a7ff"/></linearGradient><linearGradient id="b" x1=".006" x2="1.001" y1=".502" y2=".502"><stop offset="0" stop-color="#ff7e86"/><stop offset="1" stop-color="#ff486c"/></linearGradient><path d="M63.395 32.22c-2.632-2.686-5.937-4.185-9.304-4.622-1.469-.187-2.938-.125-4.407.062.245-1.499.245-2.935.062-4.434-.429-3.498-1.898-6.871-4.53-9.495-6.181-6.308-16.22-6.308-22.462 0-3.734 3.81-5.203 9.057-4.469 13.992a15.838 15.838 0 00-5.937.187c-.183.063-.306.063-.49.125-2.631.687-5.14 2.124-7.222 4.248-6.181 6.308-6.181 16.552 0 22.923 3.49 3.56 8.202 5.122 12.731 4.685a15.693 15.693 0 008.936-3.935l1.47-1.5 8.568-8.744 8.814-8.995c3.856-3.935 10.038-3.935 13.894 0 3.06 3.123 3.672 7.746 1.897 11.493-.306.687-.734 1.312-1.224 1.937-.183.25-.428.5-.673.75-3.856 3.934-10.038 3.934-13.894 0-.55-.625-1.346-1-2.203-1-1.653 0-3.06 1.374-3.06 3.123 0 .874.367 1.686.979 2.248 6.182 6.31 16.22 6.31 22.462 0 .796-.812 1.47-1.624 2.02-2.56 4.101-6.434 3.428-14.991-1.958-20.488zM27.038 18.041c3.856-3.935 10.038-3.935 13.894 0 3.795 3.873 3.856 10.244 0 14.117l.122-.125-.306.312.123-.125c-3.673 3.748-9.549 3.873-13.405.437-.183-.125-.306-.312-.49-.437l-.428-.437c-3.305-3.935-3.182-9.932.49-13.742zm-4.223 32.73a5.569 5.569 0 01-.612.562c-3.856 3.373-9.61 3.186-13.282-.562-3.856-3.935-3.856-10.244 0-14.179 1.346-1.374 2.938-2.248 4.59-2.623 3-.75 6.305 0 8.814 2.186.184.125.306.312.49.437l.428.438c3.244 3.747 3.244 9.306.123 13.117a5.44 5.44 0 00-.551.624z" fill="url(#a)"/><path d="M49.807 25.6c0-1.687-1.347-3.124-3.06-3.124-1.653 0-3.06 1.374-3.06 3.123v.063q-.246 3.81-2.694 6.37l-.306.313.122-.125c-3.672 3.748-9.548 3.873-13.404.437-.183-.125-.306-.312-.49-.437l-.428-.437q-2.265-2.436-2.448-6.184c0-1.686-1.347-3.123-3.06-3.123-1.653 0-3.06 1.374-3.06 3.123v.312q.122 1.375.183 1.75c.49 3.06 1.836 6.058 4.04 8.494.183.125.305.312.49.437l.428.438c2.387 2.248 5.324 3.622 8.324 4.06.183 0 .367.062.55.062 1.47.187 2.938.125 4.407-.062a15.22 15.22 0 008.692-4.56c2.448-2.499 3.917-5.622 4.406-8.932q.245-.687.184-1.999z" fill="url(#b)"/></svg>