<svg fill="none" height="68" width="68" xmlns="http://www.w3.org/2000/svg"><clipPath id="a"><path d="M6 6h56v56H6z"/></clipPath><linearGradient id="b" x1=".039" x2=".961" y1=".961" y2=".039"><stop offset="0" stop-color="#f0c55e"/><stop offset=".75" stop-color="#ff7901"/></linearGradient><g clip-path="url(#a)" fill-rule="evenodd"><path d="M11.6 6h44.8a5.6 5.6 0 015.6 5.6v44.8a5.6 5.6 0 01-5.6 5.6H11.6A5.6 5.6 0 016 56.4V11.6A5.6 5.6 0 0111.6 6z" fill="url(#b)"/><g fill="#fff"><path d="M32.507 34H21.493C20.67 34 20 34.669 20 35.493v11.014c0 .824.669 1.493 1.493 1.493h11.014C33.33 48 34 47.331 34 46.507V35.493C34 34.67 33.331 34 32.507 34zm14-14H35.493C34.67 20 34 20.669 34 21.493v11.014c0 .824.669 1.493 1.493 1.493h11.014C47.33 34 48 33.331 48 32.507V21.493C48 20.67 47.331 20 46.507 20z" opacity=".3"/><path d="M42.586 23.546H25.413a1.867 1.867 0 00-1.867 1.867v17.173c0 1.031.836 1.867 1.867 1.867h17.173a1.867 1.867 0 001.867-1.867V25.413a1.867 1.867 0 00-1.867-1.867zM27.84 50.8h-8.4a2.24 2.24 0 01-2.24-2.24v-8.4a4.107 4.107 0 00-4.107-4.107h-.187v14.373a4.667 4.667 0 004.667 4.667h14.373v-.187A4.107 4.107 0 0027.84 50.8zm22.586-37.894H36.053v.187A4.107 4.107 0 0040.16 17.2h8.4a2.24 2.24 0 012.24 2.24v8.4a4.107 4.107 0 004.106 4.106h.187V17.573a4.667 4.667 0 00-4.667-4.667z"/></g></g></svg>