<svg fill="none" height="68" width="68" xmlns="http://www.w3.org/2000/svg"><path d="M68.005 38.828c-2.433-.476-4.794-.186-7.066.61.144-.977.368-1.919.41-2.867.131-3.033-1.358-5.263-4.087-6.792-2.863-1.606-5.78-1.397-8.672-.06-1.309.605-2.403 1.495-3.376 2.51l-.703.73c-.384-2.803-2.26-4.421-4.727-5.561-2.49-1.15-5.184-1.587-7.92-1.78-4.808-.34-9.372.649-13.573 2.745-3.76 1.876-5.648 5.045-5.829 9.03-.144 3.274 1.11 6.204 2.758 9.014.095.163.193.322.284.486.014.025-.01.067-.017.106C11.007 43.516 6.163 40.873 0 41.11v-3.156c3.985.105 7.482 1.397 10.675 3.604-.094-.193-.186-.387-.284-.579-1.27-2.499-1.993-5.106-1.759-7.897.252-3.008 1.694-5.45 4.163-7.348 2.831-2.179 6.112-3.443 9.714-4.026 3.33-.539 6.676-.82 10.055-.668 2.565.111 5.079.496 7.445 1.493 3.022 1.274 5.02 3.358 5.769 6.42.028.075.062.147.1.217.31-.288.589-.557.881-.819 2.236-1.975 4.835-3.188 7.962-2.725 3.198.473 5.962 1.87 8.049 4.237 1.468 1.668 1.684 3.579.875 5.595a88.86 88.86 0 01-.217.535l4.577-.169z" fill="#0045ab"/></svg>