<svg fill="none" height="40" width="200" xmlns="http://www.w3.org/2000/svg"><mask id="b"><path d="M0 0h200v40H0z" fill="#fff"/></mask><clipPath id="a"><path d="M0 9h200v21.532H0z"/></clipPath><g clip-path="url(#a)" fill="#d50918" mask="url(#b)"><path d="M0 10.685v4.082h5.78v14.056h4.672V14.767h5.756v-4.082zM32.157 28.81v-4.07h-8.62v-3.074h8.423v-4.07h-8.423v-2.829h8.62v-4.082H18.864V28.81zm11.916.333c4.377 0 6.739-2.534 7.907-4.87l-4.021-1.894c-.603 1.439-2.152 2.632-3.886 2.632-2.964 0-5.054-2.288-5.054-5.251 0-2.964 2.09-5.251 5.054-5.251 1.734 0 3.283 1.193 3.886 2.632l4.02-1.906c-1.192-2.386-3.529-4.87-7.906-4.87-5.57 0-9.813 3.775-9.813 9.37 0 5.608 4.242 9.408 9.813 9.408zm26.894-.333V10.686H66.28v6.776h-7.525v-6.776h-4.673V28.81h4.673v-7.28h7.525v7.28zm36.953-4.07h-2.94v-9.972h2.964c3.32 0 5.005 2.176 5.005 4.968 0 2.693-1.857 5.004-5.03 5.004zm.024 4.07c5.681 0 9.788-3.455 9.788-9.074 0-5.62-4.107-9.051-9.813-9.051h-7.612V28.81zm30.878-18.125h4.673V28.81h-4.673zm15.248 18.458c4.87 0 7.55-2.423 7.55-6.063 0-6.739-10.243-5.054-10.243-7.366 0-.762.603-1.303 1.956-1.303 1.795 0 3.775.627 5.3 1.869l2.557-3.345c-1.93-1.66-4.451-2.533-7.365-2.533-4.649 0-7.231 2.718-7.231 5.767 0 6.985 10.268 5.005 10.268 7.477 0 .873-.984 1.5-2.582 1.5a8.2 8.2 0 01-5.792-2.385l-2.472 3.504c1.832 1.734 4.39 2.878 8.054 2.878zm18.815-4.132c-3.013 0-4.943-2.312-4.943-5.251 0-2.964 1.93-5.25 4.943-5.25 2.988 0 4.919 2.286 4.919 5.25 0 2.94-1.93 5.251-4.919 5.251zm0 4.132c5.546 0 9.678-3.862 9.678-9.37 0-5.51-4.132-9.371-9.678-9.371s-9.702 3.861-9.702 9.37c0 5.51 4.168 9.37 9.702 9.37zm20.02-10.49h-3.702v-3.885h3.702c1.217 0 2.25.7 2.25 1.93.012 1.28-1.02 1.955-2.25 1.955zM200 28.811l-3.701-6.653c1.684-.602 3.615-2.287 3.615-5.435 0-3.37-2.287-6.038-6.308-6.038h-9.076V28.81h4.673v-6.087h2.386l3.05 6.087zM88.687 9l-9.998 19.835h5.3l4.71-9.567 4.71 9.567h5.3zm42.953 1.685l-4.71 9.567-4.71-9.567h-5.3l9.986 19.847 10.034-19.847z"/></g></svg>