<svg fill="none" height="68" width="68" xmlns="http://www.w3.org/2000/svg"><clipPath id="a"><path d="M0 16h68v37H0z"/></clipPath><g clip-path="url(#a)"><path d="M61.694 21.337c-8.25-6.305-19.513-7.056-28.538-1.902-.317.195-.624.423-.93.64a12.382 12.382 0 013.612-.597c1.963-.132 3.674 1.315 3.853 3.26-.145 1.941-1.844 3.399-3.798 3.262-2.748 0-5.473-.924-8.155-1.424a48.685 48.685 0 00-8.615-.924q-9.239 0-12.041 4.772l.799-.598a6.695 6.695 0 012.693-1.348 2.006 2.006 0 012.215 1.22c.353.877.036 1.88-.76 2.4C8.516 32.272 2.867 31.38-.01 39.26a5.301 5.301 0 011.663-2.044 13.887 13.887 0 016.316-2.304 22.464 22.464 0 019.24.456c1.718.511 3.71 1.163 4.695 2.772.832 1.348.843 3.196-.755 3.957a8.263 8.263 0 01-3.799.652 43.31 43.31 0 019.765 2.467c5.386 2.337 10.41 5.511 16.146 6.957a22.117 22.117 0 0013.344-.479c5.917-2.38 10.16-7.647 11.198-13.902a18.407 18.407 0 00-6.108-16.456zm-9.852 21.5a24.997 24.997 0 01-10.826-2.924c-7.028-3.402-9.852-4.62-9.852-4.815 0-.196 4.204 1.434 11.264-2.424 4.083-2.24 5.638-4.62 9.403-4.62 4.111 0 7.444 3.31 7.444 7.391s-3.333 7.392-7.444 7.392z" fill="#1f77fb"/></g></svg>