<svg fill="none" height="40" width="200" xmlns="http://www.w3.org/2000/svg"><clipPath id="a"><path d="M34 9h132v21H34z"/></clipPath><g clip-path="url(#a)"><path d="M42.338 25.42c-.656-.336-.628-1.166-.645-1.802.007-2.205.003-4.408.007-6.61 1.06-.003 2.118-.003 3.18-.003.006-1.127 0-2.255.002-3.384-1.061 0-2.122 0-3.185-.003.003-1.538-.004-3.077.003-4.617-1.7-.004-3.4-.004-5.1 0 .004 1.537 0 3.076.004 4.613-.868.008-1.735.007-2.604.008l.001 3.382c.87 0 1.739-.005 2.61.01-.01 2.707-.015 5.41-.003 8.116.06 1.433.408 3.152 1.805 3.856 2.023.934 4.32.562 6.466.469.003-1.29.003-2.58 0-3.867-.84.004-1.751.219-2.54-.169zm45.529-12.238c-1.899-.01-3.87.902-4.842 2.607.035-2.262.006-4.526.017-6.786-1.7-.003-3.4-.004-5.098 0 .021 4.588-.018 9.174-.04 13.763a.672.672 0 01-.224.514c-1.575-.208-3.175-.041-4.76-.092-.178.804-.46 1.667-1.161 2.166-1.072.727-2.681.71-3.62-.243-.904-.88-1.148-2.22-1.159-3.438.032-1.143.132-2.374.8-3.336.977-1.387 3.245-1.582 4.397-.32.37.378.488.906.609 1.405 1.664 0 3.329.008 4.996-.004-.135-1.274-.548-2.54-1.357-3.543-1.18-1.526-3.05-2.341-4.908-2.61-1.605-.176-3.28-.12-4.798.494a7.314 7.314 0 00-3.52 2.924c-1.25 1.974-1.564 4.44-1.219 6.727.374 2.363 1.906 4.497 4.031 5.554 3.31 1.617 7.667 1.108 10.262-1.626.119-.232.23-.468.405-.657.733-.777.74-1.93 1.237-2.836.06 1.856.016 3.712.028 5.57h5.098c0-2.724-.002-5.447 0-8.169.006-.98.125-2.035.75-2.828.819-1.081 2.477-1.215 3.586-.55.879.591.926 1.77.963 2.733.018 2.937.002 5.875.007 8.81 1.698.005 3.398.008 5.097.004 0-3.581-.003-7.161 0-10.744-.035-1.483-.398-3.084-1.503-4.137-1.068-1.051-2.633-1.362-4.074-1.352z" fill="#2e6e93"/><path d="M58.07 14.646c-3.363-2.356-8.42-1.867-11.24 1.155-1.437 1.486-2.213 3.579-2.168 5.651-.046 1.954.482 3.964 1.703 5.502 1.259 1.602 3.207 2.525 5.186 2.796 2.242.284 4.65.06 6.613-1.152 1.445-.881 2.488-2.36 2.895-4.01a347.207 347.207 0 00-4.787 0c-.995 2.035-4.027 2.29-5.534.725-.646-.682-.875-1.64-.963-2.554 3.853-.015 7.71.007 11.562-.01.109-2.987-.76-6.286-3.267-8.103zm-8.295 5.199c.225-1.184.873-2.377 2.017-2.865 1.257-.557 2.886-.212 3.69.95.417.553.594 1.237.695 1.915a506 506 0 01-6.402 0z" fill="#2e6e93"/><path d="M132.084 15.477c-2.058-2.916-6.766-2.87-9.076-.3-1.501 1.661-2.123 3.98-2.075 6.196-.019 2.373.59 4.887 2.22 6.67 1.292 1.42 3.252 2.065 5.132 1.927 1.605-.02 3.105-.921 4.017-2.236-.006.598-.003 1.2 0 1.8h4.877c0-6.88.005-13.762 0-20.644-1.696 0-3.394-.006-5.09.007-.005 2.193-.001 4.385-.005 6.58zm-.697 9.475c-.913 1.23-2.907 1.379-4.01.332-.8-.71-1.118-1.8-1.253-2.834-.16-1.305-.049-2.72.663-3.857a2.634 2.634 0 011.564-1.18c1.037-.318 2.28-.011 2.958.872.764.99.945 2.305.937 3.53-.042 1.084-.199 2.24-.859 3.137zM105.23 13.491c-1.135-.187-2.331-.15-3.41.293-1.175.453-2.035 1.466-2.557 2.597.032-.881.024-1.76.02-2.639-1.662-.004-3.325 0-4.987 0 0 5.264-.001 10.53.003 15.795h5.092c.01-2.585-.017-5.166.011-7.75-.008-1.273.586-2.562 1.683-3.226 1.243-.787 2.796-.639 4.151-.262-.015-1.604-.002-3.207-.006-4.808zm15.01 4.427c-.065-1.112-.5-2.23-1.315-2.996-1.31-1.221-3.17-1.509-4.883-1.6-2.199-.08-4.575.045-6.46 1.32-1.313.864-2.012 2.434-2.062 3.987 1.61-.003 3.217.008 4.825-.007.21-.786.702-1.565 1.52-1.792 1.038-.283 2.3-.199 3.118.576.667.644.41 1.995-.54 2.191-2.422.637-5.074.448-7.336 1.653-1.07.539-1.87 1.585-2.063 2.782-.209 1.355-.126 2.865.705 4.006.781 1.119 2.11 1.72 3.424 1.887 2.188.282 4.584-.226 6.213-1.806.116.451.018 1.055.359 1.395 1.704.056 3.413.006 5.12.017-.333-.818-.542-1.689-.56-2.576-.128-3.012-.009-6.027-.066-9.037zm-5.671 7.874c-.787.965-2.231 1.132-3.354.782-.813-.22-1.286-1.141-1.099-1.95.095-.625.608-1.089 1.162-1.319 1.298-.551 2.756-.529 4.048-1.1-.038 1.215-.002 2.564-.757 3.587zm38.151-7.879c-.057-1.014-.427-2.027-1.108-2.78-1.243-1.344-3.15-1.69-4.885-1.802-2.261-.099-4.713-.007-6.656 1.304-1.32.862-2.018 2.435-2.07 3.991 1.61.003 3.219.007 4.828-.002.206-.789.7-1.568 1.518-1.795 1.037-.28 2.3-.198 3.118.576.666.65.407 2.003-.55 2.194-2.415.63-5.056.449-7.315 1.645-1.073.538-1.877 1.585-2.075 2.783-.209 1.357-.127 2.867.705 4.01.781 1.12 2.11 1.721 3.423 1.888 2.19.282 4.59-.223 6.22-1.813.064.461.137.92.212 1.382 1.752.092 3.507.016 5.263.041-.334-.827-.545-1.703-.564-2.599-.124-3.006-.006-6.017-.065-9.023zm-5.665 7.873c-.82 1-2.343 1.164-3.495.735-1.172-.412-1.338-2.21-.338-2.901 1.365-.917 3.117-.747 4.586-1.413-.037 1.214-.004 2.555-.753 3.579zm17.834-7.493c-.012-1.603.005-3.205-.008-4.809-1.134-.173-2.325-.144-3.397.297-1.178.452-2.047 1.466-2.56 2.603.023-.88.017-1.762.017-2.643h-4.989v15.795h5.094c.017-2.66-.035-5.322.027-7.98.02-1.517 1.053-2.966 2.506-3.376 1.084-.356 2.236-.16 3.31.113z" fill="#343334"/><path d="M165.996 23.84c-1.876.003-3.75 0-5.625.003.008 1.915-.005 3.83.004 5.744 1.875.004 3.75.007 5.625 0-.004-1.915.004-3.83-.004-5.747z" fill="#e8238c"/></g></svg>