<svg fill="none" height="68" width="68" xmlns="http://www.w3.org/2000/svg"><linearGradient id="a" x1="1" x2="0" y1=".5" y2=".5"><stop offset="0" stop-color="#3267d7"/><stop offset="1" stop-color="#71c3ed"/></linearGradient><path d="M55.818 21.978H12.182A2.18 2.18 0 0010 24.156v32.666A2.18 2.18 0 0012.182 59h43.636A2.18 2.18 0 0058 56.822V24.156a2.18 2.18 0 00-2.182-2.178zM51.454 10H16.545l-5.454 9.8h45.818z" fill="url(#a)"/><path d="M34.546 28.512h-3.272a1.09 1.09 0 00-1.091 1.089v22.866a1.09 1.09 0 001.09 1.09h3.273a1.09 1.09 0 001.091-1.09V29.601a1.09 1.09 0 00-1.09-1.09zm-1.636 5.444a1.635 1.635 0 01-1.636-1.633c0-.902.732-1.633 1.636-1.633a1.633 1.633 0 110 3.266zm-13.636 1.089c-1.205 0-2.182.975-2.182 2.178s.977 2.178 2.182 2.178a2.18 2.18 0 100-4.356zm0-6.533a2.18 2.18 0 00-2.182 2.177 2.18 2.18 0 002.182 2.178 2.18 2.18 0 002.181-2.178 2.18 2.18 0 00-2.181-2.177zm30.545 0h-3.273a1.09 1.09 0 00-1.09 1.089v22.866a1.09 1.09 0 001.09 1.09h3.273a1.09 1.09 0 001.091-1.09V29.601a1.09 1.09 0 00-1.09-1.09zm-1.636 5.444a1.635 1.635 0 01-1.637-1.633c0-.902.733-1.633 1.637-1.633a1.634 1.634 0 110 3.266zm-6-5.444H38.91a1.09 1.09 0 00-1.09 1.089v22.866a1.09 1.09 0 001.09 1.09h3.273a1.09 1.09 0 001.09-1.09V29.601a1.09 1.09 0 00-1.09-1.09zm-1.637 5.444a1.635 1.635 0 01-1.636-1.633c0-.902.733-1.633 1.636-1.633.904 0 1.637.73 1.637 1.633 0 .902-.733 1.633-1.637 1.633z" fill="#fff"/></svg>