<svg fill="none" height="68" width="68" xmlns="http://www.w3.org/2000/svg"><linearGradient id="a" x1=".5" x2=".5" y1="0" y2="1"><stop offset="0" stop-color="#507595"/><stop offset="1" stop-color="#233c59"/></linearGradient><path d="M14.818 26.682c-1.816-3.238.475-7.268 4.132-7.268a4.515 4.515 0 012.635.832 10.484 10.484 0 00-.889 4.213v.822h-.578a10.338 10.338 0 00-5.3 1.401zm-1.033 18.961c-2.871-2.123-4.576-5.516-4.587-9.133.007-.934.121-1.864.341-2.77h-.29C3.043 33.706-1.413 39.825.415 45.875c1.828 6.05 8.888 8.551 14.001 4.961a6.413 6.413 0 01-.96-3.36 5.96 5.96 0 01.32-1.854zm.393-1.053a6.006 6.006 0 014.132-3.16l.516-.074c.186 0 .341 0 .527-.053h.228c.28.002.559.02.836.053a17.298 17.298 0 01-.134-1.95A14.52 14.52 0 0123 30.98a9.237 9.237 0 01-1.033-1.57l-.227-.484a4.827 4.827 0 01-.217-.474 11.905 11.905 0 01-.6-2.107 5.147 5.147 0 00-.702 0 9.635 9.635 0 00-4.762 1.254c-.155.073-.31.179-.465.263l-.444.295a10.343 10.343 0 00-3.626 4.656l-.176.505c-.052.158-.103.348-.155.506a10.07 10.07 0 00-.372 2.697c.037 3.169 1.49 6.147 3.946 8.09zm32.16-12.009a10.564 10.564 0 014.4-1.254c-.416-4.837-4.38-8.555-9.143-8.574a4.865 4.865 0 00-.547 0c.086.547.131 1.1.134 1.654.003.853-.1 1.702-.31 2.528a14.115 14.115 0 015.455 5.667zm-24.454-6.689c0 .19.073.369.104.558.092.426.213.845.361 1.254.083.19.135.347.207.537.072.19.155.337.238.506.237.475.517.926.836 1.348a16.43 16.43 0 012.128-2.043c.166-.106.29-.211.445-.327l.475-.316a13.53 13.53 0 017.231-2.212h.186a2.79 2.79 0 01.517 0c.235.002.47.02.702.053 1.57.132 3.106.546 4.536 1.221.132-.672.201-1.357.206-2.043a9.028 9.028 0 00-.134-1.528 3.391 3.391 0 00-.103-.526 2.406 2.406 0 00-.124-.506c-1.06-4.056-4.665-6.876-8.782-6.868-3.346.005-6.426 1.86-8.047 4.846-.072.158-.186.316-.258.474l-.238.537a9.86 9.86 0 00-.672 3.518c.002.31.02.62.052.927.053.201.095.405.124.611zm41.323 15.875a3.9 3.9 0 00-.806.073v.695a11.296 11.296 0 01-3.016 7.722 4.95 4.95 0 003.802 1.78C65.879 51.913 68 49.651 68 46.902s-2.12-5.011-4.814-5.135zm-1.849.347v-.569c0-.189 0-.368-.052-.526-.71-4.835-4.693-8.47-9.483-8.66h-.548a2.874 2.874 0 00-.516 0 9.823 9.823 0 00-3.957 1.149 14.27 14.27 0 011.22 5.267v.738a6.28 6.28 0 010 .726 14.255 14.255 0 01-3.978 9.08 9.784 9.784 0 0014.029.79c.134-.126.268-.231.392-.368.124-.137.259-.264.372-.4a10.237 10.237 0 002.573-6.848 1.86 1.86 0 01-.031-.358zM22.401 46.96c-.103-.169-.186-.327-.29-.485a14.58 14.58 0 01-1.539-4.045 4.138 4.138 0 00-1.033-.105h-.63a5.002 5.002 0 00-.516.105 5.03 5.03 0 00-3.358 2.75c-.087.16-.157.33-.207.505-.051.158-.103.348-.165.506-.104.41-.156.83-.155 1.253.005.95.266 1.879.754 2.686.114.158.186.295.32.453.135.158.207.264.331.4 2.537 2.741 7.01 1.843 8.337-1.674a13.404 13.404 0 01-1.508-1.896 1.315 1.315 0 01-.32-.432zm24.525-6.584a4.92 4.92 0 000-.685v-.347a13.26 13.26 0 00-1.095-5.267 6.955 6.955 0 00-.238-.485l-.227-.474a13.062 13.062 0 00-4.897-5.12c-.155-.073-.31-.178-.475-.262l-.465-.243a12.678 12.678 0 00-5.165-1.253h-1.301c-1.973.152-3.882.78-5.57 1.833-.154.105-.309.19-.443.295l-.444.326a12.388 12.388 0 00-2.314 2.18 4.914 4.914 0 00-.341.422l-.31.432a13.11 13.11 0 00-2.397 7.616c-.005.73.054 1.46.176 2.18 0 .211.082.4.113.611.031.21.104.432.155.664a12.867 12.867 0 001.426 3.36c.103.158.186.316.289.453l.31.453c.232.335.484.655.754.959.165.158.29.347.444.505.136.154.284.295.445.422a12.668 12.668 0 0017.19.242c.134-.105.258-.242.392-.348.135-.105.259-.242.393-.368a13.37 13.37 0 003.512-7.458 3.09 3.09 0 00.104-.622z" fill="url(#a)"/></svg>