<svg fill="none" height="68" width="68" xmlns="http://www.w3.org/2000/svg"><clipPath id="a"><path d="M5 10.996h58v46.01H5z"/></clipPath><g clip-path="url(#a)"><path d="M13.56 54.386l7.21 2.62v-10.81l-7.21-2.49zm8.53 2.62l7.21-2.62v-10.68l-7.21 2.49zm-.49-16.17l-7.3 2.07 7.3 2.45 6.77-2.32zm-16.63-1.37l7.21 2.62v-10.82l-7.21-2.48zm15.75-10.68l-7.16 2.48v10.82l7.22-2.62zm-7.71-2.87l-7.3 2.07 7.3 2.45 6.77-2.32zm16 5.35l-7.21-2.48v10.68l7.21 2.62zm1.32 10.82l7.22-2.62v-10.68l-7.22 2.48zm-.49-16.17l-7.3 2.07 7.3 2.45 6.77-2.32zm.55-1.37l7.21 2.62v-10.83l-7.21-2.48zm8.53 2.62l7.21-2.62v-10.68l-7.18 2.47zm-.49-16.17l-7.3 2.07 7.3 2.45 6.77-2.32zm8.79 13.55l7.21 2.62v-10.83l-7.21-2.48zm8.53-8.2v10.82l7.21-2.62v-10.68zm-.49-5.35l-7.3 2.07 7.3 2.45 6.77-2.32z" fill="#fb8a15"/></g></svg>