<svg fill="none" height="68" width="68" xmlns="http://www.w3.org/2000/svg" xmlns:xlink="http://www.w3.org/1999/xlink"><clipPath id="b"><path d="M0 0h68v68H0z"/></clipPath><linearGradient id="a"><stop offset=".309" stop-color="#33bef0"/><stop offset="1" stop-color="#0a85d9"/></linearGradient><linearGradient id="c" x1="-.015" x2="1.414" xlink:href="#a" y1=".499" y2=".501"/><linearGradient id="d" x1="-.007" x2=".841" xlink:href="#a" y1=".497" y2=".508"/><linearGradient id="e" x1=".555" x2=".434" y1="1.818" y2="-1.063"><stop offset=".404" stop-color="#33bef0"/><stop offset="1" stop-color="#0a85d9"/></linearGradient><linearGradient id="f" x1="-.727" x2="1.025" xlink:href="#a" y1="1.392" y2=".118"/><linearGradient id="g" x1="2.714" x2="-.776" y1=".459" y2=".519"><stop offset=".246" stop-color="#33bef0"/><stop offset="1" stop-color="#0a85d9"/></linearGradient><linearGradient id="h" x1="2.334" x2="-.816" y1="2.976" y2="-1.146"><stop offset=".415" stop-color="#33bef0"/><stop offset=".652" stop-color="#1797e0"/><stop offset=".795" stop-color="#0a85d9"/></linearGradient><linearGradient id="i" x1="-1.634" x2=".916" xlink:href="#a" y1="2.546" y2=".023"/><g clip-path="url(#b)"><ellipse cx="21.628" cy="30.999" fill="url(#c)" rx="9.117" ry="9.333"/><path d="M62 39.666c0-6.258-4.956-11.333-11.07-11.333s-11.07 5.075-11.07 11.333c0 .225.02.445.033.668H29.365c.047-.439.076-.882.076-1.334 0-6.627-5.247-12-11.72-12C11.247 27 6 32.374 6 39c0 6.628 5.247 12 11.72 12h34.098C57.627 50.653 62 45.7 62 39.666z" fill="url(#d)"/><path d="M29.132 36.294C27.932 30.971 23.285 27 17.72 27c-1.684 0-3.282.37-4.729 1.024a9.494 9.494 0 00-.48 2.975c0 5.155 4.08 9.333 9.116 9.333 3.113.002 5.86-1.599 7.504-4.038z" fill="url(#e)"/><ellipse cx="37.907" cy="30.333" fill="url(#f)" rx="14.976" ry="15.333"/><path d="M25.12 22.379a15.505 15.505 0 00-2.19 7.953c0 3.353 1.064 6.447 2.847 8.97 2.946-1.546 4.966-4.68 4.966-8.303.001-3.886-2.321-7.216-5.623-8.62z" fill="url(#g)"/><path d="M23.063 28.33a15.489 15.489 0 002.712 10.971l.021-.009a9.185 9.185 0 001.975-1.408c.051-.047.097-.101.147-.151a9.28 9.28 0 00.647-.697c.09-.107.17-.221.254-.332a9.95 9.95 0 00.306-.433c-.789-3.468-3.046-6.352-6.062-7.94z" fill="url(#h)"/><path d="M39.86 39.666c0 2.034.532 3.939 1.447 5.588 6.63-1.579 11.576-7.652 11.576-14.922 0-.62-.047-1.229-.117-1.83a10.807 10.807 0 00-1.836-.17c-6.113 0-11.07 5.076-11.07 11.334z" fill="url(#i)"/></g></svg>