<svg fill="none" height="32" width="40" xmlns="http://www.w3.org/2000/svg"><path d="M40 24.323q0 3.53-2.304 5.618Q35.393 32 31.892 32q-4.158 0-6.85-2.765-2.664-2.764-2.664-8.147 0-5.088 1.436-8.706 1.466-3.617 3.53-6.147 2.065-2.53 4.279-4.059Q33.867.618 35.543 0l3.829 5.382q-3.381 1.706-5.445 4.56-2.065 2.852-2.065 7.146.629-.147 1.676-.147 3.081 0 4.757 2.147Q40 21.235 40 24.323zm-22.378 0q0 3.53-2.304 5.618Q13.014 32 9.514 32q-4.159 0-6.851-2.765Q0 26.471 0 21.088 0 16 1.436 12.382q1.466-3.617 3.53-6.147 2.065-2.53 4.279-4.059Q11.488.618 13.164 0l3.83 5.382q-3.381 1.706-5.446 4.56-2.064 2.852-2.064 7.146.628-.147 1.675-.147 3.082 0 4.757 2.147 1.706 2.147 1.706 5.235z" fill="#2258f6"/></svg>