<svg fill="none" height="24" width="120" xmlns="http://www.w3.org/2000/svg"><path d="M11.107 4.321L8.943 8.74l-4.94.716a1 1 0 00-.556 1.705l3.582 3.502-.846 4.817a1 1 0 001.455 1.056l4.361-2.325 4.366 2.327a1 1 0 001.456-1.055l-.842-4.82 3.579-3.504a1 1 0 00-.556-1.704l-4.906-.715L12.9 4.317a1 1 0 00-1.794.004m24.001 0L32.943 8.74l-4.94.716a1 1 0 00-.556 1.705l3.582 3.502-.846 4.817a1 1 0 001.455 1.056l4.361-2.325 4.366 2.327a1 1 0 001.455-1.055l-.84-4.82 3.577-3.504a1 1 0 00-.555-1.704l-4.906-.715L36.9 4.317a1 1 0 00-1.794.004m24.001 0L56.943 8.74l-4.94.716a1 1 0 00-.556 1.705l3.582 3.502-.846 4.817a1 1 0 001.455 1.056l4.361-2.325 4.366 2.327a1 1 0 001.456-1.055l-.842-4.82 3.578-3.504a1 1 0 00-.555-1.704l-4.906-.715L60.9 4.317a1 1 0 00-1.794.004m24.001 0L80.943 8.74l-4.94.716a1 1 0 00-.556 1.705l3.582 3.502-.846 4.817a1 1 0 001.455 1.056l4.361-2.325 4.366 2.327a1 1 0 001.456-1.055l-.842-4.82 3.579-3.504a1 1 0 00-.556-1.704l-4.906-.715L84.9 4.317a1 1 0 00-1.794.004m24.001 0l-2.164 4.418-4.94.716a1 1 0 00-.556 1.705l3.582 3.502-.846 4.817a1 1 0 001.455 1.056l4.361-2.325 4.366 2.327a1 1 0 001.456-1.055l-.842-4.82 3.579-3.504a1 1 0 00-.556-1.704l-4.906-.715-2.195-4.422a1 1 0 00-1.794.004" fill="#ff5900"/></svg>