<svg fill="none" height="68" width="68" xmlns="http://www.w3.org/2000/svg"><clipPath id="a"><path d="M0 26h68v16H0z"/></clipPath><g clip-path="url(#a)"><path d="M58.82 32.525a2.675 2.675 0 012.67-2.666 2.676 2.676 0 012.699 2.637 2.675 2.675 0 01-2.64 2.696 2.676 2.676 0 01-2.729-2.667zm2.604-6.338c-3.668-.15-6.729 2.756-6.744 6.404-.015 3.647 3.02 6.578 6.69 6.459 3.669.15 6.729-2.756 6.744-6.404s-3.02-6.578-6.69-6.459zM3.73 32.41a2.72 2.72 0 012.699-2.756 2.72 2.72 0 012.759 2.696 2.72 2.72 0 01-2.729 2.726 2.676 2.676 0 01-2.729-2.649zm2.792-6.223c-3.61-.05-6.553 2.86-6.523 6.445v8c0 .752.622 1.357 1.378 1.342h.626c.76.01 1.386-.588 1.405-1.342v-.978c0-.347.367-.613.814-.613h2.461c3.666.085 6.673-2.867 6.63-6.51-.043-3.643-3.12-6.524-6.782-6.353zm19.953-.089h-.627a1.535 1.535 0 00-1.118.463 1.55 1.55 0 00-.457 1.11v4.854c.18 1.472-.977 2.767-2.469 2.767s-2.648-1.295-2.47-2.767V27.69a1.56 1.56 0 00-1.592-1.574h-.617a1.606 1.606 0 00-1.638 1.574v4.915c-.137 3.53 2.708 6.465 6.263 6.462 3.577.006 6.459-2.91 6.389-6.462V27.69a1.615 1.615 0 00-1.638-1.574zm24.283 5.92h-.609a1.552 1.552 0 00-1.574 1.512v4a1.507 1.507 0 001.547 1.51h.609a1.543 1.543 0 001.566-1.51v-4a1.49 1.49 0 00-1.54-1.512zm-7.31 2.872a2.13 2.13 0 00-2.076 2.164 2.132 2.132 0 002.159 2.083 2.131 2.131 0 002.118-2.123c0-1.198-.996-2.16-2.201-2.124zm-.895-6.57v-.613c0-.853-.707-1.54-1.566-1.52h-9.583a1.525 1.525 0 00-1.565 1.52v.614c0 .853.707 1.54 1.565 1.52h1.888c1.011 0 1.011.515 1.011.737v6.952c0 .852.709 1.536 1.566 1.51h.645a1.534 1.534 0 001.565-1.51v-6.952c0-.222 0-.737 1.002-.737h1.897a1.525 1.525 0 001.575-1.52zM50.499 26a2.13 2.13 0 00-2.075 2.165c.023 1.165.985 2.095 2.158 2.084s2.118-.959 2.118-2.124a2.141 2.141 0 00-2.2-2.124z" fill="#3b3b3b"/></g></svg>