<svg fill="none" height="68" width="68" xmlns="http://www.w3.org/2000/svg"><path d="M25.927 24.946v-.002l14.275 8.44 8.506-3.534a13.927 13.927 0 016.41-1.08c-2.916-11.22-14.493-17.984-25.861-15.108-5.122 1.296-9.57 4.429-12.476 8.788l.217-.006a17.08 17.08 0 018.929 2.502z" fill="#0364b8"/><path d="M25.929 24.944a17.082 17.082 0 00-8.931-2.499l-.217.007C7.397 22.568-.116 30.17 0 39.432a16.625 16.625 0 003.053 9.382l12.584-5.228 5.597-2.326 12.458-5.176 6.507-2.7z" fill="#0078d4"/><path d="M55.116 28.768q-.466-.032-.933-.034a13.92 13.92 0 00-5.474 1.116l-8.508 3.533 2.467 1.457 8.085 4.779 3.53 2.085 12.061 7.13c3.618-6.626 1.107-14.895-5.609-18.466a13.949 13.949 0 00-5.619-1.6z" fill="#1490df"/><path d="M54.281 41.704l-3.53-2.085-8.082-4.781-2.465-1.455-6.51 2.701-12.458 5.175-5.6 2.324L3.05 48.812c3.176 4.506 8.386 7.19 13.948 7.187h37.187c5.08.002 9.751-2.75 12.161-7.164z" fill="#28a8ea"/></svg>