<svg fill="none" height="68" width="68" xmlns="http://www.w3.org/2000/svg"><g fill="#9dcd0c"><path d="M67.933 45.35c-.263 1.627-1.367 3.007-2.922 3.648h-4.857c-1.032 0-1.868-.817-1.868-1.824 0-1.008.836-1.825 1.868-1.825h3.55a5.44 5.44 0 00.56-.437V42.43H59.78c-2.476 0-4.483-1.96-4.483-4.379V29.66c0-1.007.836-1.824 1.868-1.824s1.868.817 1.868 1.824v6.568c0 1.41 1.171 2.554 2.616 2.554h2.615V29.66c0-1.007.836-1.824 1.868-1.824S68 28.653 68 29.66v15.69z" fill-rule="evenodd"/><path d="M49.318 27.838h-3.736v-4.014c0-1.007-.836-1.824-1.868-1.824s-1.868.817-1.868 1.824v14.23c0 2.418 2.007 4.378 4.483 4.378h2.99c2.475 0 4.483-1.96 4.483-4.378v-5.838c0-2.418-2.008-4.378-4.484-4.378zm1.495 8.757c0 1.209-1.004 2.189-2.242 2.189h-1.495c-.825 0-1.494-.654-1.494-1.46v-5.108a.74.74 0 01.747-.73h2.242c1.238 0 2.242.98 2.242 2.19zm-14.946-8.757h-3.736v-4.014c0-1.007-.837-1.824-1.868-1.824-1.032 0-1.868.817-1.868 1.824v14.23c0 2.418 2.007 4.378 4.483 4.378h2.99c2.475 0 4.483-1.96 4.483-4.378v-5.838c0-2.418-2.008-4.378-4.484-4.378zm1.495 8.757c0 1.209-1.004 2.189-2.242 2.189h-1.495c-.825 0-1.494-.654-1.494-1.46v-5.108c0-.403.334-.73.747-.73h2.242c1.238 0 2.242.98 2.242 2.19z"/><path d="M22.417 42.43h-3.736c-2.476 0-4.484-1.96-4.484-4.378V29.66c0-1.007.837-1.824 1.868-1.824 1.032 0 1.869.817 1.869 1.824v6.568c0 1.41 1.17 2.554 2.615 2.554 1.444 0 2.615-1.144 2.615-2.554V29.66c0-1.007.837-1.824 1.868-1.824 1.032 0 1.869.817 1.869 1.824v8.392c0 2.418-2.008 4.379-4.484 4.379zM5.978 38.782h4.857c1.032 0 1.868.817 1.868 1.824 0 1.008-.836 1.825-1.868 1.825H4.484C2.007 42.43 0 40.47 0 38.052v-5.838c0-2.418 2.007-4.378 4.484-4.378h6.351c1.032 0 1.868.817 1.868 1.824 0 1.008-.836 1.825-1.868 1.825H5.978c-1.238 0-2.242.98-2.242 2.189v2.919c0 1.209 1.004 2.189 2.242 2.189z" fill-rule="evenodd"/></g></svg>