<svg fill="none" height="60" width="60" xmlns="http://www.w3.org/2000/svg"><linearGradient id="a" x1=".439" x2=".576" y1="0" y2="1"><stop offset="0" stop-color="#2258f6"/><stop offset="0" stop-color="#1149ed"/><stop offset="1" stop-color="#5a83f9"/></linearGradient><path d="M11.12 25.436q.048-.42.116-.836.068-.417.155-.83.088-.413.194-.822.106-.41.231-.813.126-.404.27-.801.144-.398.306-.789.162-.39.342-.774.18-.383.378-.758t.413-.74q.216-.366.447-.722.232-.356.48-.7.249-.345.513-.679.264-.333.543-.655.28-.321.573-.63.294-.308.602-.603.308-.296.63-.577.32-.28.655-.547.334-.267.68-.518.346-.251.703-.487.358-.236.726-.455.368-.22.746-.422.377-.203.764-.389.387-.185.782-.354.395-.168.798-.318.402-.15.812-.283.409-.132.824-.246.414-.114.834-.21.42-.095.843-.171.424-.077.851-.134.427-.058.856-.096.429-.039.86-.058.43-.019.86-.019.431 0 .861.02.43.018.859.057.428.038.855.095.426.058.85.134.423.077.842.172.42.095.834.209.415.113.823.245.41.132.811.283.403.15.797.318.395.168.782.353.387.185.764.388.378.202.746.421.367.22.725.455.357.235.703.486.346.25.68.517.334.266.655.546t.629.576q.308.294.602.602t.573.63q.279.32.543.653t.512.678q.248.344.48.7.233.354.448.72.215.364.413.739.198.374.379.757.18.383.343.773.162.39.307.788.144.397.27.8.125.403.232.812.106.408.194.82.088.414.156.83t.117.835q.29.035.577.083.287.047.572.108t.566.135q.282.073.56.16.278.086.552.185t.543.21q.27.11.533.234.264.123.522.259.258.135.51.281.25.147.496.305.244.158.482.327.237.168.466.348.23.18.45.369.221.19.434.389.212.2.415.408.203.209.396.427t.376.444q.183.226.356.46.173.235.335.477.162.242.312.491.151.25.29.505.14.256.267.518.128.261.243.529.116.267.22.54.103.271.194.548.09.277.169.557.078.28.143.564.066.284.118.57.053.287.092.575.04.289.066.579.027.29.04.58.013.292.013.583 0 .315-.015.63-.016.315-.047.628-.03.314-.077.626-.046.312-.108.62-.061.31-.138.616-.076.305-.168.607-.091.302-.198.598-.106.297-.226.588-.121.292-.256.576-.134.285-.283.563-.149.278-.31.549-.163.27-.338.532-.175.262-.363.515-.187.254-.387.497-.2.244-.412.477-.212.234-.435.457t-.456.434q-.234.212-.477.412-.244.2-.497.388-.253.187-.515.363-.262.175-.533.337-.27.162-.548.31-.278.149-.563.284-.285.134-.576.255-.291.12-.588.227-.297.106-.598.198-.302.091-.608.168-.306.076-.615.138-.309.061-.62.107-.312.047-.626.078-.314.03-.628.046-.315.015-.63.015H12.838q-.315 0-.63-.015-.314-.016-.628-.046-.314-.031-.625-.078-.312-.046-.621-.107-.31-.062-.615-.138-.306-.077-.608-.168-.301-.092-.598-.198-.297-.106-.588-.227-.291-.12-.576-.255t-.563-.284q-.278-.148-.548-.31t-.533-.337q-.262-.176-.515-.363-.253-.188-.497-.388-.243-.2-.477-.412-.234-.211-.456-.434-.223-.223-.435-.457-.212-.233-.412-.477-.2-.243-.387-.497-.188-.253-.363-.515t-.337-.532q-.162-.27-.31-.549-.15-.278-.284-.563-.135-.284-.256-.576-.12-.29-.226-.588-.107-.296-.198-.598-.092-.302-.168-.607-.077-.306-.138-.615-.062-.31-.108-.621-.046-.312-.077-.626-.031-.313-.047-.628Q0 38.475 0 38.16q0-.288.013-.576t.039-.575q.026-.287.064-.573.039-.286.09-.57.052-.283.116-.564.064-.28.14-.559.078-.277.167-.552.089-.274.19-.544t.215-.534q.113-.265.238-.525.125-.26.262-.514.136-.253.284-.5.148-.248.307-.489.159-.24.328-.473.17-.234.35-.459.18-.225.369-.442.19-.217.389-.426.199-.208.407-.407.209-.2.426-.389.217-.19.442-.369.226-.18.459-.35.233-.168.474-.327.24-.159.488-.307.247-.147.5-.284.255-.136.514-.261.26-.125.525-.239.265-.113.535-.214.27-.101.544-.19.274-.09.552-.166.278-.077.56-.14.28-.065.564-.116.283-.051.569-.09z" fill="url(#a)" fill-rule="evenodd"/><path d="M35.06 21.94l6 6q.053.051.1.108.046.057.087.119.041.06.076.126.035.065.063.133.028.068.05.139.02.07.035.142.015.073.022.146.007.073.007.147t-.007.147q-.007.073-.022.146-.014.072-.036.142-.021.07-.05.139-.027.068-.062.133t-.076.126q-.04.062-.088.119-.046.057-.098.109-.105.104-.228.186-.123.082-.259.139-.137.056-.281.085-.145.029-.293.029H20q-.074 0-.147-.007t-.146-.022q-.072-.014-.142-.036-.07-.021-.139-.05-.068-.027-.133-.062t-.126-.076q-.062-.04-.119-.087-.057-.047-.109-.1-.052-.051-.099-.108-.046-.057-.087-.119-.041-.06-.076-.126-.035-.065-.063-.133-.028-.068-.05-.139-.02-.07-.035-.142-.015-.073-.022-.146-.007-.073-.007-.147t.007-.147q.007-.073.022-.146.014-.072.036-.142.021-.07.05-.139.027-.068.062-.133t.076-.126q.04-.062.087-.119.047-.057.1-.109.051-.052.108-.099.057-.046.119-.087.06-.041.126-.076.065-.035.133-.063.068-.028.139-.05.07-.02.142-.035.073-.015.146-.022.073-.007.147-.007h20V29l-1.06 1.06-6-6q-.053-.051-.1-.108-.046-.057-.087-.119-.041-.06-.076-.126-.035-.065-.063-.133-.028-.068-.05-.139-.02-.07-.035-.142-.015-.073-.022-.146-.007-.073-.007-.147t.007-.147q.007-.073.022-.146.014-.072.036-.142.021-.07.05-.139.027-.068.062-.133t.076-.126q.04-.062.088-.119.046-.057.098-.109.052-.052.11-.099.056-.046.118-.087.06-.041.126-.076.065-.035.133-.063.068-.028.139-.05.07-.02.142-.035.073-.015.146-.022.073-.007.147-.007t.147.007q.073.007.146.022.072.014.142.036.07.021.139.05.068.027.133.062t.126.076q.062.04.119.087.057.047.109.1zM35.5 23q0 .074-.007.147t-.022.146q-.014.072-.036.142-.021.07-.05.139-.027.068-.062.133t-.076.126q-.04.062-.087.119-.047.057-.1.109-.051.052-.108.099-.057.046-.119.087-.06.041-.126.076-.065.035-.133.063-.068.028-.139.05-.07.02-.142.035-.073.015-.146.022-.073.007-.147.007t-.147-.007q-.073-.007-.146-.022-.072-.014-.142-.036-.07-.021-.139-.05-.068-.027-.133-.062t-.126-.076q-.062-.04-.119-.087-.057-.047-.109-.1-.052-.051-.098-.108-.047-.057-.088-.119-.041-.06-.076-.126-.035-.065-.063-.133-.028-.068-.05-.139-.02-.07-.035-.142-.015-.073-.022-.146-.007-.073-.007-.147t.007-.147q.007-.073.022-.146.014-.072.036-.142.021-.07.05-.139.027-.068.062-.133t.076-.126q.04-.062.088-.119.046-.057.098-.109.052-.052.11-.099.056-.046.118-.087.06-.041.126-.076.065-.035.133-.063.068-.028.139-.05.07-.02.142-.035.073-.015.146-.022.073-.007.147-.007t.147.007q.073.007.146.022.072.014.142.036.07.021.139.05.068.027.133.062t.126.076q.062.04.119.087.057.047.109.1.052.051.099.108.046.057.087.119.041.06.076.126.035.065.063.133.028.068.05.139.02.07.035.142.015.073.022.146.007.073.007.147zm-14 6q0 .074-.007.147t-.022.146q-.014.072-.036.142-.021.07-.05.139-.027.068-.062.133t-.076.126q-.04.062-.087.119-.047.057-.1.109-.051.052-.108.099-.057.046-.119.087-.06.041-.126.076-.065.035-.133.063-.068.028-.139.05-.07.02-.142.035-.073.015-.146.022-.073.007-.147.007t-.147-.007q-.073-.007-.146-.022-.072-.014-.142-.036-.07-.021-.139-.05-.068-.027-.133-.062t-.126-.076q-.062-.04-.119-.087-.057-.047-.109-.1-.052-.051-.099-.108-.046-.057-.087-.119-.041-.06-.076-.126-.035-.065-.063-.133-.028-.068-.05-.139-.02-.07-.035-.142-.015-.073-.022-.146-.007-.073-.007-.147t.007-.147q.007-.073.022-.146.014-.072.036-.142.021-.07.05-.139.027-.068.062-.133t.076-.126q.04-.062.087-.119.047-.057.1-.109.051-.052.108-.099.057-.046.119-.087.06-.041.126-.076.065-.035.133-.063.068-.028.139-.05.07-.02.142-.035.073-.015.146-.022.073-.007.147-.007t.147.007q.073.007.146.022.072.014.142.036.07.021.139.05.068.027.133.062t.126.076q.062.04.119.087.057.047.109.1.052.051.099.108.046.057.087.119.041.06.076.126.035.065.063.133.028.068.05.139.02.07.035.142.015.073.022.146.007.073.007.147zm3.44 14.06l-6-6q-.053-.051-.1-.108-.046-.057-.087-.119-.041-.06-.076-.126-.035-.065-.063-.133-.028-.068-.05-.139-.02-.07-.035-.142-.015-.073-.022-.146-.007-.073-.007-.147t.007-.147q.007-.073.022-.146.014-.072.036-.142.021-.07.05-.139.027-.068.062-.133t.076-.126q.04-.062.088-.119.046-.057.098-.109.105-.104.228-.186.123-.082.259-.139.137-.056.281-.085.145-.029.293-.029h20q.074 0 .147.007t.146.022q.072.014.142.036.07.021.139.05.068.027.133.062t.126.076q.062.04.119.087.057.047.109.1.052.051.099.108.046.057.087.119.041.06.076.126.035.065.063.133.028.068.05.139.02.07.035.142.015.073.022.146.007.073.007.147t-.007.147q-.007.073-.022.146-.014.072-.036.142-.021.07-.05.139-.027.068-.062.133t-.076.126q-.04.062-.087.119-.047.057-.1.109-.051.052-.108.099-.057.046-.119.087-.06.041-.126.076-.065.035-.133.063-.068.028-.139.05-.07.02-.142.035-.073.015-.146.022-.073.007-.147.007H20V36l1.06-1.06 6 6q.053.051.1.108.046.057.087.119.041.06.076.126.035.065.063.133.028.068.05.139.02.07.035.142.015.073.022.146.007.073.007.147t-.007.147q-.007.073-.022.146-.014.072-.036.142-.021.07-.05.139-.027.068-.062.133t-.076.126q-.04.062-.087.119-.047.057-.1.109-.051.052-.108.099-.057.046-.119.087-.06.041-.126.076-.065.035-.133.063-.068.028-.139.05-.07.02-.142.035-.073.015-.146.022-.073.007-.147.007t-.147-.007q-.073-.007-.146-.022-.072-.014-.142-.036-.07-.021-.139-.05-.068-.027-.133-.062t-.126-.076q-.062-.04-.119-.087-.057-.047-.109-.1zM24.5 42q0-.074.007-.147t.022-.146q.014-.072.036-.142.021-.07.05-.139.027-.068.062-.133t.076-.126q.04-.062.088-.119.046-.057.098-.109.052-.052.11-.099.056-.046.118-.087.06-.041.126-.076.065-.035.133-.063.068-.028.139-.05.07-.02.142-.035.073-.015.146-.022.073-.007.147-.007t.147.007q.073.007.146.022.072.014.142.036.07.021.139.05.068.027.133.062t.126.076q.062.04.119.087.057.047.109.1.052.051.099.108.046.057.087.119.041.06.076.126.035.065.063.133.028.068.05.139.02.07.035.142.015.073.022.146.007.073.007.147t-.007.147q-.007.073-.022.146-.014.072-.036.142-.021.07-.05.139-.027.068-.062.133t-.076.126q-.04.062-.087.119-.047.057-.1.109-.051.052-.108.099-.057.046-.119.087-.06.041-.126.076-.065.035-.133.063-.068.028-.139.05-.07.02-.142.035-.073.015-.146.022-.073.007-.147.007t-.147-.007q-.073-.007-.146-.022-.072-.014-.142-.036-.07-.021-.139-.05-.068-.027-.133-.062t-.126-.076q-.062-.04-.119-.087-.057-.047-.109-.1-.052-.051-.098-.108-.047-.057-.088-.119-.041-.06-.076-.126-.035-.065-.063-.133-.028-.068-.05-.139-.02-.07-.035-.142-.015-.073-.022-.146-.007-.073-.007-.147zm14-6q0-.074.007-.147t.022-.146q.014-.072.036-.142.021-.07.05-.139.027-.068.062-.133t.076-.126q.04-.062.087-.119.047-.057.1-.109.051-.052.108-.099.057-.046.119-.087.06-.041.126-.076.065-.035.133-.063.068-.028.139-.05.07-.02.142-.035.073-.015.146-.022.073-.007.147-.007t.147.007q.073.007.146.022.072.014.142.036.07.021.139.05.068.027.133.062t.126.076q.062.04.119.087.057.047.109.1.052.051.099.108.046.057.087.119.041.06.076.126.035.065.063.133.028.068.05.139.02.07.035.142.015.073.022.146.007.073.007.147t-.007.147q-.007.073-.022.146-.014.072-.036.142-.021.07-.05.139-.027.068-.062.133t-.076.126q-.04.062-.087.119-.047.057-.1.109-.051.052-.108.099-.057.046-.119.087-.06.041-.126.076-.065.035-.133.063-.068.028-.139.05-.07.02-.142.035-.073.015-.146.022-.073.007-.147.007t-.147-.007q-.073-.007-.146-.022-.072-.014-.142-.036-.07-.021-.139-.05-.068-.027-.133-.062t-.126-.076q-.062-.04-.119-.087-.057-.047-.109-.1-.052-.051-.099-.108-.046-.057-.087-.119-.041-.06-.076-.126-.035-.065-.063-.133-.028-.068-.05-.139-.02-.07-.035-.142-.015-.073-.022-.146-.007-.073-.007-.147z" fill="#fff"/></svg>