<svg fill="none" height="40" width="40" xmlns="http://www.w3.org/2000/svg"><clipPath id="a"><path d="M40 0h40v40H40z"/></clipPath><g clip-path="url(#a)" transform="matrix(-1 0 0 1 80 0)"><path d="M40 0h40v40H40z" fill="#fff" fill-opacity=".01"/><g fill="#000"><path d="M48.336 19h21.666q.099 0 .196.02.096.018.187.056.091.038.173.093.082.054.152.124.07.07.124.151.055.082.092.173.038.091.057.188.02.097.02.195t-.02.195q-.019.097-.057.188-.037.09-.092.173-.055.081-.124.151-.07.07-.152.124-.082.055-.173.093-.09.038-.187.057-.097.019-.196.019H48.336q-.099 0-.195-.02-.097-.018-.188-.056-.09-.038-.173-.093-.082-.054-.151-.124-.07-.07-.125-.151-.054-.082-.092-.173-.038-.091-.057-.188-.02-.097-.02-.195t.02-.195q.02-.097.057-.188.038-.09.092-.173.055-.081.125-.151.07-.07.151-.124.082-.055.173-.093.091-.038.188-.057.096-.019.195-.019zm1 1q0 .098-.02.195-.018.097-.056.188-.038.09-.093.173-.054.081-.124.151-.07.07-.151.124-.082.055-.173.093-.091.038-.188.057-.097.019-.195.019-.099 0-.195-.02-.097-.018-.188-.056-.09-.038-.173-.093-.082-.054-.151-.124-.07-.07-.125-.151-.054-.082-.092-.173-.038-.091-.057-.188-.02-.097-.02-.195t.02-.195q.02-.097.057-.188.038-.09.092-.173.055-.081.125-.151.07-.07.151-.124.082-.055.173-.093.091-.038.188-.057.096-.019.195-.019.098 0 .195.02.097.018.188.056.09.038.173.093.081.054.151.124.07.07.124.151.055.082.093.173.038.091.057.188.019.097.019.195zm21.666 0q0 .098-.019.195t-.057.188q-.037.09-.092.173-.055.081-.124.151-.07.07-.152.124-.082.055-.173.093-.09.038-.187.057-.097.019-.196.019-.098 0-.195-.02-.096-.018-.187-.056-.091-.038-.173-.093-.082-.054-.152-.124-.07-.07-.124-.151-.055-.082-.092-.173-.038-.091-.057-.188-.02-.097-.02-.195t.02-.195q.019-.097.057-.188.037-.09.092-.173.055-.081.124-.151.07-.07.152-.124.082-.055.173-.093.09-.038.187-.057.097-.019.195-.019.099 0 .196.02.096.018.187.056.091.038.173.093.082.054.152.124.07.07.124.151.055.082.092.173.038.091.057.188.02.097.02.195z"/><path d="M59.293 29.293l10-10L70 20l-.707.707-10-10q-.07-.07-.124-.151-.055-.082-.093-.173-.038-.091-.057-.188Q59 10.098 59 10t.02-.195q.018-.097.056-.188.038-.09.093-.173.054-.081.124-.151.07-.07.151-.124.082-.055.173-.093.091-.038.188-.057Q59.902 9 60 9t.195.02q.097.018.188.056.09.038.173.093.081.054.151.124l10 10q.07.07.125.151.054.082.092.173.038.091.057.188.019.097.019.195 0 .099-.02.195-.018.097-.056.188-.038.09-.093.173-.054.082-.124.151l-10 10q-.07.07-.151.124-.082.055-.173.093-.091.038-.188.057Q60.098 31 60 31t-.195-.02q-.097-.018-.188-.056-.09-.038-.173-.092-.081-.055-.151-.125-.07-.07-.124-.151-.055-.082-.093-.173-.038-.091-.057-.188Q59 30.1 59 30q0-.098.02-.195.018-.097.056-.188.038-.09.093-.173.054-.081.124-.151zM61 30q0 .099-.02.195-.018.097-.056.188-.038.09-.093.173-.054.081-.124.151-.07.07-.151.124-.082.055-.173.093-.091.038-.188.057Q60.098 31 60 31t-.195-.02q-.097-.018-.188-.056-.09-.038-.173-.092-.081-.055-.151-.125-.07-.07-.124-.151-.055-.082-.093-.173-.038-.091-.057-.188Q59 30.098 59 30q0-.099.02-.195.018-.097.056-.188.038-.09.093-.173.054-.081.124-.151.07-.07.151-.124.082-.055.173-.093.091-.038.188-.057Q59.902 29 60 29t.195.02q.097.018.188.056.09.038.173.092.081.055.151.125.07.07.124.151.055.082.093.173.038.091.057.188.019.097.019.195zm0-20q0 .098-.02.195-.018.097-.056.188-.038.09-.093.173-.054.081-.124.151-.07.07-.151.124-.082.055-.173.093-.091.038-.188.057Q60.098 11 60 11t-.195-.02q-.097-.018-.188-.056-.09-.038-.173-.093-.081-.054-.151-.124-.07-.07-.124-.151-.055-.082-.093-.173-.038-.091-.057-.188Q59 10.098 59 10t.02-.195q.018-.097.056-.188.038-.09.093-.173.054-.081.124-.151.07-.07.151-.124.082-.055.173-.093.091-.038.188-.057Q59.902 9 60 9t.195.02q.097.018.188.056.09.038.173.093.081.054.151.124.07.07.124.151.055.082.093.173.038.091.057.188Q61 9.902 61 10z"/></g></g></svg>