<svg fill="none" height="60" width="60" xmlns="http://www.w3.org/2000/svg"><linearGradient id="a" x1=".439" x2=".576" y1="0" y2="1"><stop offset="0" stop-color="#2258f6"/><stop offset="0" stop-color="#1149ed"/><stop offset="1" stop-color="#5a83f9"/></linearGradient><path d="M17.413 12.957q.033-.28.078-.557.045-.278.103-.553.059-.276.13-.548.07-.273.154-.542.083-.27.18-.534.095-.266.203-.526.109-.26.229-.516.12-.256.252-.506t.275-.493q.144-.244.298-.481.155-.237.32-.467.166-.23.342-.453.176-.222.362-.436t.382-.42q.196-.206.401-.403.205-.196.42-.384.214-.187.437-.365.222-.177.453-.345.23-.168.469-.325.238-.157.484-.303.245-.146.497-.281.252-.136.51-.26.258-.123.521-.235.263-.112.532-.213.268-.1.54-.188.274-.089.55-.164.277-.076.556-.14.28-.064.563-.115.282-.05.567-.089.284-.038.57-.064.286-.025.573-.038.287-.013.574-.013.288 0 .574.013.287.013.573.038.285.026.57.064.284.038.566.09.283.05.562.113.28.064.556.14.276.076.549.164.272.088.54.188.269.1.532.212.263.112.52.235.259.124.51.259.252.135.497.28.245.147.484.304.238.157.468.324.231.167.454.344.222.178.436.365.215.187.42.383.205.197.4.402.197.206.383.42t.362.436q.176.222.342.451.165.23.32.466.155.237.298.48.144.244.276.494.132.25.252.504.12.255.229.516.108.26.204.525.096.265.18.533.084.27.155.542t.13.547q.058.275.104.553.045.277.078.557.193.023.384.055.192.032.381.072.19.04.378.09.188.049.373.106.186.058.368.124.183.066.362.14.18.074.356.156.175.082.347.172.172.09.34.188.168.098.33.203.164.105.322.218t.311.232q.153.12.3.246.148.127.29.26.14.132.276.272.135.139.264.284.129.145.25.296.123.151.238.307.115.157.223.318t.209.328q.1.166.193.336t.178.345q.085.175.162.353t.146.36q.069.18.13.365.06.185.112.372.052.187.096.376.044.189.079.38.035.19.06.383.027.193.045.386.017.193.026.387.009.194.009.388 0 .21-.01.42t-.031.42q-.02.208-.052.416-.03.208-.071.414-.041.206-.092.41-.052.204-.113.405-.06.201-.131.399-.071.198-.152.392-.08.194-.17.384-.09.19-.189.375-.099.186-.207.366-.108.18-.225.355-.116.175-.241.343-.126.169-.259.332-.133.162-.274.318-.141.155-.29.304t-.304.29q-.156.14-.318.274-.163.133-.332.259-.168.125-.343.241-.175.117-.355.225t-.366.207q-.185.1-.375.19-.19.089-.384.17-.194.08-.392.15-.198.071-.399.132-.201.061-.405.113-.204.05-.41.092-.206.04-.414.071-.208.031-.417.052-.209.02-.419.03-.21.011-.42.011H18.56q-.21 0-.42-.01t-.42-.031q-.208-.02-.416-.052-.208-.03-.414-.071-.206-.041-.41-.092-.204-.052-.405-.113-.201-.06-.399-.131-.198-.071-.392-.152-.194-.08-.384-.17-.19-.09-.375-.189-.186-.099-.366-.207-.18-.108-.355-.225-.174-.116-.343-.241-.169-.126-.331-.259-.163-.133-.319-.274-.155-.141-.304-.29-.148-.149-.29-.304-.14-.156-.274-.318-.133-.163-.258-.332-.126-.168-.242-.343-.117-.175-.225-.355t-.207-.366q-.1-.185-.19-.375-.089-.19-.17-.384-.08-.194-.15-.392-.071-.198-.132-.399-.061-.201-.112-.405-.052-.204-.093-.41-.04-.206-.071-.414-.031-.208-.052-.417-.02-.209-.03-.419-.011-.21-.011-.42 0-.192.009-.384.008-.192.025-.383.018-.192.044-.382.025-.19.06-.38.034-.189.077-.376.042-.187.094-.372.05-.186.11-.368.06-.183.127-.363.068-.18.143-.357.076-.176.16-.35.082-.173.174-.342.09-.17.19-.334.098-.165.204-.325.106-.16.218-.316.113-.155.233-.306.12-.15.247-.295.126-.144.259-.283.133-.14.272-.272.138-.133.283-.259.145-.126.295-.246t.306-.233q.155-.113.316-.219.16-.105.325-.204.165-.098.334-.19.17-.09.343-.174.173-.083.35-.159.176-.075.356-.143.18-.067.363-.126.183-.06.368-.11.185-.052.373-.095.187-.042.376-.076.189-.035.38-.06zM7.263 46.258q.019-.16.045-.319.026-.158.06-.316.033-.157.074-.313.04-.155.089-.31.048-.153.103-.304.055-.152.117-.3.063-.15.132-.295.069-.146.145-.289.076-.143.158-.282.083-.14.172-.275.089-.135.184-.266.095-.132.196-.259.101-.126.208-.249.107-.122.22-.24.113-.117.23-.23.119-.112.242-.219t.251-.208q.128-.102.26-.198.133-.095.27-.185t.278-.173q.141-.084.286-.16.145-.078.293-.149.149-.07.3-.134.151-.065.306-.122.154-.057.31-.107.157-.05.316-.094.16-.044.32-.08.161-.036.323-.065.163-.03.326-.051.164-.022.328-.037.165-.014.33-.022.165-.007.33-.007t.33.007q.164.008.329.022.164.015.327.037.164.022.326.05.162.03.323.066.16.036.32.08.158.043.315.093t.31.107q.155.058.306.122t.3.134q.148.07.293.148.144.077.285.16.141.084.278.173.137.09.27.185.132.096.26.197t.251.208q.123.107.241.22.118.111.231.229.113.117.22.24.107.121.208.248.101.127.196.258t.184.266q.09.136.172.275.083.139.158.281.076.143.146.288.069.146.131.295.062.148.118.3.055.151.103.305.048.153.09.309.04.155.074.312.034.158.06.316.026.159.045.318.222.025.44.07.218.046.431.111t.42.15q.206.084.404.186.198.103.385.223.188.12.364.256.176.137.339.29.163.151.31.318.15.166.282.345.132.18.248.37.116.19.214.39.098.2.177.408.08.209.14.423.06.215.1.434.04.219.06.44.021.223.021.446 0 .12-.006.24t-.018.24q-.011.119-.029.237-.018.12-.041.237-.023.118-.053.234-.029.117-.064.232-.035.114-.075.228-.04.113-.086.224-.046.11-.098.219-.051.108-.108.214-.056.106-.118.21-.062.102-.128.202-.067.1-.139.196-.071.097-.147.19-.077.093-.157.182-.08.088-.166.173-.085.085-.174.166-.089.08-.181.157-.093.076-.19.147-.096.072-.196.139-.1.066-.203.128-.103.062-.209.118-.106.057-.214.108-.109.052-.22.098-.11.046-.224.086-.113.04-.227.075-.115.035-.232.064-.116.03-.234.053-.118.023-.237.041-.118.018-.238.03-.12.011-.24.017-.12.006-.24.006H7.892q-.12 0-.24-.006t-.24-.018q-.119-.011-.237-.029-.12-.018-.237-.041-.118-.023-.234-.053-.117-.029-.232-.064-.114-.035-.228-.075-.113-.04-.224-.086-.11-.046-.219-.098-.109-.051-.214-.108-.106-.056-.21-.118-.102-.062-.202-.128-.1-.067-.196-.139-.097-.071-.19-.147t-.181-.157q-.09-.08-.174-.166-.085-.085-.166-.173-.08-.09-.157-.182-.076-.093-.147-.19-.072-.096-.139-.196-.066-.1-.128-.203-.062-.103-.118-.209-.057-.106-.108-.214-.052-.109-.098-.22-.046-.11-.086-.223-.04-.114-.075-.228-.035-.115-.064-.232-.03-.116-.053-.234-.023-.118-.041-.237-.018-.118-.03-.238-.011-.12-.017-.24-.006-.12-.006-.24 0-.22.02-.44t.06-.436q.039-.217.098-.43.059-.212.136-.419.078-.206.174-.405.096-.198.21-.387.113-.19.244-.368.13-.178.275-.343.146-.166.306-.318t.333-.289q.173-.137.357-.257.185-.121.38-.225.194-.103.397-.19.204-.085.414-.152.21-.067.425-.115t.434-.076zm31 0q.019-.16.045-.319.026-.158.06-.316.033-.157.074-.313.04-.155.089-.31.048-.153.103-.304.055-.152.117-.3.063-.15.132-.295.069-.146.145-.289.076-.143.158-.282.083-.14.172-.275.089-.135.184-.266.095-.132.196-.259.101-.126.208-.249.107-.122.22-.24.113-.117.23-.23.119-.112.242-.219t.251-.208q.128-.102.26-.198.133-.095.27-.185t.278-.173q.141-.084.286-.16.145-.078.293-.149.149-.07.3-.134.151-.065.306-.122.154-.057.31-.107.157-.05.316-.094.16-.044.32-.08.161-.036.323-.065.163-.03.326-.051.164-.022.328-.037.165-.014.33-.022.165-.007.33-.007t.33.007q.164.008.329.022.164.015.327.037.164.022.326.05.162.03.323.066.16.036.32.08.158.043.315.093t.31.107q.155.058.306.122t.3.134q.148.07.293.148.144.077.285.16.141.084.278.173.137.09.27.185.132.096.26.197t.251.208q.123.107.241.22.118.111.231.229.113.117.22.24.107.121.208.248.101.127.196.258.096.131.184.266.09.136.172.275.083.139.158.281.076.143.146.288.069.146.131.295.063.148.118.3.055.151.103.305.049.153.09.309.04.155.074.312.034.158.06.316.026.159.045.318.222.025.44.07.218.046.431.111t.42.15q.206.084.404.186.198.103.385.223.188.12.364.256.176.137.339.29.163.151.31.318.15.166.282.345.132.18.248.37.116.19.214.39.098.2.177.408.08.209.14.423.06.215.1.434.04.219.06.44.021.223.021.446 0 .12-.006.24t-.018.24q-.011.119-.029.237-.018.12-.041.237-.023.118-.053.234-.029.117-.064.232-.034.114-.075.228-.04.113-.086.224-.046.11-.098.219-.051.108-.108.214-.056.106-.118.21-.062.102-.128.202-.067.1-.139.196-.071.097-.147.19t-.157.182q-.08.088-.166.173-.084.085-.173.166-.09.08-.182.157-.093.076-.19.147-.096.072-.196.139-.1.066-.203.128-.103.062-.209.118-.105.057-.214.108-.109.052-.22.098-.11.046-.223.086-.113.04-.228.075-.115.035-.232.064-.116.03-.234.053-.118.023-.237.041-.118.018-.238.03-.12.011-.24.017-.12.006-.24.006H38.892q-.12 0-.24-.006t-.24-.018q-.119-.011-.237-.029-.12-.018-.237-.041-.118-.023-.234-.053-.117-.029-.232-.064-.114-.035-.228-.075-.113-.04-.224-.086-.11-.046-.219-.098-.109-.051-.214-.108-.106-.056-.21-.118-.102-.062-.202-.128-.1-.067-.196-.139-.097-.071-.19-.147t-.181-.157q-.09-.08-.174-.166-.085-.085-.166-.173-.08-.09-.157-.182-.076-.093-.147-.19-.072-.096-.139-.196-.066-.1-.128-.203-.062-.103-.118-.209-.057-.106-.108-.214-.052-.109-.098-.22-.046-.11-.086-.223-.04-.114-.075-.228-.035-.115-.064-.232-.03-.116-.053-.234-.023-.118-.041-.237-.018-.118-.03-.238-.011-.12-.017-.24-.006-.12-.006-.24 0-.22.02-.44t.06-.436q.039-.217.098-.43.059-.212.136-.419.078-.206.174-.405.096-.198.21-.387.113-.19.244-.368.13-.178.275-.343.146-.166.306-.318t.333-.289q.173-.137.357-.257.185-.121.38-.225.194-.103.397-.19.204-.085.414-.152.21-.067.425-.115t.434-.076z" fill="url(#a)" fill-rule="evenodd"/><path d="M13.5 40v-3q0-1.036.732-1.768T16 34.5h28q1.036 0 1.768.732T46.5 37v3h-1v-3q0-.621-.44-1.06-.439-.44-1.06-.44H16q-.621 0-1.06.44-.44.439-.44 1.06v3z" fill="#c1c1c1"/><path d="M30.5 30v5h-1v-5z" fill="#c1c1c1"/></svg>