<svg fill="none" height="322" width="500" xmlns="http://www.w3.org/2000/svg"><filter id="a" color-interpolation-filters="sRGB" height="274.079" width="321.985" x="-48" y="-44"><feFlood flood-opacity="0" result="BackgroundImageFix"/><feColorMatrix in="SourceAlpha" values="0 0 0 0 0 0 0 0 0 0 0 0 0 0 0 0 0 0 127 0"/><feOffset dy="4"/><feGaussianBlur stdDeviation="12"/><feColorMatrix values="0 0 0 0 0.0784313753247261 0 0 0 0 0.2980392277240753 0 0 0 0 0.929411768913269 0 0 0 0.20000000298023224 0"/><feBlend in2="BackgroundImageFix" result="effect1_dropShadow"/><feBlend in="SourceGraphic" in2="effect1_dropShadow" result="shape"/></filter><linearGradient id="b" x1=".439" x2=".576" y1="0" y2="1"><stop offset="0" stop-color="#1149ed"/><stop offset="1" stop-color="#5a83f9"/></linearGradient><filter id="c" color-interpolation-filters="sRGB" height="190" width="190" x="-40" y="-30"><feFlood flood-opacity="0" result="BackgroundImageFix"/><feColorMatrix in="SourceAlpha" values="0 0 0 0 0 0 0 0 0 0 0 0 0 0 0 0 0 0 127 0"/><feOffset dy="10"/><feGaussianBlur stdDeviation="10"/><feColorMatrix values="0 0 0 0 0 0 0 0 0 0 0 0 0 0 0 0 0 0 0.05000000074505806 0"/><feBlend in2="BackgroundImageFix" result="effect1_dropShadow"/><feBlend in="SourceGraphic" in2="effect1_dropShadow" result="shape"/></filter><filter id="d" color-interpolation-filters="sRGB" height="190" width="190" x="-40" y="-30"><feFlood flood-opacity="0" result="BackgroundImageFix"/><feColorMatrix in="SourceAlpha" values="0 0 0 0 0 0 0 0 0 0 0 0 0 0 0 0 0 0 127 0"/><feOffset dy="10"/><feGaussianBlur stdDeviation="10"/><feColorMatrix values="0 0 0 0 0 0 0 0 0 0 0 0 0 0 0 0 0 0 0.05000000074505806 0"/><feBlend in2="BackgroundImageFix" result="effect1_dropShadow"/><feBlend in="SourceGraphic" in2="effect1_dropShadow" result="shape"/></filter><filter id="e" color-interpolation-filters="sRGB" height="190" width="190" x="-40" y="-30"><feFlood flood-opacity="0" result="BackgroundImageFix"/><feColorMatrix in="SourceAlpha" values="0 0 0 0 0 0 0 0 0 0 0 0 0 0 0 0 0 0 127 0"/><feOffset dy="10"/><feGaussianBlur stdDeviation="10"/><feColorMatrix values="0 0 0 0 0 0 0 0 0 0 0 0 0 0 0 0 0 0 0.05000000074505806 0"/><feBlend in2="BackgroundImageFix" result="effect1_dropShadow"/><feBlend in="SourceGraphic" in2="effect1_dropShadow" result="shape"/></filter><g filter="url(#a)"><path d="M137 200.079c0 8.837 7.163 16 16 16h193.985c8.837 0 16-7.163 16-16V69.419c0-8.837-7.163-16-16-16H235.842a8 8 0 01-3.941-1.04l-19.896-11.264A24 24 0 00200.18 38H153c-8.837 0-16 7.163-16 16z" fill="url(#b)"/></g><rect fill="#fff" height="12" opacity=".2" rx="6" width="170" x="165" y="84"/><rect fill="#fff" height="12" opacity=".2" rx="6" width="170" x="165" y="118"/><g filter="url(#c)"><rect fill="#fff" height="110" rx="16" width="110" x="325" y="174"/><rect height="109" rx="15.5" stroke="#e6e8e9" width="109" x="325.5" y="174.5"/></g><path d="M354.62 213.167h50.804a.576.576 0 00.576-.576 3.93 3.93 0 00-4.042-3.909h-26.711a.598.598 0 01-.564-.429c-.599-1.954-4.832-5.253-6.853-5.253h-10.951a2.891 2.891 0 00-2.879 2.892v6.699a.576.576 0 00.62.576zm50.804 2.26h-50.803a.576.576 0 00-.576.576v21.396a2.88 2.88 0 002.879 2.88h17.905c.318 0 .576.258.576.576v6.778a.576.576 0 01-.576.577h-8.15a3.478 3.478 0 00-3.467 3.468 3.388 3.388 0 003.466 3.321h24.239a3.388 3.388 0 003.455-3.321 3.467 3.467 0 00-3.455-3.468h-8.151a.576.576 0 01-.576-.577v-6.778c0-.318.258-.576.576-.576h20.265a2.891 2.891 0 002.89-2.88v-21.396a.576.576 0 00-.576-.577zm-29.014 11.296h-1.524a.52.52 0 00-.508.52v8.02a.509.509 0 01-.508.509h-5.747a.508.508 0 01-.508-.508v-8.021a.52.52 0 00-.508-.52h-1.806a.508.508 0 01-.395-.825l5.554-6.936a.508.508 0 01.79 0l5.555 6.936a.509.509 0 01-.474.814zm18.74 3.062l-5.554 6.936a.508.508 0 01-.79 0l-5.555-6.936a.509.509 0 01.396-.825h1.456a.52.52 0 00.508-.52v-7.975a.52.52 0 01.508-.509h5.758c.28 0 .508.228.508.509v7.975a.53.53 0 00.519.52h1.795a.508.508 0 01.373.813z" fill="#083145"/><g filter="url(#d)"><rect fill="#fff" height="110" rx="16" width="110" x="195" y="174"/><rect height="109" rx="15.5" stroke="#e6e8e9" width="109" x="195.5" y="174.5"/></g><path d="M219 229c0-17.209 13.966-31.124 31.112-31C267.171 198 281 211.88 281 229c0 17.12-13.829 30.998-30.888 30.998-17.173.191-31.178-13.763-31.112-30.999zm40.858-1.668l.213 12.079c0 1.25.202 1.453 1.448 1.453h2.908c1.449 0 1.662-.203 1.662-1.667v-19.775c0-2.501 0-2.501-2.695-2.501a5.07 5.07 0 00-3.323 1.261c-3.11 3.335-6.39 6.414-9.586 9.62-.618.63-1.065.63-1.449 0-2.907-2.918-6.018-5.825-8.712-8.743a5.667 5.667 0 00-5.187-2.085 1.067 1.067 0 00-1.204 1.208v21.432a1.067 1.067 0 001.246 1.25h3.11c1.247 0 1.449-.235 1.449-1.453v-11.245c0-.203-.203-.62.213-.834l7.882 7.953c1.661 1.667 2.279 1.667 3.94 0a96.312 96.312 0 008.085-7.91z" fill="#d90007"/><g filter="url(#e)"><rect fill="#fff" height="110" rx="16" width="110" x="65" y="174"/><rect height="109" rx="15.5" stroke="#e6e8e9" width="109" x="65.5" y="174.5"/></g><path d="M103.5 200L87 211.115l16.5 10.95 16.5-10.95zm33 0L120 211.113l16.5 10.949 16.5-10.95zM87 233.18l16.5 11.112L120 233.18l-16.5-11.116zm49.5-11.116L120 233.177l16.5 11.113 16.5-11.113zm-33 25.823L120 259l16.5-11.113-16.5-10.949z" fill="#0061fe"/></svg>