<svg fill="none" height="60" width="60" xmlns="http://www.w3.org/2000/svg"><linearGradient id="a" x1="0" x2="1" y1=".5" y2=".5"><stop offset="0" stop-color="#1149ed"/><stop offset="1" stop-color="#5a83f9"/></linearGradient><path d="M4 40V10q0-.197.02-.392.019-.196.057-.388.038-.193.095-.381t.132-.37q.076-.181.168-.355.093-.173.202-.336.11-.164.234-.316.125-.151.264-.29.139-.14.29-.264.152-.125.316-.234.163-.11.336-.202.174-.092.355-.168.182-.075.37-.132.188-.057.38-.095.193-.038.389-.058Q7.803 6 8 6h44q.197 0 .392.02.196.019.388.057.193.038.381.095t.37.132q.181.076.355.168.173.093.336.202.164.11.316.234.152.125.29.264.14.139.264.29.125.152.234.316.109.163.202.336.092.174.167.355.076.182.133.37.057.188.095.38.038.193.058.389Q56 9.803 56 10v30q0 .197-.02.392-.019.196-.057.388-.038.193-.095.381t-.133.37q-.075.181-.167.355-.093.173-.202.336-.11.164-.234.316-.125.152-.264.29-.139.14-.29.264-.152.125-.316.234-.163.109-.336.202-.174.092-.355.167-.182.076-.37.133-.188.057-.38.095-.193.038-.389.058Q52.196 44 52 44H35l1 6h4q.098 0 .196.01t.194.028q.096.02.19.048.095.029.185.066.091.038.178.084.086.046.168.101.082.055.158.117.076.062.145.132.07.07.132.145.062.076.117.158.055.082.1.168.047.087.085.178.037.09.066.184.028.094.048.19.019.097.028.195.01.098.01.196t-.01.196q-.01.098-.028.194-.02.096-.048.19-.029.095-.066.185-.038.091-.084.178-.046.086-.101.168-.055.082-.117.158-.062.076-.132.145-.07.07-.145.132-.076.062-.158.117-.082.054-.168.1-.087.047-.178.085-.09.037-.184.066-.095.028-.19.048-.097.019-.195.028-.098.01-.196.01H20q-.098 0-.196-.01t-.194-.028q-.096-.02-.19-.048-.095-.029-.185-.066-.091-.038-.178-.084-.086-.047-.168-.101-.082-.055-.158-.117-.076-.062-.145-.132-.07-.07-.132-.145-.062-.076-.117-.158-.054-.082-.1-.168-.047-.087-.085-.178-.037-.09-.066-.184-.028-.095-.048-.19-.019-.097-.028-.195Q18 52.098 18 52t.01-.196q.01-.098.028-.194.02-.097.048-.19.029-.095.066-.185.038-.091.084-.178.047-.086.101-.168.055-.082.117-.158.062-.076.132-.145.07-.07.145-.132.076-.062.158-.117.082-.055.168-.1.087-.047.178-.085.09-.037.184-.066.094-.028.19-.048.097-.019.195-.028.098-.01.196-.01h4l1-6H8q-.197 0-.392-.02-.196-.019-.388-.057-.193-.038-.381-.095t-.37-.133q-.181-.075-.355-.167-.173-.093-.336-.202-.164-.11-.316-.234-.151-.125-.29-.264-.14-.139-.264-.29-.125-.152-.234-.316-.11-.163-.202-.336-.092-.174-.168-.355-.075-.182-.132-.37-.057-.188-.095-.38-.038-.193-.058-.389Q4 40.196 4 40z" fill="url(#a)" fill-rule="evenodd"/><rect fill="#fff" height="22" rx="2" transform="matrix(1 0 0 -1 0 72)" width="34" x="13" y="36"/><circle cx="40" cy="21" fill="#4572f5" r="5"/><g fill="#fff"><path d="M41.79 23.496l-4.286-4.285.707-.707 4.285 4.285zm.853-.353q0 .05-.01.097-.01.049-.028.094-.019.046-.046.087-.028.04-.063.075-.034.035-.075.063-.041.027-.087.046-.045.019-.094.028-.048.01-.097.01-.05 0-.098-.01t-.093-.028q-.046-.019-.087-.046-.04-.028-.076-.063-.035-.034-.062-.075-.027-.041-.046-.087-.019-.045-.029-.094-.01-.048-.01-.097 0-.05.01-.098t.029-.093q.019-.046.046-.087.027-.04.062-.076.035-.035.076-.062.041-.027.087-.046.045-.019.093-.029.049-.01.098-.01.05 0 .097.01.049.01.094.029.046.019.087.046.04.027.075.062.035.035.063.076.027.041.046.087.019.045.028.093.01.049.01.098zm-4.286-4.286q0 .05-.01.098t-.028.093q-.019.046-.046.087-.027.04-.062.076-.035.035-.076.062-.041.027-.087.046-.045.019-.093.029-.049.01-.098.01-.05 0-.097-.01-.049-.01-.094-.029-.046-.019-.087-.046-.04-.027-.075-.062-.035-.035-.063-.076-.027-.041-.046-.087-.019-.045-.028-.093-.01-.049-.01-.098 0-.05.01-.097.01-.049.028-.094.019-.046.046-.087.028-.04.063-.075.034-.035.075-.063.041-.027.087-.046.045-.019.094-.028.048-.01.097-.01.05 0 .098.01t.093.028q.046.019.087.046.04.028.076.063.035.034.062.075.027.041.046.087.019.045.029.094.01.048.01.097z"/><path d="M38.21 23.496l4.286-4.285-.707-.707-4.285 4.285zm-.853-.353q0 .05.01.097.01.049.028.094.019.046.046.087.028.04.063.075.034.035.075.063.041.027.087.046.045.019.094.028.048.01.097.01.05 0 .098-.01t.093-.028q.046-.019.087-.046.04-.028.076-.063.035-.034.062-.075.027-.041.046-.087.019-.045.029-.094.01-.048.01-.097 0-.05-.01-.098t-.029-.093q-.019-.046-.046-.087-.027-.04-.062-.076-.035-.035-.076-.062-.041-.027-.087-.046-.045-.019-.093-.029-.049-.01-.098-.01-.05 0-.097.01-.049.01-.094.029-.046.019-.087.046-.04.027-.075.062-.035.035-.063.076-.027.041-.046.087-.019.045-.028.093-.01.049-.01.098zm4.286-4.286q0 .05.01.098t.028.093q.019.046.046.087.027.04.062.076.035.035.076.062.041.027.087.046.045.019.093.029.049.01.098.01.05 0 .097-.01.049-.01.094-.029.046-.019.087-.046.04-.027.075-.062.035-.035.063-.076.027-.041.046-.087.019-.045.028-.093.01-.049.01-.098 0-.05-.01-.097-.01-.049-.028-.094-.019-.046-.046-.087-.028-.04-.063-.075-.034-.035-.075-.063-.041-.027-.087-.046-.045-.019-.094-.028-.048-.01-.097-.01-.05 0-.098.01t-.093.028q-.046.019-.087.046-.04.028-.076.063-.035.034-.062.075-.027.041-.046.087-.019.045-.029.094-.01.048-.01.097z"/></g></svg>