<svg fill="none" height="60" width="60" xmlns="http://www.w3.org/2000/svg"><linearGradient id="a" x1=".439" x2=".576" y1="0" y2="1"><stop offset="0" stop-color="#2258f6"/><stop offset="0" stop-color="#1149ed"/><stop offset="1" stop-color="#5a83f9"/></linearGradient><circle cx="30" cy="30" stroke="#c1c1c1" r="20"/><path d="M4.263 28.258q.019-.16.045-.318.026-.16.06-.317.033-.157.074-.313.04-.155.089-.31.048-.153.103-.304.055-.152.117-.3.063-.15.132-.295.069-.146.145-.289.076-.143.158-.282.083-.14.172-.275.089-.135.184-.266.095-.132.196-.259.101-.126.208-.249.107-.122.22-.24.113-.117.23-.23.119-.112.242-.219t.251-.208q.128-.102.26-.198.133-.095.27-.185t.278-.173q.141-.084.286-.16.145-.078.293-.149.149-.07.3-.134.151-.065.306-.122.154-.057.31-.107.157-.05.316-.094.16-.044.32-.08.161-.036.323-.065.163-.03.326-.051.164-.022.328-.037.165-.014.33-.022.165-.007.33-.007t.33.007q.164.008.328.022.165.015.328.037.164.022.326.05.162.03.323.066.16.036.32.08.158.043.315.093t.31.107q.155.058.306.122t.3.134q.148.07.293.148.144.077.285.16.141.084.278.173.137.09.27.185.132.096.26.197t.251.208q.123.107.241.22.118.111.231.229.113.117.22.24.107.121.208.248.101.127.196.258.096.131.184.266.09.136.172.275.083.139.158.281.076.143.146.288.069.146.131.295.063.149.118.3.055.151.103.305.049.153.09.309.04.155.074.312.034.158.06.316.026.159.045.318.222.025.44.07.218.046.431.111t.42.15q.206.084.404.186.198.103.385.223.188.12.364.256.176.137.339.29.163.151.31.318.15.166.282.345.132.18.248.37.116.19.214.39.098.2.177.408.08.209.14.423.06.215.1.434.04.219.06.44.021.223.021.446 0 .12-.006.24t-.018.24q-.011.119-.029.237-.018.12-.041.237-.023.118-.053.234-.029.117-.064.232-.035.114-.075.228-.04.113-.086.224-.046.11-.098.219-.051.108-.108.214-.056.106-.118.21-.062.102-.128.202-.067.1-.139.196-.071.097-.147.19-.077.093-.157.182-.08.088-.166.173-.085.085-.174.166-.089.08-.181.157-.093.076-.19.147-.096.072-.196.139-.1.066-.203.128-.103.062-.209.118-.106.057-.214.108-.109.052-.22.098-.11.046-.224.086-.113.04-.227.075-.115.035-.232.064-.116.03-.234.053-.118.023-.237.041-.118.018-.238.03-.12.011-.24.017-.12.006-.24.006H4.892q-.12 0-.24-.006t-.24-.018q-.119-.011-.237-.029-.12-.018-.237-.041-.118-.023-.234-.053-.117-.029-.232-.064-.114-.035-.228-.075-.113-.04-.224-.086-.11-.046-.219-.098-.109-.051-.214-.108-.106-.056-.21-.118-.102-.062-.202-.128-.1-.067-.196-.139-.097-.071-.19-.147t-.181-.157q-.09-.08-.174-.166-.085-.085-.166-.173-.08-.09-.157-.182-.076-.093-.147-.19-.072-.096-.139-.196-.066-.1-.128-.203-.062-.103-.118-.209Q.52 35.308.47 35.2q-.052-.109-.098-.22-.046-.11-.086-.223-.04-.114-.075-.228-.035-.115-.064-.232-.03-.116-.053-.234-.023-.118-.041-.237-.018-.118-.03-.238-.011-.12-.017-.24-.006-.12-.006-.24 0-.22.02-.44t.06-.436q.039-.217.098-.43.059-.212.136-.419.078-.206.174-.405.096-.198.21-.387.113-.19.244-.368.13-.178.275-.343.146-.166.306-.318t.333-.289q.173-.137.357-.257.185-.121.38-.225.194-.103.397-.19.204-.085.414-.152.21-.067.425-.115t.434-.076zm37 0q.019-.16.045-.318.026-.16.06-.317.033-.157.074-.313.04-.155.089-.31.048-.153.103-.304.055-.152.117-.3.063-.15.132-.295.069-.146.145-.289.076-.143.158-.282.083-.14.172-.275.089-.135.184-.266.095-.132.196-.259.101-.126.208-.249.107-.122.22-.24.113-.117.23-.23.119-.112.242-.219t.251-.208q.128-.102.26-.198.133-.095.27-.185t.278-.173q.141-.084.286-.16.145-.078.293-.149.149-.07.3-.134.151-.065.306-.122.154-.057.31-.107.157-.05.316-.094.16-.044.32-.08.161-.036.323-.065.163-.03.326-.051.164-.022.328-.037.165-.014.33-.022.165-.007.33-.007t.33.007q.164.008.329.022.164.015.327.037.164.022.326.05.162.03.323.066.16.036.32.08.158.043.315.093t.31.107q.155.058.306.122t.3.134q.148.07.293.148.144.077.285.16.141.084.278.173.137.09.27.185.132.096.26.197t.251.208q.123.107.241.22.118.111.231.229.113.117.22.24.107.121.208.248.101.127.196.258.096.131.184.266.09.136.172.275.083.139.158.281.076.143.146.288.069.146.131.295.063.149.118.3.055.151.103.305.049.153.09.309.04.155.074.312.034.158.06.316.026.159.045.318.222.025.44.07.218.046.431.111t.42.15q.206.084.404.186.198.103.385.223.188.12.364.256.176.137.339.29.163.151.31.318.15.166.282.345.132.18.248.37.116.19.214.39.098.2.177.408.08.209.14.423.06.215.1.434.04.219.06.44.021.223.021.446 0 .12-.006.24t-.018.24q-.011.119-.029.237-.018.12-.041.237-.023.118-.053.234-.029.117-.064.232-.034.114-.075.228-.04.113-.086.224-.046.11-.098.219-.051.108-.108.214-.056.106-.118.21-.062.102-.128.202-.067.1-.139.196-.071.097-.147.19t-.157.182q-.08.088-.166.173-.084.085-.173.166-.09.08-.182.157-.093.076-.19.147-.096.072-.196.139-.1.066-.203.128-.103.062-.209.118-.105.057-.214.108-.109.052-.22.098-.11.046-.223.086-.113.04-.228.075-.115.035-.232.064-.116.03-.234.053-.118.023-.237.041-.118.018-.238.03-.12.011-.24.017-.12.006-.24.006H41.892q-.12 0-.24-.006t-.24-.018q-.119-.011-.237-.029-.12-.018-.237-.041-.118-.023-.234-.053-.117-.029-.232-.064-.114-.035-.228-.075-.113-.04-.224-.086-.11-.046-.219-.098-.109-.051-.214-.108-.106-.056-.21-.118-.102-.062-.202-.128-.1-.067-.196-.139-.097-.071-.19-.147t-.181-.157q-.09-.08-.174-.166-.085-.085-.166-.173-.08-.09-.157-.182-.076-.093-.147-.19-.072-.096-.139-.196-.066-.1-.128-.203-.062-.103-.118-.209-.057-.106-.108-.214-.052-.109-.098-.22-.046-.11-.086-.223-.04-.114-.075-.228-.035-.115-.064-.232-.03-.116-.053-.234-.023-.118-.041-.237-.018-.118-.03-.238-.011-.12-.017-.24-.006-.12-.006-.24 0-.22.02-.44t.06-.436q.039-.217.098-.43.059-.212.136-.419.078-.206.174-.405.096-.198.21-.387.113-.19.244-.368.13-.178.275-.343.146-.166.306-.318t.333-.289q.173-.137.357-.257.185-.121.38-.225.194-.103.397-.19.204-.085.414-.152.21-.067.425-.115t.434-.076zm-18-22q.019-.16.045-.318.026-.16.06-.317.033-.157.074-.313.04-.155.089-.31.048-.153.103-.304.055-.152.117-.3.063-.15.132-.295.069-.146.145-.289.076-.143.158-.282.083-.14.172-.274.089-.136.184-.267.095-.132.196-.259.101-.126.208-.249.107-.122.22-.24.113-.117.23-.23.119-.112.242-.219t.251-.208q.128-.102.26-.198.133-.095.27-.185t.278-.173q.141-.084.286-.16.145-.078.293-.149.149-.07.3-.134.151-.065.306-.122.154-.057.31-.107.157-.05.316-.094.16-.044.32-.08.161-.036.323-.065.163-.03.326-.051.164-.022.328-.037.165-.014.33-.022Q30.3 0 30.465 0t.33.007q.164.008.328.022.165.015.328.037.164.022.326.05.162.03.323.066.16.036.32.08.158.043.315.093.156.05.31.107.155.058.306.122t.3.134q.148.07.292.148.145.077.286.16.141.084.278.173.137.09.27.185.132.096.26.197t.251.208q.123.107.241.22.118.111.231.229.113.117.22.24.107.121.208.248.101.127.196.258.096.131.184.266.09.136.172.275.083.139.158.281.076.143.146.288.069.146.131.295.063.149.118.3.055.151.103.305.049.153.09.309.04.155.074.312.034.158.06.316.026.159.045.318.222.025.44.07.218.046.431.111t.42.15q.206.084.404.186.198.103.385.223.188.12.364.256.176.137.339.29.162.151.31.318.15.166.282.345.132.18.248.37.116.19.214.39.098.2.177.408.08.209.14.423.06.215.1.434.04.219.06.44.021.223.021.446 0 .12-.006.24t-.018.24q-.011.119-.029.237-.018.12-.041.237-.023.118-.053.234-.029.117-.064.232-.034.114-.075.228-.04.113-.086.224-.046.11-.098.219-.051.109-.108.214-.056.106-.118.21-.062.102-.128.202-.067.1-.139.196-.071.097-.147.19t-.157.182q-.08.088-.166.173-.084.085-.173.166-.09.08-.182.157-.093.076-.19.147-.096.072-.196.139-.1.066-.203.128-.103.062-.209.118-.105.057-.214.108-.109.052-.22.098-.11.046-.223.086-.113.04-.228.075-.115.035-.232.064-.116.03-.234.053-.118.023-.237.041-.118.018-.238.03-.12.011-.24.017-.12.006-.24.006H23.892q-.12 0-.24-.006t-.24-.018q-.119-.011-.237-.029-.12-.018-.237-.041-.118-.023-.234-.053-.117-.029-.232-.064-.114-.035-.228-.075-.113-.04-.224-.086-.11-.046-.219-.098-.109-.051-.214-.108-.106-.056-.21-.118-.102-.062-.202-.128-.1-.067-.196-.139-.097-.071-.19-.147-.093-.077-.181-.157-.09-.08-.174-.166-.085-.085-.166-.174-.08-.089-.157-.181-.076-.093-.147-.19-.072-.096-.139-.196-.066-.1-.128-.203-.062-.103-.118-.209-.057-.106-.108-.214-.052-.109-.098-.22-.046-.11-.086-.224-.04-.113-.075-.228-.035-.114-.064-.23-.03-.117-.053-.235-.023-.118-.041-.237-.018-.118-.03-.238-.011-.12-.017-.24-.006-.12-.006-.24 0-.22.02-.44t.06-.436q.039-.217.098-.43.059-.212.136-.419.078-.206.174-.405.096-.198.21-.387.113-.19.244-.368.13-.178.275-.343.146-.166.306-.318t.333-.289q.173-.137.357-.257.185-.121.38-.225.194-.103.397-.19.204-.085.414-.152.21-.067.425-.115t.434-.076zm0 44q.019-.16.045-.319.026-.158.06-.316.033-.157.074-.313.04-.155.089-.31.048-.153.103-.304.055-.152.117-.3.063-.15.132-.295.069-.146.145-.289.076-.143.158-.282.083-.14.172-.275.089-.135.184-.266.095-.132.196-.259.101-.126.208-.249.107-.122.22-.24.113-.117.23-.23.119-.112.242-.219t.251-.208q.128-.102.26-.198.133-.095.27-.185t.278-.173q.141-.084.286-.16.145-.078.293-.149.149-.07.3-.134.151-.065.306-.122.154-.057.31-.107.157-.05.316-.094.16-.044.32-.08.161-.036.323-.065.163-.03.326-.051.164-.022.328-.037.165-.014.33-.022.165-.007.33-.007t.33.007q.164.008.328.022.165.015.328.037.164.022.326.05.162.03.323.066.16.036.32.08.158.043.315.093.156.05.31.107.155.058.306.122t.3.134q.148.07.292.148.145.077.286.16.141.084.278.173.137.09.27.185.132.096.26.197t.251.208q.123.107.241.22.118.111.231.229.113.117.22.24.107.121.208.248.101.127.196.258.096.131.184.266.09.136.172.275.083.139.158.281.076.143.146.288.069.146.131.295.063.148.118.3.055.151.103.305.049.153.09.309.04.155.074.312.034.158.06.316.026.159.045.318.222.025.44.07.218.046.431.111t.42.15q.206.084.404.186.198.103.385.223.188.12.364.256.176.137.339.29.162.151.31.318.15.166.282.345.132.18.248.37.116.19.214.39.098.2.177.408.08.209.14.423.06.215.1.434.04.219.06.44.021.223.021.446 0 .12-.006.24t-.018.24q-.011.119-.029.237-.018.12-.041.237-.023.118-.053.234-.029.117-.064.232-.034.114-.075.228-.04.113-.086.224-.046.11-.098.219-.051.108-.108.214-.056.106-.118.21-.062.102-.128.202-.067.1-.139.196-.071.097-.147.19t-.157.182q-.08.088-.166.173-.084.085-.173.166-.09.08-.182.157-.093.076-.19.147-.096.072-.196.139-.1.066-.203.128-.103.062-.209.118-.105.057-.214.108-.109.052-.22.098-.11.046-.223.086-.113.04-.228.075-.115.035-.232.064-.116.03-.234.053-.118.023-.237.041-.118.018-.238.03-.12.011-.24.017-.12.006-.24.006H23.892q-.12 0-.24-.006t-.24-.018q-.119-.011-.237-.029-.12-.018-.237-.041-.118-.023-.234-.053-.117-.029-.232-.064-.114-.035-.228-.075-.113-.04-.224-.086-.11-.046-.219-.098-.109-.051-.214-.108-.106-.056-.21-.118-.102-.062-.202-.128-.1-.067-.196-.139-.097-.071-.19-.147t-.181-.157q-.09-.08-.174-.166-.085-.085-.166-.173-.08-.09-.157-.182-.076-.093-.147-.19-.072-.096-.139-.196-.066-.1-.128-.203-.062-.103-.118-.209-.057-.106-.108-.214-.052-.109-.098-.22-.046-.11-.086-.223-.04-.114-.075-.228-.035-.115-.064-.232-.03-.116-.053-.234-.023-.118-.041-.237-.018-.118-.03-.238-.011-.12-.017-.24-.006-.12-.006-.24 0-.22.02-.44t.06-.436q.039-.217.098-.43.059-.212.136-.419.078-.206.174-.405.096-.198.21-.387.113-.19.244-.368.13-.178.275-.343.146-.166.306-.318t.333-.289q.173-.137.357-.257.185-.121.38-.225.194-.103.397-.19.204-.085.414-.152.21-.067.425-.115t.434-.076z" fill="url(#a)" fill-rule="evenodd"/></svg>