<svg fill="none" height="60" width="60" xmlns="http://www.w3.org/2000/svg"><linearGradient id="a" x1=".439" x2=".576" y1="0" y2="1"><stop offset="0" stop-color="#2258f6"/><stop offset="0" stop-color="#1149ed"/><stop offset="1" stop-color="#5a83f9"/></linearGradient><path d="M11.032 24.448q.025-.437.072-.872.047-.436.115-.869.068-.432.157-.862.088-.429.198-.853.109-.425.238-.844.13-.419.28-.831.15-.413.32-.818.169-.405.357-.802.19-.397.397-.785.208-.388.434-.765.226-.378.47-.745.245-.366.506-.721.262-.356.54-.698.279-.343.574-.672.294-.33.605-.644.31-.316.635-.616t.664-.586q.34-.285.692-.554.353-.27.718-.522t.742-.488q.378-.235.765-.452.388-.218.786-.417.398-.2.806-.38.407-.181.822-.343.416-.162.839-.304.422-.142.852-.265.429-.122.863-.225.435-.102.874-.185.44-.082.882-.144.442-.062.887-.103.445-.042.892-.062Q29.46 7 29.908 7q.446 0 .892.02.447.021.891.063.445.04.887.103.442.061.88.144.44.082.874.184.434.103.863.225.429.122.851.264.423.142.838.304.415.161.822.342.407.18.805.379.397.199.785.416.388.217.765.452.376.235.741.487.366.252.718.521t.692.554q.339.284.664.584t.635.615q.31.315.605.644.295.328.573.67.279.342.54.697.262.354.506.72.245.367.471.744.227.377.434.764.209.387.398.784.189.396.358.8.17.405.32.817.15.412.28.83.13.42.24.843.11.425.199.853.089.429.157.861.069.432.116.867.048.435.074.872.288.037.573.086.286.05.569.112t.562.137q.28.076.556.163.277.088.549.188t.539.212q.267.112.529.236.262.124.518.26t.505.283q.25.147.493.305.242.159.478.328.235.169.462.349.228.18.447.369.22.19.43.389t.411.407q.201.21.393.427.191.217.373.443.181.226.352.46.171.233.332.475.16.241.31.49.15.248.287.503.138.254.264.515.127.26.241.527.115.266.217.537.103.271.193.547.09.275.167.555.078.279.142.561.065.283.117.568.052.285.091.572.04.287.066.576.026.288.039.578.013.29.013.579 0 .315-.016.63-.015.315-.046.628-.03.314-.077.626-.046.312-.108.62-.061.31-.138.616-.076.305-.168.607-.091.302-.198.598-.106.297-.226.588-.121.292-.256.576-.135.285-.283.563-.149.278-.31.549-.163.27-.338.532-.175.262-.363.515-.188.254-.387.497-.2.244-.412.477-.212.234-.435.457t-.456.434q-.234.212-.477.412-.244.2-.497.388-.253.187-.515.363-.262.175-.533.337-.27.162-.548.31-.278.149-.563.284-.285.134-.576.255-.291.12-.588.227-.297.106-.598.198-.302.091-.608.168-.306.076-.615.138-.309.061-.62.107-.312.047-.626.078-.314.03-.629.046-.314.015-.63.015H12.84q-.316 0-.63-.015-.315-.016-.629-.046-.314-.031-.625-.078-.312-.046-.621-.107-.31-.062-.615-.138-.306-.077-.608-.168-.301-.092-.598-.198-.297-.106-.588-.227-.291-.12-.576-.255t-.563-.284q-.278-.148-.548-.31t-.533-.337q-.262-.176-.515-.363-.253-.188-.497-.388-.243-.2-.477-.412-.234-.211-.456-.434-.223-.223-.435-.457-.212-.233-.412-.477-.2-.243-.387-.497-.188-.253-.363-.515t-.337-.532q-.162-.27-.31-.549-.15-.278-.284-.563-.135-.284-.256-.576-.12-.29-.226-.588-.107-.296-.198-.598-.092-.302-.168-.607-.077-.306-.138-.615-.062-.31-.108-.621-.046-.312-.077-.626-.031-.313-.047-.628Q0 37.475 0 37.16q0-.287.013-.573.013-.287.038-.573.026-.286.064-.57.038-.284.09-.566.05-.282.114-.562.063-.28.14-.556.075-.277.164-.55.088-.273.188-.542.1-.268.213-.532.112-.264.236-.523.124-.259.26-.512.135-.252.281-.5.147-.246.304-.485.157-.24.325-.473.168-.232.346-.457.178-.225.366-.442.188-.216.386-.424.197-.208.404-.407.207-.2.422-.389.215-.19.439-.37.223-.179.454-.349.232-.17.47-.328.24-.16.485-.308t.497-.285q.252-.137.51-.263t.52-.24q.264-.114.532-.216.268-.103.54-.193.272-.09.548-.168.276-.078.556-.144.279-.065.56-.118.283-.053.567-.094z" fill="url(#a)" fill-rule="evenodd"/><circle cx="30" cy="31" fill="#fff" r="13"/><path d="M32.06 36.267l-3.311-2.986q-.098-.088-.175-.194-.077-.106-.13-.226-.054-.12-.08-.248-.028-.129-.028-.26v-6.824h2.5v6.824h-1.25l.837-.928 3.31 2.985zm2.086-.929q0 .062-.006.123-.006.06-.018.121-.012.06-.03.12-.017.058-.04.115-.024.056-.053.11-.03.055-.063.106-.035.05-.073.098-.04.048-.083.091-.043.044-.09.083-.048.038-.1.073-.05.034-.104.063-.055.029-.111.052-.057.024-.116.041-.059.018-.119.03t-.121.018q-.061.006-.123.006-.061 0-.122-.006t-.122-.018q-.06-.012-.119-.03-.058-.017-.115-.04-.057-.024-.111-.053-.054-.03-.105-.063-.051-.035-.099-.073-.047-.04-.09-.083-.044-.043-.083-.09-.039-.048-.073-.1-.034-.05-.063-.104-.03-.055-.053-.111-.023-.057-.04-.116-.019-.059-.03-.119-.013-.06-.019-.121t-.006-.123q0-.061.006-.122t.018-.122q.012-.06.03-.119.018-.058.041-.115.024-.057.053-.11.029-.055.063-.106t.073-.099q.039-.047.082-.09.044-.044.091-.083.048-.039.099-.073.05-.034.105-.063.054-.029.11-.053.058-.023.116-.04.06-.019.12-.03.06-.013.12-.019.062-.006.123-.006.062 0 .123.006.06.006.121.018.06.012.12.03.058.018.115.041.056.024.11.053.055.029.106.063.05.034.098.073.048.039.091.082.044.044.083.091.038.048.073.099.034.05.063.105.029.054.052.111.024.057.041.115.018.06.03.12t.018.12q.006.062.006.123zm-3.31-9.809q0 .062-.006.123-.006.06-.018.121-.012.06-.03.12-.018.058-.041.115-.024.056-.053.11-.029.055-.063.106-.034.05-.073.098-.039.048-.082.091-.044.044-.091.083-.048.039-.099.073-.05.034-.105.063-.054.029-.11.052-.057.024-.116.041-.059.018-.12.03-.06.012-.12.018-.062.006-.123.006t-.123-.006q-.06-.006-.12-.018-.061-.012-.12-.03-.059-.017-.115-.04-.057-.024-.111-.053-.054-.03-.106-.063-.05-.034-.098-.073-.048-.04-.09-.083-.044-.043-.083-.09-.04-.048-.073-.1-.035-.05-.063-.104-.03-.055-.053-.111-.023-.057-.041-.116-.018-.059-.03-.119t-.018-.121q-.006-.061-.006-.123 0-.061.006-.122t.018-.122q.012-.06.03-.119.018-.058.041-.115.024-.057.053-.11.028-.055.063-.106.034-.051.073-.099.039-.047.082-.09.043-.044.09-.083.048-.039.1-.073.05-.034.105-.063.054-.03.11-.053.057-.023.116-.04.059-.019.12-.03.06-.013.12-.019.062-.006.123-.006t.122.006q.062.006.122.018.06.012.119.03t.115.041q.057.024.111.053.054.029.105.063t.099.073q.047.039.09.082.044.044.083.091.04.048.073.099.034.05.063.105.03.054.053.11.023.058.041.116.018.06.03.12t.018.12q.006.062.006.123z" fill="#1f54ef"/></svg>