<svg fill="none" height="16" width="16" xmlns="http://www.w3.org/2000/svg"><circle cx="8" cy="8" stroke="#fff" stroke-width="1.5" r="7.25"/><path d="M11.223 6.278l-3.889 4.334q-.05.055-.108.099-.06.044-.126.076-.067.032-.138.05-.072.019-.145.023-.074.004-.147-.007-.073-.01-.143-.035-.07-.024-.133-.062-.064-.038-.119-.087-.048-.043-.088-.094l-1.666-2.11 1.177-.93 1.667 2.11-.589.466-.558-.501 3.889-4.334zm.192-.5q0 .073-.014.146-.015.072-.043.14-.028.069-.07.13-.04.061-.093.114-.052.052-.113.093-.062.041-.13.07-.068.028-.14.042-.073.014-.147.014t-.146-.014q-.073-.014-.141-.043-.068-.028-.13-.07-.061-.04-.113-.092-.053-.053-.094-.114-.04-.061-.069-.13-.028-.068-.043-.14-.014-.073-.014-.147t.014-.146q.015-.072.043-.14.028-.069.07-.13.04-.062.093-.114.052-.052.113-.093.062-.041.13-.07.068-.028.14-.042.073-.015.147-.015t.146.015q.073.014.14.042.07.029.13.07.062.04.114.093.052.052.094.114.04.061.069.13.028.068.043.14.014.072.014.146zM5.859 8q0 .073-.014.146-.014.072-.043.14-.028.069-.069.13-.041.062-.093.114-.053.052-.114.093-.061.041-.13.07-.068.028-.14.042-.073.015-.147.015-.073 0-.146-.015-.072-.014-.14-.043-.069-.028-.13-.069-.062-.04-.114-.093-.052-.052-.093-.114-.041-.061-.07-.13-.028-.068-.042-.14-.015-.073-.015-.146 0-.074.015-.147.014-.072.042-.14.029-.069.07-.13.04-.062.093-.114.052-.052.114-.093.061-.041.13-.07.068-.028.14-.042.073-.014.146-.014.074 0 .147.014.072.014.14.043.069.028.13.069.061.041.114.093.052.052.093.114.041.061.07.13.028.068.042.14.014.073.014.147z" fill="#fff"/></svg>