<svg fill="none" height="60" width="60" xmlns="http://www.w3.org/2000/svg"><linearGradient id="a" x1=".439" x2=".576" y1="0" y2="1"><stop offset="0" stop-color="#2258f6"/><stop offset="0" stop-color="#1149ed"/><stop offset="1" stop-color="#5a83f9"/></linearGradient><path d="M0 0h60v60H0z"/><path d="M20 13h36v4H20z" fill="url(#a)"/><circle cx="10" cy="15" fill="url(#a)" r="6"/><path d="M12.558 13.834l-2.917 3.25q-.05.055-.108.1-.06.044-.126.075-.067.032-.138.05-.072.019-.146.023-.073.004-.146-.007-.074-.01-.143-.035-.07-.024-.133-.062-.064-.037-.119-.087-.048-.043-.088-.093l-1.25-1.584 1.178-.93 1.25 1.584-.589.465-.558-.5 2.916-3.25zm.192-.501q0 .074-.015.146-.014.073-.042.141-.029.068-.07.13-.04.061-.093.113-.052.053-.114.094-.061.04-.13.069-.068.028-.14.043-.072.014-.146.014t-.147-.014q-.072-.015-.14-.043-.069-.028-.13-.07-.061-.04-.114-.093-.052-.052-.093-.113-.041-.062-.07-.13-.028-.068-.042-.14-.014-.073-.014-.147t.014-.146q.014-.073.043-.141.028-.068.07-.13.04-.061.092-.113.053-.053.114-.094.061-.04.13-.069.068-.028.14-.043.073-.014.147-.014t.146.014q.072.015.14.043.069.028.13.07.062.04.114.093.052.052.093.113.041.062.07.13.028.068.042.14.015.073.015.147zM8.583 15q0 .074-.014.146-.015.072-.043.14-.028.069-.07.13-.04.062-.093.114-.052.052-.113.093-.062.041-.13.07-.068.028-.14.042-.073.015-.147.015t-.146-.015q-.073-.014-.141-.042-.068-.029-.13-.07-.061-.04-.113-.093-.053-.052-.094-.114-.04-.061-.069-.13-.028-.068-.043-.14-.014-.072-.014-.146t.014-.147q.015-.072.043-.14.028-.069.07-.13.04-.061.093-.114.052-.052.113-.093.062-.041.13-.07.068-.028.14-.042.073-.014.147-.014t.146.014q.073.014.141.043.068.028.13.07.061.04.113.092.053.053.094.114.04.061.069.13.028.068.043.14.014.073.014.147z" fill="#fff"/><path d="M20 28h36v4H20z" fill="url(#a)"/><circle cx="10" cy="30" fill="url(#a)" r="6"/><path d="M12.558 28.834l-2.917 3.25q-.05.055-.108.1-.06.044-.126.075-.067.032-.138.05-.072.019-.146.023-.073.004-.146-.007-.074-.01-.143-.035-.07-.024-.133-.062-.064-.037-.119-.087-.048-.043-.088-.093l-1.25-1.584 1.178-.93 1.25 1.584-.589.465-.558-.5 2.916-3.25zm.192-.501q0 .074-.015.146-.014.073-.042.141-.029.068-.07.13-.04.061-.093.113-.052.053-.114.094-.061.04-.13.069-.068.028-.14.043-.072.014-.146.014t-.147-.014q-.072-.015-.14-.043-.069-.028-.13-.07-.061-.04-.114-.093-.052-.052-.093-.113-.041-.062-.07-.13-.028-.068-.042-.14-.014-.073-.014-.147t.014-.146q.014-.073.043-.141.028-.068.07-.13.04-.061.092-.113.053-.053.114-.094.061-.04.13-.069.068-.028.14-.043.073-.014.147-.014t.146.014q.072.015.14.043.069.028.13.07.062.04.114.093.052.052.093.113.041.062.07.13.028.068.042.14.015.073.015.147zM8.583 30q0 .074-.014.146-.015.072-.043.14-.028.069-.07.13-.04.062-.093.114-.052.052-.113.093-.062.041-.13.07-.068.028-.14.042-.073.015-.147.015t-.146-.015q-.073-.014-.141-.042-.068-.029-.13-.07-.061-.04-.113-.093-.053-.052-.094-.114-.04-.061-.069-.13-.028-.068-.043-.14-.014-.072-.014-.146t.014-.147q.015-.072.043-.14.028-.069.07-.13.04-.061.093-.114.052-.052.113-.093.062-.041.13-.07.068-.028.14-.042.073-.014.147-.014t.146.014q.073.014.141.043.068.028.13.07.061.04.113.092.053.053.094.114.04.061.069.13.028.068.043.14.014.073.014.147z" fill="#fff"/><path d="M20 43h36v4H20z" fill="url(#a)"/><circle cx="10" cy="45" fill="url(#a)" r="6"/><path d="M12.558 43.834l-2.917 3.25q-.05.055-.108.1-.06.044-.126.075-.067.032-.138.05-.072.019-.146.023-.073.004-.146-.007-.074-.01-.143-.035-.07-.024-.133-.062-.064-.037-.119-.087-.048-.043-.088-.093l-1.25-1.584 1.178-.93 1.25 1.584-.589.465-.558-.5 2.916-3.25zm.192-.501q0 .074-.015.146-.014.073-.042.141-.029.068-.07.13-.04.061-.093.113-.052.053-.114.094-.061.04-.13.069-.068.028-.14.043-.072.014-.146.014t-.147-.014q-.072-.015-.14-.043-.069-.028-.13-.07-.061-.04-.114-.093-.052-.052-.093-.113-.041-.062-.07-.13-.028-.068-.042-.14-.014-.073-.014-.147t.014-.146q.014-.073.043-.141.028-.068.07-.13.04-.061.092-.113.053-.053.114-.094.061-.04.13-.069.068-.028.14-.043.073-.014.147-.014t.146.014q.072.015.14.043.069.028.13.07.062.04.114.093.052.052.093.113.041.062.07.13.028.068.042.14.015.073.015.147zM8.583 45q0 .074-.014.146-.015.072-.043.14-.028.069-.07.13-.04.062-.093.114-.052.052-.113.093-.062.041-.13.07-.068.028-.14.042-.073.015-.147.015t-.146-.015q-.073-.014-.141-.042-.068-.029-.13-.07-.061-.04-.113-.093-.053-.052-.094-.114-.04-.061-.069-.13-.028-.068-.043-.14-.014-.072-.014-.146t.014-.147q.015-.072.043-.14.028-.069.07-.13.04-.061.093-.114.052-.052.113-.093.062-.041.13-.07.068-.028.14-.042.073-.014.147-.014t.146.014q.073.014.141.043.068.028.13.07.061.04.113.092.053.053.094.114.04.061.069.13.028.068.043.14.014.073.014.147z" fill="#fff"/></svg>