<svg fill="none" height="250" width="253" xmlns="http://www.w3.org/2000/svg" xmlns:xlink="http://www.w3.org/1999/xlink"><linearGradient id="b" x1=".5" x2=".5" y1=".696" y2="-.206"><stop offset="0" stop-color="#1149ed"/><stop offset=".064" stop-color="#2258f6"/><stop offset="1" stop-color="#5a83f9"/></linearGradient><linearGradient id="c" x1=".5" x2=".5" y1="-.066" y2="1"><stop offset="0" stop-color="#fff"/><stop offset="1" stop-color="#d4e4ff"/></linearGradient><linearGradient id="d" x1=".5" x2=".607" y1="1.218" y2="-.146"><stop offset="0" stop-color="#1149ed"/><stop offset=".064" stop-color="#2258f6"/><stop offset="1" stop-color="#5a83f9"/></linearGradient><linearGradient id="e" x1=".113" x2=".895" y1=".857" y2=".136"><stop offset="0" stop-color="#f7f7f7"/><stop offset="1" stop-color="#fff"/></linearGradient><linearGradient id="a"><stop offset="0" stop-color="#b7b4b1"/><stop offset=".55" stop-color="#949290"/><stop offset="1" stop-color="#7d7b79"/></linearGradient><linearGradient id="f" x1=".216" x2=".784" xlink:href="#a" y1="2.401" y2="-1.401"/><linearGradient id="g" x1=".234" x2=".766" xlink:href="#a" y1="6.957" y2="-5.956"/><linearGradient id="h" x1=".234" x2=".766" xlink:href="#a" y1="6.957" y2="-5.957"/><linearGradient id="i" x1=".439" x2=".576" y1="0" y2="1"><stop offset="0" stop-color="#1149ed"/><stop offset=".064" stop-color="#2258f6"/><stop offset="1" stop-color="#5a83f9"/></linearGradient><linearGradient id="j" x1=".888" x2="-.144" y1="1" y2="0"><stop offset="0" stop-color="#1149ed"/><stop offset=".064" stop-color="#2258f6"/><stop offset="1" stop-color="#5a83f9"/></linearGradient><linearGradient id="k" x1="-.137" x2="1.144" y1=".954" y2=".171"><stop offset="0" stop-color="#1149ed"/><stop offset=".064" stop-color="#2258f6"/><stop offset="1" stop-color="#5a83f9"/></linearGradient><path d="M244.327 83.343L135.464 2.954a15.097 15.097 0 00-17.939 0L8.667 83.354A21.353 21.353 0 000 100.527l86.102 71.677 31.28-23.709a15.097 15.097 0 0118.236 0l31.28 23.709 86.091-71.677a21.355 21.355 0 00-8.667-17.174z" fill="url(#b)"/><rect fill="url(#c)" height="172.194" rx="15" width="198.426" x="28.529" y="27.164"/><ellipse cx="117.975" cy="99.764" fill="url(#d)" rx="23.975" ry="23.977" transform="rotate(-58.282 93.997 75.782) skewX(-.005)"/><path d="M134.533 83.851c-2.71 1.43-5.47 1.973-8.77 1.973-8.082 0-14.93-5.91-14.93-15.373 0-10.152 7.045-18.921 17.986-18.921 8.574 0 14.34 6.009 14.34 14.239 0 7.391-4.14 11.727-8.77 11.727-1.974 0-3.798-1.332-3.648-4.336h-.197c-1.725 2.906-3.99 4.336-6.947 4.336-2.86 0-5.32-2.316-5.32-6.21 0-6.112 4.828-11.68 11.677-11.68 2.118 0 3.989.445 5.273 1.035l-1.673 8.92c-.741 3.744-.15 5.47 1.476 5.516 2.513.052 5.32-3.3 5.32-9.018 0-7.142-4.288-12.27-11.925-12.265-8.034 0-14.785 6.355-14.785 16.357 0 8.23 5.372 13.302 12.666 13.302 2.808 0 5.42-.591 7.44-1.725l.787 2.118zm-2.71-21.283a8.434 8.434 0 00-2.465-.347c-4.336 0-7.833 4.092-7.833 8.868 0 2.17 1.083 3.744 3.253 3.744 2.86 0 5.47-3.646 6.01-6.702l1.036-5.568z" fill="url(#e)"/><rect fill="url(#f)" height="12.742" opacity=".39" rx="4" width="87.255" x="47" y="108"/><rect fill="url(#g)" height="6.371" opacity=".39" rx="3.185" width="158.368" x="47" y="133"/><rect fill="url(#h)" height="6.371" opacity=".39" rx="3.185" width="158.368" x="47" y="151"/><rect fill="url(#h)" height="6.371" opacity=".39" rx="3.185" width="158.368" x="47" y="169"/><path d="M253 237.459v4.539a8.001 8.001 0 01-8 8l-236.994.005a8 8 0 01-8-8v-4.538l86.09-65.263 31.28-23.71a15.097 15.097 0 0118.236 0l31.28 23.71 86.097 65.257z" fill="url(#i)"/><path d="M86.102 172.207L.005 237.464 0 100.53z" fill="url(#j)"/><path d="M252.994 100.522L253 237.456l-86.097-65.257z" fill="url(#k)"/></svg>