<svg fill="none" height="60" width="60" xmlns="http://www.w3.org/2000/svg"><linearGradient id="a" x1=".439" x2=".576" y1="0" y2="1"><stop offset="0" stop-color="#2258f6"/><stop offset="0" stop-color="#1149ed"/><stop offset="1" stop-color="#5a83f9"/></linearGradient><path d="M32.421 14.105h8.474c2.674 0 4.842 2.121 4.842 4.737v8.29h1.21c3.343 0 6.053 2.65 6.053 5.92s-2.71 5.922-6.053 5.922h-1.21v8.29c0 2.615-2.168 4.736-4.842 4.736H32.42v-1.184c0-3.27-2.71-5.921-6.053-5.921s-6.052 2.65-6.052 5.92V52h-8.474C9.168 52 7 49.88 7 47.263v-8.29h1.21c3.343 0 6.053-2.65 6.053-5.92s-2.71-5.921-6.052-5.921H7v-8.29c0-2.616 2.168-4.737 4.842-4.737h8.474v-1.184c0-3.27 2.71-5.921 6.052-5.921s6.053 2.65 6.053 5.921z" fill="url(#a)" fill-rule="evenodd"/></svg>