<svg fill="none" height="32" width="32" xmlns="http://www.w3.org/2000/svg"><mask id="a"><path d="M0 0h32v32H0z" fill="#fff"/></mask><g fill="#2258f6" mask="url(#a)"><path d="M28.905 8.196l-12.003 9.006q-.097.073-.204.13-.108.055-.223.094-.115.038-.234.057-.12.02-.242.02-.12 0-.24-.02t-.235-.059q-.115-.039-.222-.095-.108-.057-.204-.13L2.812 7.913 4.62 5.519l12.286 9.287-.905 1.196-.9-1.2 12.002-9.006zm-1.961-2.26q.052-.053.109-.1.057-.046.118-.087.061-.041.126-.076.065-.035.133-.063.068-.028.139-.05.07-.021.143-.035.072-.015.145-.022.074-.007.147-.007.074 0 .147.007.074.007.146.022.072.014.143.035.07.022.138.05.068.028.133.063t.127.076q.06.04.118.087.057.047.109.1.052.051.099.108.046.057.087.118.041.062.076.127.035.065.063.133.028.068.05.138.021.07.035.143.015.072.022.146.007.073.007.147 0 .073-.007.147-.007.073-.022.145-.014.073-.035.143-.022.07-.05.139-.028.068-.063.133t-.076.126q-.04.061-.087.118-.047.057-.1.11-.051.052-.108.098-.057.047-.118.088-.062.04-.127.076-.065.034-.133.063-.068.028-.138.05-.07.02-.143.035-.072.014-.146.022-.073.007-.147.007-.073 0-.147-.007-.073-.008-.145-.022-.073-.014-.143-.036-.07-.021-.139-.05-.068-.028-.133-.062-.065-.035-.126-.076-.061-.041-.118-.088-.057-.047-.11-.099-.051-.052-.098-.109-.047-.057-.088-.118-.04-.061-.076-.126-.034-.065-.063-.133-.028-.068-.05-.139-.02-.07-.035-.143-.014-.072-.022-.145-.007-.074-.007-.147 0-.074.007-.147.008-.074.022-.146.014-.072.036-.143.021-.07.05-.138.028-.068.062-.133.035-.065.076-.127.041-.06.088-.118.046-.057.099-.109zm-24.289-.28q.053-.053.11-.1.056-.046.118-.087.061-.041.126-.076.065-.035.133-.063.068-.028.139-.05.07-.02.142-.035.073-.014.146-.022.073-.007.147-.007t.147.007q.073.008.146.022.072.014.142.036.071.021.14.05.067.027.132.062t.126.076q.062.04.119.088.057.046.109.098.052.053.099.11.046.056.087.118.041.061.076.126.035.065.063.133.028.068.05.139.02.07.035.142.015.073.022.146.007.073.007.147t-.007.147q-.007.073-.022.146-.014.072-.036.143-.02.07-.05.138-.027.068-.062.133t-.076.126q-.04.062-.087.119-.047.057-.1.109-.051.052-.108.099-.057.046-.119.087-.06.041-.126.076-.065.035-.133.063-.068.028-.138.05-.071.02-.143.035-.073.015-.146.022-.073.007-.147.007T3.57 8.21q-.073-.007-.146-.022-.072-.014-.142-.036-.07-.02-.139-.05-.068-.027-.133-.062t-.126-.076q-.062-.04-.118-.087-.057-.047-.11-.1-.052-.051-.098-.108-.047-.057-.088-.119-.041-.06-.076-.126-.035-.065-.063-.133-.028-.068-.05-.139-.02-.07-.035-.142-.014-.073-.022-.146-.007-.073-.007-.147t.007-.147q.008-.073.022-.146.014-.072.036-.142.021-.07.05-.139.027-.068.062-.133t.076-.126q.04-.062.088-.118.046-.057.098-.11z"/><path d="M28.905 19.196l-12.003 9.006q-.097.073-.204.13-.108.055-.223.094-.115.038-.234.057-.12.02-.242.02-.12 0-.24-.02t-.235-.059q-.115-.039-.222-.095-.108-.057-.204-.13L2.812 18.913l1.809-2.394 12.286 9.287-.905 1.196-.9-1.2 12.002-9.006zm-1.961-2.26q.052-.053.109-.1.057-.046.118-.087.061-.041.126-.076.065-.035.133-.063.068-.028.139-.05.07-.021.143-.035.072-.015.145-.022.074-.007.147-.007.074 0 .147.007.074.007.146.022.072.014.143.035.07.022.138.05.068.028.133.063t.127.076q.06.04.118.087.057.047.109.1.052.051.099.108.046.057.087.118.041.062.076.127.035.065.063.133.028.068.05.138.021.07.035.143.015.072.022.146.007.073.007.147 0 .073-.007.147-.007.073-.022.145-.014.073-.035.143-.022.07-.05.139-.028.068-.063.133t-.076.126q-.04.061-.087.118-.047.057-.1.11-.051.052-.108.098-.057.047-.118.088-.062.04-.127.076-.065.034-.133.063-.068.028-.138.05-.07.02-.143.035-.072.014-.146.022-.073.007-.147.007-.073 0-.147-.007-.073-.008-.145-.022-.073-.014-.143-.036-.07-.021-.139-.05-.068-.028-.133-.062-.065-.035-.126-.076-.061-.041-.118-.088-.057-.047-.11-.099-.051-.052-.098-.109-.047-.057-.088-.118-.04-.061-.076-.126-.034-.065-.063-.133-.028-.068-.05-.139-.02-.07-.035-.143-.014-.072-.022-.145-.007-.074-.007-.147 0-.074.007-.147.008-.074.022-.146.014-.072.036-.143.021-.07.05-.138.028-.068.062-.133.035-.065.076-.127.041-.06.088-.118.046-.057.099-.109zm-24.289-.28q.053-.053.11-.1.056-.046.118-.087.061-.041.126-.076.065-.035.133-.063.068-.028.139-.05.07-.02.142-.035.073-.014.146-.022.073-.007.147-.007t.147.007q.073.008.146.022.072.014.142.036.071.021.14.05.067.027.132.062t.126.076q.062.04.119.088.057.046.109.098.052.053.099.11.046.056.087.118.041.061.076.126.035.065.063.133.028.068.05.139.02.07.035.142.015.073.022.146.007.073.007.147t-.007.147q-.007.073-.022.146-.014.072-.036.143-.02.07-.05.138-.027.068-.062.133t-.076.126q-.04.062-.087.119-.047.057-.1.109-.051.052-.108.099-.057.046-.119.087-.06.041-.126.076-.065.035-.133.063-.068.028-.138.05-.071.02-.143.035-.073.015-.146.022-.073.007-.147.007t-.147-.007q-.073-.007-.146-.022-.072-.014-.142-.036-.07-.02-.139-.05-.068-.027-.133-.062t-.126-.076q-.062-.04-.118-.087-.057-.047-.11-.1-.052-.051-.098-.108-.047-.057-.088-.119-.041-.06-.076-.126-.035-.065-.063-.133-.028-.068-.05-.139-.02-.07-.035-.142-.014-.073-.022-.146-.007-.073-.007-.147t.007-.147q.008-.073.022-.146.014-.072.036-.142.021-.07.05-.139.027-.068.062-.133t.076-.126q.04-.062.088-.118.046-.057.098-.11z"/></g></svg>