<svg fill="none" height="16" width="16" xmlns="http://www.w3.org/2000/svg"><circle cx="8" cy="8" stroke="#2258f6" stroke-width="1.5" r="7.25"/><path d="M11.224 6.277l-3.889 4.334q-.049.055-.108.1-.06.043-.126.075t-.138.05q-.072.019-.145.023-.074.004-.147-.007-.073-.01-.143-.035-.07-.024-.133-.062-.064-.038-.119-.087-.048-.043-.087-.093L4.522 8.464l1.177-.93 1.667 2.111-.589.465-.558-.501 3.889-4.333zm.192-.5q0 .073-.014.146-.015.072-.043.14-.028.069-.07.13-.04.062-.093.114-.052.052-.113.093-.062.041-.13.07-.068.028-.14.042-.073.015-.147.015t-.146-.015q-.073-.014-.14-.043-.07-.028-.13-.069-.062-.04-.114-.093-.052-.052-.094-.114-.04-.061-.069-.13-.028-.068-.042-.14-.015-.073-.015-.146 0-.074.015-.147.014-.072.042-.14.028-.069.07-.13.04-.062.093-.114.052-.052.113-.093.062-.041.13-.07.068-.028.14-.042.073-.014.147-.014t.146.014q.073.014.141.043.068.028.13.069.061.041.113.093.053.052.094.114.04.061.069.13.028.068.043.14.014.073.014.147zM5.861 7.999q0 .074-.015.146-.014.073-.043.14-.028.069-.069.13-.04.062-.093.114-.052.052-.114.093-.061.041-.13.07-.068.028-.14.042-.073.015-.146.015-.074 0-.147-.015-.072-.014-.14-.042-.069-.029-.13-.07-.062-.04-.114-.093-.052-.052-.093-.114-.041-.061-.07-.13-.028-.067-.042-.14-.014-.072-.014-.146t.014-.147q.014-.072.043-.14.028-.068.069-.13.041-.061.093-.114.052-.052.114-.093.061-.04.13-.07.068-.027.14-.042.073-.014.147-.014.073 0 .146.014.072.015.14.043.069.028.13.07.062.04.114.092.052.053.093.114.041.062.07.13.028.068.042.14.015.073.015.147z" fill="#2258f6"/></svg>