<svg fill="none" height="16" width="16" xmlns="http://www.w3.org/2000/svg"><path d="M12.731 5.682l-5.6 6q-.067.072-.147.13-.08.057-.17.098-.09.041-.185.063-.096.023-.195.026-.098.004-.195-.012t-.19-.05q-.092-.035-.176-.087-.083-.052-.155-.119-.049-.045-.09-.096l-2.4-2.924 1.545-1.269 2.4 2.923L6.4 11l-.731-.682 5.6-6zM13 5q0 .098-.02.195-.018.097-.056.188-.038.09-.093.173-.054.081-.124.151-.07.07-.151.124-.082.055-.173.093-.091.038-.188.057Q12.098 6 12 6t-.195-.02q-.097-.018-.188-.056-.09-.038-.173-.093-.081-.054-.151-.124-.07-.07-.124-.151-.055-.082-.093-.173-.038-.091-.057-.188Q11 5.098 11 5t.02-.195q.018-.097.056-.188.038-.09.093-.173.054-.081.124-.151.07-.07.151-.124.082-.055.173-.093.091-.038.188-.057Q11.902 4 12 4t.195.02q.097.018.188.056.09.038.173.093.081.054.151.124.07.07.124.151.055.082.093.173.038.091.057.188Q13 4.902 13 5zM5 8.077q0 .098-.02.195-.018.097-.056.188-.038.09-.093.172-.054.082-.124.152-.07.07-.151.124-.082.055-.173.093-.091.037-.188.057-.097.019-.195.019t-.195-.02q-.097-.019-.188-.056-.09-.038-.173-.093-.081-.054-.151-.124-.07-.07-.124-.152-.055-.081-.093-.172-.038-.091-.057-.188Q3 8.175 3 8.077q0-.099.02-.195.018-.097.056-.188.038-.09.093-.173.054-.082.124-.151.07-.07.151-.125.082-.054.173-.092.091-.038.188-.057.097-.02.195-.02t.195.02q.097.02.188.057.09.038.173.092.081.055.151.125.07.07.124.151.055.082.093.173.038.091.057.188.019.096.019.195z" fill="#2258f6"/></svg>