<svg fill="none" height="60" width="60" xmlns="http://www.w3.org/2000/svg"><linearGradient id="a" x1=".439" x2=".576" y1="0" y2="1"><stop offset="0" stop-color="#2258f6"/><stop offset="0" stop-color="#1149ed"/><stop offset="1" stop-color="#5a83f9"/></linearGradient><g fill-rule="evenodd"><path d="M11.12 25.436q.048-.42.116-.836.068-.417.155-.83.088-.413.194-.822.106-.41.231-.813.126-.404.27-.801.144-.398.306-.789.162-.39.342-.774.18-.383.378-.758t.413-.74q.216-.366.447-.722.232-.356.48-.7.249-.345.513-.679.264-.333.543-.655.28-.321.573-.63.294-.308.602-.603.308-.296.63-.577.32-.28.655-.547.334-.267.68-.518.346-.251.703-.487.358-.236.726-.455.368-.22.746-.422.377-.203.764-.389.387-.185.782-.354.395-.168.798-.318.402-.15.812-.283.409-.132.824-.246.414-.114.834-.21.42-.095.843-.171.424-.077.851-.134.427-.058.856-.096.429-.039.86-.058.43-.019.86-.019.431 0 .861.02.43.018.859.057.428.038.855.095.426.058.85.134.423.077.842.172.42.095.834.209.415.113.823.245.41.132.811.283.403.15.797.318.395.168.782.353.387.185.764.388.378.202.746.421.367.22.725.455.357.235.703.486.346.25.68.517.334.266.655.546t.629.576q.308.294.602.602t.573.63q.279.32.543.653t.512.678q.248.344.48.7.233.354.448.72.215.364.413.739.198.374.379.757.18.383.343.773.162.39.307.788.144.397.27.8.125.403.232.812.106.408.194.82.088.414.156.83t.117.835q.29.035.577.083.287.047.572.108t.566.135q.282.073.56.16.278.086.552.185t.543.21q.27.11.533.234.264.123.522.259.258.135.51.281.25.147.496.305.244.158.482.327.237.168.466.348.23.18.45.369.221.19.434.389.212.2.415.408.203.209.396.427t.376.444q.183.226.356.46.173.235.335.477.162.242.312.491.151.25.29.505.14.256.267.518.128.261.243.529.116.267.22.54.103.271.194.548.09.277.169.557.078.28.143.564.066.284.118.57.053.287.092.575.04.289.066.579.027.29.04.58.013.292.013.583 0 .315-.015.63-.016.315-.047.628-.03.314-.077.626-.046.312-.108.62-.061.31-.138.616-.076.305-.168.607-.091.302-.198.598-.106.297-.226.588-.121.292-.256.576-.134.285-.283.563-.149.278-.31.549-.163.27-.338.532-.175.262-.363.515-.187.254-.387.497-.2.244-.412.477-.212.234-.435.457t-.456.434q-.234.212-.477.412-.244.2-.497.388-.253.187-.515.363-.262.175-.533.337-.27.162-.548.31-.278.149-.563.284-.285.134-.576.255-.291.12-.588.227-.297.106-.598.198-.302.091-.608.168-.306.076-.615.138-.309.061-.62.107-.312.047-.626.078-.314.03-.628.046-.315.015-.63.015H12.838q-.315 0-.63-.015-.314-.016-.628-.046-.314-.031-.625-.078-.312-.046-.621-.107-.31-.062-.615-.138-.306-.077-.608-.168-.301-.092-.598-.198-.297-.106-.588-.227-.291-.12-.576-.255t-.563-.284q-.278-.148-.548-.31t-.533-.337q-.262-.176-.515-.363-.253-.188-.497-.388-.243-.2-.477-.412-.234-.211-.456-.434-.223-.223-.435-.457-.212-.233-.412-.477-.2-.243-.387-.497-.188-.253-.363-.515t-.337-.532q-.162-.27-.31-.549-.15-.278-.284-.563-.135-.284-.256-.576-.12-.29-.226-.588-.107-.296-.198-.598-.092-.302-.168-.607-.077-.306-.138-.615-.062-.31-.108-.621-.046-.312-.077-.626-.031-.313-.047-.628Q0 38.475 0 38.16q0-.288.013-.576t.039-.575q.026-.287.064-.573.039-.286.09-.57.052-.283.116-.564.064-.28.14-.559.078-.277.167-.552.089-.274.19-.544t.215-.534q.113-.265.238-.525.125-.26.262-.514.136-.253.284-.5.148-.248.307-.489.159-.24.328-.473.17-.234.35-.459.18-.225.369-.442.19-.217.389-.426.199-.208.407-.407.209-.2.426-.389.217-.19.442-.369.226-.18.459-.35.233-.168.474-.327.24-.159.488-.307.247-.147.5-.284.255-.136.514-.261.26-.125.525-.239.265-.113.535-.214.27-.101.544-.19.274-.09.552-.166.278-.077.56-.14.28-.065.564-.116.283-.051.569-.09z" fill="url(#a)"/><path d="M25.477 28.563h-3.015q-.074 0-.147-.007t-.146-.022q-.072-.014-.143-.035-.07-.022-.138-.05-.068-.028-.133-.063t-.126-.076q-.062-.04-.119-.087-.057-.047-.109-.1-.052-.051-.099-.108-.046-.057-.087-.118-.041-.062-.076-.127-.035-.065-.063-.133-.028-.068-.05-.138-.02-.07-.035-.143-.015-.072-.022-.146-.007-.073-.007-.147v-3.077q0-.073.007-.147.007-.073.022-.145.014-.073.036-.143.02-.07.05-.139.027-.068.062-.133t.076-.126q.04-.061.087-.118.047-.057.1-.11.051-.051.108-.098.057-.047.119-.088.06-.04.126-.076.065-.034.133-.062.068-.029.138-.05.071-.021.143-.036.073-.014.146-.021.073-.008.147-.008.12 0 .238.02.118.018.231.056.114.037.22.092.107.055.203.126.096.071.18.157.083.085.153.183.069.098.121.205.053.108.088.222.627-.379 1.31-.673Q27.23 22 29.444 22q2.215 0 4.24.874 1.95.842 3.452 2.375 1.499 1.53 2.32 3.512.417 1.005.631 2.073.027.135.03.273v.022q0 .13-.022.256-.022.127-.066.249-.043.121-.107.234-.063.112-.145.212-.082.1-.18.184-.097.084-.208.15-.11.067-.23.114-.12.046-.247.072-.135.027-.273.029h-.022q-.13 0-.256-.022-.128-.022-.25-.065-.12-.044-.233-.107-.112-.064-.212-.146-.1-.081-.184-.179-.085-.098-.151-.208-.067-.11-.113-.231-.047-.12-.072-.247-.157-.78-.46-1.514-.6-1.447-1.693-2.562Q32.693 25 29.444 25q-1.796 0-3.303.718.094.047.18.105.086.06.164.13.077.07.144.15.067.08.122.169.055.088.097.184.043.095.071.196.029.1.043.203.015.104.015.208 0 .074-.007.147-.007.074-.022.146-.014.072-.036.143-.021.07-.05.138-.027.068-.062.133t-.076.127q-.04.06-.088.118-.046.057-.098.109-.052.052-.11.099-.056.047-.118.087-.061.041-.126.076-.065.035-.133.063-.068.028-.139.05-.07.021-.142.035-.073.015-.146.022-.073.007-.147.007zm8.605 8.713h3.015q.074 0 .147.007t.146.021q.072.015.143.036.07.021.138.05.068.028.133.063.065.034.126.075.062.041.119.088.057.047.109.099.052.052.099.109.046.057.087.118.041.061.076.126.035.065.063.133.028.068.05.139.021.07.035.143.015.072.022.145.007.074.007.147v3.077q0 .074-.007.147-.007.074-.022.146-.014.072-.035.143-.022.07-.05.138-.028.068-.063.133t-.076.127q-.04.061-.087.118-.047.057-.1.11-.051.051-.108.098-.057.047-.119.088-.06.04-.126.075-.065.035-.133.063-.068.028-.138.05-.07.021-.143.036-.073.014-.146.021-.073.007-.147.007-.129 0-.256-.022t-.249-.065q-.12-.043-.233-.107-.113-.063-.212-.145-.1-.082-.184-.18-.085-.097-.151-.208-.067-.11-.113-.23-.047-.12-.072-.247-.909.641-1.944 1.088-2.024.873-4.239.873-3.624 0-6.516-2.209-2.825-2.158-3.863-5.577Q19 36.11 19 35.889v-.002q0-.376.177-.707.07-.13.163-.244.094-.115.208-.208.114-.094.244-.164t.272-.112q.201-.062.412-.065h.024q.12 0 .238.019.119.019.232.057.114.037.22.092.107.056.203.127.097.071.18.157.084.086.153.184.07.098.122.206.052.107.087.222.758 2.494 2.815 4.066 2.085 1.592 4.694 1.592 2.154 0 3.892-1.032-.086-.05-.164-.11-.078-.06-.148-.129-.07-.07-.13-.147-.06-.078-.11-.164-.05-.085-.087-.176-.038-.091-.064-.186-.025-.096-.038-.193-.013-.098-.013-.197 0-.073.007-.147.008-.073.022-.145.014-.072.036-.143.021-.07.05-.139.027-.068.062-.133t.076-.126q.04-.061.088-.118.046-.057.098-.11.053-.051.11-.098.056-.047.118-.088.061-.04.126-.075.065-.035.133-.063.068-.029.139-.05.07-.021.142-.036.073-.014.146-.021.073-.008.147-.008z" fill="#fff"/></g></svg>