<svg fill="none" height="322" width="500" xmlns="http://www.w3.org/2000/svg"><filter id="a" color-interpolation-filters="sRGB" height="204" width="204" x="-48" y="-44"><feFlood flood-opacity="0" result="BackgroundImageFix"/><feColorMatrix in="SourceAlpha" values="0 0 0 0 0 0 0 0 0 0 0 0 0 0 0 0 0 0 127 0"/><feOffset dy="4"/><feGaussianBlur stdDeviation="12"/><feColorMatrix values="0 0 0 0 0.0784313753247261 0 0 0 0 0.2980392277240753 0 0 0 0 0.929411768913269 0 0 0 0.20000000298023224 0"/><feBlend in2="BackgroundImageFix" result="effect1_dropShadow"/><feBlend in="SourceGraphic" in2="effect1_dropShadow" result="shape"/></filter><linearGradient id="b" x1=".439" x2=".576" y1="0" y2="1"><stop offset="0" stop-color="#1149ed"/><stop offset="1" stop-color="#5a83f9"/></linearGradient><filter id="c" color-interpolation-filters="sRGB" height="131.19" width="131.161" x="-40" y="-30"><feFlood flood-opacity="0" result="BackgroundImageFix"/><feColorMatrix in="SourceAlpha" values="0 0 0 0 0 0 0 0 0 0 0 0 0 0 0 0 0 0 127 0"/><feOffset dy="10"/><feGaussianBlur stdDeviation="10"/><feColorMatrix values="0 0 0 0 0 0 0 0 0 0 0 0 0 0 0 0 0 0 0.05000000074505806 0"/><feBlend in2="BackgroundImageFix" result="effect1_dropShadow"/><feBlend in="SourceGraphic" in2="effect1_dropShadow" result="shape"/></filter><filter id="d" color-interpolation-filters="sRGB" height="204" width="204" x="-48" y="-44"><feFlood flood-opacity="0" result="BackgroundImageFix"/><feColorMatrix in="SourceAlpha" values="0 0 0 0 0 0 0 0 0 0 0 0 0 0 0 0 0 0 127 0"/><feOffset dy="4"/><feGaussianBlur stdDeviation="12"/><feColorMatrix values="0 0 0 0 0.0784313753247261 0 0 0 0 0.2980392277240753 0 0 0 0 0.929411768913269 0 0 0 0.20000000298023224 0"/><feBlend in2="BackgroundImageFix" result="effect1_dropShadow"/><feBlend in="SourceGraphic" in2="effect1_dropShadow" result="shape"/></filter><filter id="e" color-interpolation-filters="sRGB" height="153.714" width="153.672" x="-40" y="-30"><feFlood flood-opacity="0" result="BackgroundImageFix"/><feColorMatrix in="SourceAlpha" values="0 0 0 0 0 0 0 0 0 0 0 0 0 0 0 0 0 0 127 0"/><feOffset dy="10"/><feGaussianBlur stdDeviation="10"/><feColorMatrix values="0 0 0 0 0 0 0 0 0 0 0 0 0 0 0 0 0 0 0.05000000074505806 0"/><feBlend in2="BackgroundImageFix" result="effect1_dropShadow"/><feBlend in="SourceGraphic" in2="effect1_dropShadow" result="shape"/></filter><filter id="f" color-interpolation-filters="sRGB" height="204" width="204" x="-48" y="-44"><feFlood flood-opacity="0" result="BackgroundImageFix"/><feColorMatrix in="SourceAlpha" values="0 0 0 0 0 0 0 0 0 0 0 0 0 0 0 0 0 0 127 0"/><feOffset dy="4"/><feGaussianBlur stdDeviation="12"/><feColorMatrix values="0 0 0 0 0.0784313753247261 0 0 0 0 0.2980392277240753 0 0 0 0 0.929411768913269 0 0 0 0.20000000298023224 0"/><feBlend in2="BackgroundImageFix" result="effect1_dropShadow"/><feBlend in="SourceGraphic" in2="effect1_dropShadow" result="shape"/></filter><filter id="g" color-interpolation-filters="sRGB" height="115.833" width="115.813" x="-40" y="-30"><feFlood flood-opacity="0" result="BackgroundImageFix"/><feColorMatrix in="SourceAlpha" values="0 0 0 0 0 0 0 0 0 0 0 0 0 0 0 0 0 0 127 0"/><feOffset dy="10"/><feGaussianBlur stdDeviation="10"/><feColorMatrix values="0 0 0 0 0 0 0 0 0 0 0 0 0 0 0 0 0 0 0.05000000074505806 0"/><feBlend in2="BackgroundImageFix" result="effect1_dropShadow"/><feBlend in="SourceGraphic" in2="effect1_dropShadow" result="shape"/></filter><filter id="h" color-interpolation-filters="sRGB" height="204" width="204" x="-48" y="-44"><feFlood flood-opacity="0" result="BackgroundImageFix"/><feColorMatrix in="SourceAlpha" values="0 0 0 0 0 0 0 0 0 0 0 0 0 0 0 0 0 0 127 0"/><feOffset dy="4"/><feGaussianBlur stdDeviation="12"/><feColorMatrix values="0 0 0 0 0.0784313753247261 0 0 0 0 0.2980392277240753 0 0 0 0 0.929411768913269 0 0 0 0.20000000298023224 0"/><feBlend in2="BackgroundImageFix" result="effect1_dropShadow"/><feBlend in="SourceGraphic" in2="effect1_dropShadow" result="shape"/></filter><filter id="i" color-interpolation-filters="sRGB" height="153.714" width="153.672" x="-40" y="-30"><feFlood flood-opacity="0" result="BackgroundImageFix"/><feColorMatrix in="SourceAlpha" values="0 0 0 0 0 0 0 0 0 0 0 0 0 0 0 0 0 0 127 0"/><feOffset dy="10"/><feGaussianBlur stdDeviation="10"/><feColorMatrix values="0 0 0 0 0 0 0 0 0 0 0 0 0 0 0 0 0 0 0.05000000074505806 0"/><feBlend in2="BackgroundImageFix" result="effect1_dropShadow"/><feBlend in="SourceGraphic" in2="effect1_dropShadow" result="shape"/></filter><g filter="url(#a)"><rect fill="url(#b)" height="108" rx="24" width="108" x="138" y="49"/></g><g filter="url(#c)"><rect fill="#fff" height="51.19" rx="12" width="51.161" x="118" y="33"/><rect height="50.19" rx="11.5" stroke="#e6e8e9" width="50.161" x="118.5" y="33.5"/></g><path d="M139.488 53.667l7.977 4.71 4.754-1.973a7.79 7.79 0 013.581-.602c-1.63-6.263-8.099-10.038-14.451-8.433a11.87 11.87 0 00-6.972 4.905l.121-.003a9.553 9.553 0 014.99 1.396z" fill="#0364b8"/><path d="M139.49 53.666a9.554 9.554 0 00-4.991-1.395l-.121.004c-5.244.065-9.443 4.308-9.377 9.477a9.271 9.271 0 001.706 5.237l7.032-2.918 3.128-1.298 6.962-2.89 3.636-1.506z" fill="#0078d4"/><path d="M155.8 55.802q-.26-.018-.521-.019a7.787 7.787 0 00-3.06.623l-4.754 1.972 1.379.813 4.518 2.667 1.972 1.164 6.74 3.98c2.022-3.699.619-8.314-3.134-10.307a7.802 7.802 0 00-3.14-.893z" fill="#1490df"/><path d="M155.333 63.021l-1.972-1.163-4.517-2.67-1.378-.811-3.637 1.508-6.962 2.888-3.13 1.297-7.034 2.918A9.53 9.53 0 00134.498 71h20.78c2.84 0 5.45-1.535 6.797-3.999z" fill="#28a8ea"/><g filter="url(#d)"><rect fill="url(#b)" height="108" rx="24" width="108" x="138" y="165"/></g><g filter="url(#e)"><rect fill="#fff" height="73.714" rx="16" width="73.672" x="80" y="219"/><rect height="72.714" rx="15.5" stroke="#e6e8e9" width="72.672" x="80.5" y="219.5"/></g><path d="M124.087 261.426H109.81l-6.114 10.678c.735.374 1.57.613 2.11.613 5.617 0 17.08-.083 22.77-.083.584 0 1.132-.2 1.623-.512z" fill="#4185f3"/><path d="M103.697 272.104l6.114-10.678H97.422c-.006.742.258 1.42.672 2.195 1.152 2.154 3.1 5.6 4.246 7.398.282.444 1.402 1.107 1.358 1.085z" fill="#1767d1"/><path d="M124.088 261.425l6.115 10.695c.792-.504 1.438-1.302 1.857-2.036a585.845 585.845 0 013.651-6.283c.514-.868.713-1.648.7-2.377z" fill="#e94235"/><path d="M109.812 261.425l7.131-12.396-6.373-10.625c-.69.454-1.28 1.069-1.547 1.537-2.782 4.88-8.386 14.878-11.204 19.82a3.055 3.055 0 00-.399 1.664z" fill="#30a753"/><path d="M124.088 261.427l-7.144-12.396 6.198-10.613c.69.454 1.446 1.056 1.714 1.526 2.782 4.878 8.386 14.876 11.206 19.818.29.508.378 1.083.35 1.665z" fill="#f9bc00"/><path d="M110.569 238.407l6.374 10.623 6.199-10.613c-.64-.374-1.546-.595-2.424-.623-2.442-.08-6.4-.114-8.53-.021-.526.023-1.612.63-1.62.634z" fill="#0f8038"/><g filter="url(#f)"><rect fill="url(#b)" height="108" rx="24" width="108" x="254" y="49"/></g><g filter="url(#g)"><rect fill="#fff" height="35.833" rx="8" width="35.813" x="354" y="59"/><rect height="34.833" rx="7.5" stroke="#e6e8e9" width="34.813" x="354.5" y="59.5"/></g><path d="M360.834 76.334c0-6.106 4.956-11.044 11.04-11 6.053 0 10.96 4.925 10.96 11s-4.907 11-10.96 11c-6.094.067-11.064-4.884-11.04-11zm14.498-.592l.075 4.286c0 .444.072.516.514.516h1.032c.514 0 .59-.072.59-.592v-7.017c0-.887 0-.887-.956-.887a1.8 1.8 0 00-1.18.447c-1.103 1.184-2.267 2.276-3.401 3.414-.22.224-.378.224-.514 0-1.032-1.035-2.135-2.067-3.092-3.103a2.01 2.01 0 00-1.84-.74.379.379 0 00-.427.43V80.1c-.05.263.18.494.442.444h1.104c.442 0 .514-.084.514-.516v-3.99c0-.072-.072-.22.075-.296l2.797 2.822c.59.592.809.592 1.398 0a34.15 34.15 0 002.869-2.807z" fill="#d90007"/><g filter="url(#h)"><rect fill="url(#b)" height="108" rx="24" width="108" x="254" y="165"/></g><g filter="url(#i)"><rect fill="#fff" height="73.714" rx="16" width="73.672" x="345" y="186"/><rect height="72.714" rx="15.5" stroke="#e6e8e9" width="72.672" x="345.5" y="186.5"/></g><path d="M370 202l-12 7.913 12 7.794 12-7.794zm24 0l-12 7.91 12 7.795 12-7.794zm-36 23.62l12 7.91 12-7.91-12-7.913zm36-7.913l-12 7.91 12 7.911 12-7.91zm-24 18.382L382 244l12-7.91-12-7.795z" fill="#0061fe"/></svg>