<svg fill="none" height="60" width="60" xmlns="http://www.w3.org/2000/svg"><linearGradient id="a" x1=".439" x2=".576" y1="0" y2="1"><stop offset="0" stop-color="#2258f6"/><stop offset="0" stop-color="#1149ed"/><stop offset="1" stop-color="#5a83f9"/></linearGradient><path d="M17 27.414A3.586 3.586 0 0020.586 31h20.828a3.586 3.586 0 000-7.172H20.586A3.586 3.586 0 0017 27.414zm22.58-13.897q0 .21-.01.418-.01.209-.03.417-.021.208-.052.415-.031.207-.072.412-.041.205-.092.408-.052.203-.113.403-.06.2-.132.397-.07.196-.151.39-.081.193-.171.382-.09.189-.19.373-.099.185-.207.364-.108.18-.225.353-.117.174-.243.342-.125.168-.259.33-.134.161-.275.316-.141.155-.29.303-.15.148-.305.288-.157.14-.32.273-.162.133-.331.257-.17.125-.345.241-.175.116-.356.224-.18.107-.366.206-.186.098-.376.188t-.385.17q-.195.08-.393.15-.198.07-.4.13-.202.061-.406.112-.204.051-.41.092-.207.04-.416.071-.208.031-.418.052-.21.02-.42.03-.21.01-.42.01-.212 0-.422-.01t-.42-.03q-.21-.021-.418-.052-.208-.03-.415-.071-.206-.041-.41-.092-.205-.05-.407-.111-.201-.061-.4-.131-.198-.07-.393-.15-.194-.08-.385-.17-.19-.09-.376-.188-.186-.099-.366-.206-.18-.108-.356-.224-.175-.116-.344-.24-.17-.125-.332-.258-.163-.132-.32-.273-.155-.14-.304-.288-.15-.148-.29-.303-.142-.155-.276-.316-.133-.162-.259-.33-.125-.168-.242-.342-.117-.174-.226-.353-.108-.18-.207-.364-.1-.184-.19-.373-.09-.19-.17-.382-.081-.194-.152-.39-.07-.197-.132-.397-.061-.2-.112-.403-.052-.203-.093-.408-.04-.205-.072-.412-.03-.207-.051-.415-.02-.208-.031-.417-.01-.209-.01-.418t.01-.418q.01-.209.03-.417.021-.208.052-.415.031-.206.072-.411.041-.205.093-.408.05-.203.112-.403.061-.2.132-.397.071-.197.152-.39.08-.193.17-.382.09-.19.19-.374.099-.184.207-.364.109-.179.226-.353t.242-.341q.126-.168.26-.33.133-.162.274-.317.142-.155.29-.302.15-.148.306-.289.156-.14.319-.273.162-.132.332-.257.169-.124.344-.24.175-.117.356-.224.18-.108.366-.206.186-.099.376-.188.19-.09.385-.17.195-.08.393-.15.199-.07.4-.131.202-.06.406-.112.205-.05.411-.091.207-.041.415-.072.208-.03.418-.051.21-.02.42-.03Q30.789 5 31 5q.21 0 .421.01.21.01.42.031.21.02.418.051.209.03.415.072.207.04.411.091t.406.112q.202.06.4.13.198.071.393.151.194.08.385.17.19.09.376.188t.366.206q.181.107.356.223.175.117.345.241.169.125.332.257.162.133.319.273.156.14.305.289.149.147.29.302t.275.317q.134.162.26.33.125.167.242.341.117.174.225.353.108.18.208.364.099.185.189.374t.17.382q.081.193.152.39t.132.397q.061.2.113.403.05.203.092.408.04.205.072.411.03.207.051.415.021.208.031.417.01.21.01.418zM5 52.38A2.62 2.62 0 007.62 55h15.76a2.62 2.62 0 100-5.241H7.62A2.62 2.62 0 005 52.379zm16.935-10.156q0 .153-.007.306-.008.152-.024.304-.015.152-.038.303-.023.152-.054.301-.031.15-.07.298-.038.149-.084.295-.046.146-.099.29-.053.144-.113.285-.06.141-.128.28-.068.137-.142.272-.075.135-.156.266t-.17.258q-.087.127-.181.25t-.194.24q-.1.119-.207.232-.106.113-.217.221-.112.108-.23.21-.116.103-.238.2-.123.097-.25.188-.126.091-.258.176-.131.085-.267.164-.135.078-.274.15-.14.072-.282.138-.143.065-.29.123-.145.059-.294.11-.149.052-.3.096-.151.045-.304.082-.154.037-.309.067-.154.03-.31.052-.157.022-.314.037t-.315.023q-.158.007-.316.007t-.316-.007q-.158-.008-.315-.023t-.313-.037q-.157-.023-.312-.052-.155-.03-.308-.067-.153-.037-.304-.082-.151-.044-.3-.096-.149-.051-.295-.11-.146-.058-.289-.123-.142-.066-.282-.138-.14-.072-.275-.15-.135-.079-.266-.164-.132-.085-.259-.176-.127-.09-.249-.188-.122-.097-.239-.2-.117-.102-.229-.21-.111-.108-.217-.221-.107-.113-.207-.231-.1-.118-.194-.241t-.182-.25q-.088-.127-.169-.258-.081-.131-.156-.266-.074-.135-.142-.273-.067-.138-.128-.279-.06-.141-.113-.285-.054-.144-.1-.29-.045-.146-.084-.295-.038-.148-.069-.298-.03-.15-.054-.3-.023-.152-.039-.304-.015-.152-.023-.304-.008-.153-.008-.306t.008-.305q.008-.153.023-.305.016-.152.04-.303.022-.151.053-.301.03-.15.07-.298.038-.148.084-.295.045-.146.099-.29.053-.144.113-.285.06-.14.128-.279.068-.138.142-.273.075-.135.156-.266.081-.13.169-.258.088-.127.182-.25.094-.122.194-.24.1-.119.207-.232.106-.113.217-.221.112-.108.23-.21.116-.103.238-.2.122-.097.25-.188.126-.091.258-.176.13-.085.266-.163.136-.079.275-.151.14-.072.282-.137.143-.066.29-.124.145-.059.294-.11.149-.052.3-.096.151-.044.304-.081.153-.038.308-.067.155-.03.312-.053.156-.022.313-.037t.315-.023Q15.342 36 15.5 36t.316.007q.158.008.315.023t.313.037q.157.023.311.053.155.03.309.067.153.037.304.081.151.044.3.096.149.051.295.11.146.058.289.124.142.065.282.137.139.072.274.15.136.08.267.164.132.085.259.176.126.09.249.188.122.097.239.2.117.102.229.21.111.108.217.221t.207.232q.1.118.194.24.094.123.182.25t.169.258q.081.131.156.266.074.135.142.273.067.138.128.28.06.14.113.284.053.144.1.29.045.147.084.295.038.148.069.298.03.15.054.3.023.152.038.304.016.152.024.305.007.152.007.305zM35 52.38A2.62 2.62 0 0037.62 55h15.76a2.62 2.62 0 100-5.241H37.62a2.62 2.62 0 00-2.62 2.62zm16.935-10.156q0 .153-.007.306-.008.152-.024.304-.015.152-.038.303-.023.152-.054.301-.031.15-.07.298-.038.149-.084.295-.046.146-.099.29-.053.144-.114.285-.06.141-.128.28-.067.137-.142.272-.074.135-.155.266t-.17.258q-.087.127-.181.25t-.194.24q-.1.119-.207.232-.106.113-.218.221-.111.108-.228.21-.117.103-.24.2-.122.097-.249.188-.126.091-.258.176-.131.085-.267.164-.135.078-.274.15-.14.072-.283.138-.142.065-.288.123-.146.059-.295.11-.149.052-.3.096-.151.045-.304.082-.154.037-.309.067-.155.03-.31.052-.157.022-.314.037-.158.015-.315.023-.158.007-.316.007t-.316-.007q-.158-.008-.315-.023t-.313-.037q-.157-.023-.312-.052-.155-.03-.308-.067-.153-.037-.304-.082-.151-.044-.3-.096-.149-.051-.295-.11-.146-.058-.289-.123-.142-.066-.282-.138-.14-.072-.275-.15-.135-.079-.266-.164-.132-.085-.259-.176-.127-.09-.249-.188-.122-.097-.239-.2-.117-.102-.229-.21-.111-.108-.217-.221-.107-.113-.207-.231-.1-.118-.194-.241t-.182-.25q-.088-.127-.169-.258-.081-.131-.156-.266-.074-.135-.142-.273-.067-.138-.128-.279-.06-.141-.113-.285-.054-.144-.1-.29-.045-.146-.084-.295-.038-.148-.069-.298-.03-.15-.054-.3-.023-.152-.039-.304-.015-.152-.023-.304-.008-.153-.008-.306t.008-.305q.008-.153.023-.305.016-.152.04-.303.022-.151.053-.301.03-.15.07-.298.038-.148.084-.295.045-.146.099-.29.053-.144.113-.285.06-.14.128-.279.068-.138.142-.273.075-.135.156-.266.081-.13.169-.258.088-.127.182-.25.094-.122.194-.24.1-.119.207-.232.106-.113.217-.221.112-.108.23-.21.116-.103.238-.2.122-.097.25-.188.126-.091.258-.176.13-.085.266-.163.136-.079.275-.151.14-.072.282-.137.143-.066.29-.124.145-.059.294-.11.149-.052.3-.096.151-.044.304-.081.153-.038.308-.067.155-.03.312-.053.156-.022.313-.037t.315-.023Q45.342 36 45.5 36t.316.007q.157.008.315.023.157.015.313.037.156.023.311.053t.309.067q.153.037.304.081.151.044.3.096.149.051.295.11.146.058.288.124.143.065.283.137.139.072.274.15.136.08.267.164.132.085.258.176.127.09.25.188.122.097.239.2.117.102.228.21.112.108.218.221t.207.232q.1.118.194.24.094.123.182.25t.169.258q.081.131.155.266.075.135.142.273.068.138.128.28.061.14.114.284.053.144.1.29.045.147.084.295.038.148.069.298.03.15.054.3.023.152.038.304.016.152.024.305.007.152.007.305z" fill="url(#a)"/></svg>