<svg xmlns="http://www.w3.org/2000/svg" fill="none" width="80" height="80"><defs><linearGradient x1="1" y1="1" x2=".196" y2="0" id="a"><stop offset="46.878%" stop-color="#39BBF2"/><stop offset="100%" stop-color="#39BBF2" stop-opacity="0"/></linearGradient><linearGradient x1=".171" y1="-.04" x2="1" y2="1.111" id="b"><stop offset="31.61%" stop-color="#FFF"/><stop offset="100%" stop-color="#FFF" stop-opacity="0"/></linearGradient><linearGradient x1=".171" y1="-.04" x2="1" y2="1.111" id="c"><stop offset="31.61%" stop-color="#FFF"/><stop offset="100%" stop-color="#FFF" stop-opacity="0"/></linearGradient></defs><path d="M14.106 31.613q-1.982.552-3.827 1.53-3.186 1.69-5.55 4.424-2.365 2.735-3.587 6.144Q0 46.898 0 50.285q0 3.696 1.352 7.132 1.468 3.731 4.288 6.569 2.82 2.837 6.529 4.315 3.415 1.36 7.088 1.36h41.486q3.673 0 7.088-1.36 3.709-1.478 6.529-4.315 2.82-2.838 4.288-6.569Q80 53.981 80 50.285q0-3.363-1.126-6.528-1.203-3.384-3.533-6.109-2.33-2.724-5.475-4.427-1.826-.988-3.79-1.556-.632-3.441-2.16-6.634-2.218-4.635-6.006-8.102-3.786-3.465-8.59-5.26Q44.853 10 40.086 10q-4.764 0-9.228 1.667-4.8 1.792-8.585 5.252-3.787 3.462-6.007 8.091-1.524 3.178-2.16 6.603zm5.984 5.684l.238-2.617q.324-3.563 1.871-6.789 1.664-3.47 4.504-6.066 2.841-2.597 6.447-3.943 3.355-1.253 6.936-1.253 3.584 0 6.94 1.254 3.609 1.348 6.451 3.95 2.84 2.6 4.503 6.074 1.546 3.229 1.866 6.795l.233 2.59 2.556.389q2.174.33 4.11 1.378 2.07 1.12 3.602 2.913 1.532 1.792 2.324 4.018.74 2.083.74 4.295 0 2.431-.889 4.692-.966 2.455-2.82 4.322-1.856 1.866-4.296 2.838-2.247.895-4.663.895H19.257q-2.416 0-4.663-.895-2.44-.972-4.295-2.839-1.855-1.866-2.821-4.32-.89-2.262-.89-4.693 0-2.228.752-4.325.804-2.243 2.359-4.042t3.652-2.91q1.96-1.04 4.152-1.348l2.587-.363z" fill-rule="evenodd" fill="url(#a)"/><path d="M27.14 53.83a4.065 4.065 0 01-.006-.226V33.377a4 4 0 014-4h13.945a4 4 0 012.417.813l4.945 3.75c.111.086.218.176.32.27L27.14 53.83zm26.882-15.552L29.34 57.18c.54.27 1.148.423 1.793.423h18.889a4 4 0 004-4V38.278z" fill-rule="evenodd" fill="#39BBF2"/><path d="M23.492 53.683L53.155 31.23l3.017 3.991-29.664 22.452-3.016-3.991zm3.816 2.957q-.047.113-.105.221-.058.109-.126.21-.069.103-.146.198-.078.095-.165.181-.087.087-.182.165-.095.078-.197.146-.102.068-.21.126-.109.057-.222.104-.114.047-.231.082-.118.036-.238.06-.12.023-.243.035-.122.012-.245.012-.122 0-.245-.013-.122-.012-.242-.036-.12-.024-.238-.06-.117-.036-.23-.083-.114-.047-.222-.105-.109-.059-.21-.127-.103-.068-.197-.147-.095-.078-.182-.165-.087-.087-.165-.182-.077-.095-.146-.197-.068-.103-.125-.211-.058-.108-.105-.222-.047-.114-.083-.231-.035-.118-.059-.239-.024-.12-.036-.242-.012-.123-.012-.246t.013-.245q.012-.122.036-.243.024-.12.06-.238.035-.117.082-.23.047-.114.105-.222.058-.108.126-.21.069-.103.147-.197.078-.095.164-.182.087-.087.182-.165.095-.077.197-.145.102-.069.21-.126.109-.058.222-.105.114-.047.231-.082.118-.036.238-.06.12-.023.243-.035.122-.012.245-.012t.245.013q.122.012.242.036.12.024.238.06.117.036.23.083.114.048.222.106.109.058.21.126.103.069.198.147.094.078.181.165.087.087.165.182.078.095.146.198.068.102.126.21.057.109.104.222.047.114.083.232.035.117.06.238.023.12.035.243.012.122.012.245t-.012.245q-.013.122-.037.243-.024.12-.06.238-.035.117-.082.23zM56.97 34.188q-.047.113-.105.222-.058.108-.126.21t-.146.197q-.078.095-.165.181-.087.087-.182.165-.095.078-.197.146-.102.068-.21.126-.109.057-.222.104-.113.047-.231.083-.117.035-.238.059-.12.024-.242.035-.123.012-.245.012-.123 0-.245-.012-.122-.013-.243-.037-.12-.024-.238-.06-.117-.036-.23-.083-.114-.047-.222-.105-.108-.058-.21-.127-.102-.068-.197-.146-.095-.079-.182-.166-.086-.087-.164-.182-.078-.095-.146-.197-.068-.102-.126-.21-.058-.11-.105-.223-.047-.114-.082-.231-.036-.118-.06-.238-.024-.121-.036-.243-.011-.123-.011-.245 0-.123.012-.246.012-.122.036-.242.024-.12.06-.238.035-.118.083-.231.047-.114.105-.222.057-.108.126-.21.068-.102.146-.197.078-.095.165-.182.087-.087.181-.164.095-.078.198-.146.102-.068.21-.126.108-.058.222-.105.113-.047.23-.082.118-.035.239-.06.12-.023.242-.035.122-.012.245-.011.123 0 .245.012t.243.036q.12.025.237.06.118.036.231.084.114.047.222.105.108.058.21.126.102.069.197.147.095.078.182.165.086.087.164.182.078.095.146.198.068.102.126.21.058.109.105.223.046.113.082.23.036.118.06.239.023.12.035.243.012.122.012.245t-.012.245q-.012.122-.036.243-.024.12-.06.238-.036.117-.083.23z" fill="#39BBF2"/><rect x="31.402" y="34.129" width="13.658" height="1.711" rx=".855" fill="url(#b)"/><rect x="30.902" y="33.629" width="14.658" height="2.711" rx="1.355" stroke-opacity=".1" stroke="#000"/><rect x="31.402" y="38.832" width="7.256" height="1.711" rx=".855" fill="url(#c)"/><rect x="30.902" y="38.332" width="8.256" height="2.711" rx="1.355" stroke-opacity=".1" stroke="#000"/></svg>