<svg xmlns="http://www.w3.org/2000/svg" fill="none" width="80" height="80"><defs><linearGradient x1=".614" y1=".642" x2="0" y2="0" id="a"><stop offset="1.346%" stop-color="#223E92"/><stop offset="100%" stop-color="#223E92" stop-opacity=".3"/></linearGradient></defs><path d="M40 0l1.315 4.046h4.254l-3.442 2.5 1.315 4.047L40 8.093l-3.442 2.5 1.315-4.046-3.442-2.5 4.254-.001L40 0zm0 68.705l1.315 4.046h4.254l-3.442 2.5 1.315 4.047-3.442-2.5-3.442 2.5 1.315-4.046-3.442-2.5 4.254-.001L40 68.705zM22.745 4.53l1.315 4.046h4.254l-3.441 2.501 1.314 4.046-3.442-2.5-3.442 2.5 1.315-4.046-3.442-2.5h4.255l1.314-4.047zm0 59.649l1.315 4.046h4.254l-3.441 2.5 1.314 4.047-3.442-2.5-3.442 2.5 1.315-4.046-3.442-2.501h4.255l1.314-4.046zM10.097 17.176l1.315 4.046h4.254l-3.441 2.5 1.314 4.047-3.442-2.5-3.441 2.5 1.314-4.046-3.442-2.501h4.255l1.314-4.046zm0 34.353l1.315 4.046h4.254l-3.441 2.501 1.314 4.046-3.442-2.5-3.441 2.5 1.314-4.046-3.442-2.5h4.255l1.314-4.047zM5.57 34.353L6.884 38.4h4.254l-3.442 2.5 1.315 4.046-3.442-2.5-3.442 2.5L3.442 40.9 0 38.4h4.254l1.315-4.047zm68.862 0l1.315 4.047H80l-3.442 2.5 1.315 4.046-3.442-2.5-3.442 2.5 1.314-4.046-3.441-2.5h4.254l1.315-4.047zm-4.528-17.177l1.314 4.046h4.255l-3.442 2.5 1.314 4.047-3.441-2.5-3.442 2.5 1.314-4.046-3.442-2.501h4.255l1.315-4.046zm0 34.353l1.314 4.046h4.255l-3.442 2.501 1.314 4.046-3.441-2.5-3.442 2.5 1.314-4.046-3.442-2.5h4.255l1.315-4.047zm-12.648-47l1.314 4.046h4.255l-3.442 2.501 1.314 4.046-3.441-2.5-3.442 2.5 1.314-4.046-3.442-2.5h4.255l1.315-4.047zm0 59.649l1.314 4.046h4.255l-3.442 2.5 1.314 4.047-3.441-2.5-3.442 2.5 1.314-4.046-3.442-2.501h4.255l1.315-4.046z" fill="url(#a)"/><path d="M51.712 32.555v-5.073c0-5.692-4.614-10.306-10.306-10.306H38.44c-5.692 0-10.306 4.614-10.306 10.306v5.073h-.937a2.81 2.81 0 00-2.81 2.81v22.486a2.81 2.81 0 002.81 2.81h25.452a2.81 2.81 0 002.811-2.81V35.365a2.81 2.81 0 00-2.81-2.81h-.937zm-6 0v-5.073q0-1.784-1.261-3.045t-3.045-1.261H38.44q-1.783 0-3.045 1.26-1.26 1.262-1.26 3.046v5.073h11.578zM42.43 47.102q.163-.137.31-.291.148-.154.278-.323.13-.17.24-.352.11-.182.2-.375.09-.193.16-.395.068-.202.114-.41.046-.208.07-.42.023-.212.023-.425 0-.192-.02-.383-.018-.19-.055-.379-.038-.188-.094-.371-.055-.184-.129-.361-.073-.177-.163-.346-.09-.17-.197-.329-.107-.16-.229-.308-.121-.148-.257-.284-.135-.135-.284-.257-.148-.122-.307-.228-.16-.107-.329-.197-.17-.09-.346-.164-.177-.073-.361-.129-.184-.056-.372-.093t-.379-.056q-.19-.019-.382-.019t-.383.019q-.19.019-.379.056-.188.037-.371.093-.184.056-.361.13-.177.073-.346.163-.17.09-.329.197-.16.106-.308.228-.148.122-.284.257-.135.136-.257.284-.121.148-.228.308-.107.16-.197.329-.09.169-.164.346-.073.177-.129.36-.056.184-.093.372t-.056.38q-.019.19-.019.382 0 .406.084.803.083.397.247.77.163.37.4.7.236.33.536.605l-1.294 5.672h7.708L42.43 47.1z" fill-rule="evenodd" fill="#223E92"/></svg>