<svg xmlns="http://www.w3.org/2000/svg" fill="none" width="80" height="80"><defs><linearGradient x1=".03" y1=".5" x2=".966" y2=".739" id="a"><stop offset="1.346%" stop-color="#3DC7C4"/><stop offset="100%" stop-color="#3DC7C4" stop-opacity="0"/></linearGradient><linearGradient x1=".171" y1="-.04" x2="1" y2="1.111" id="b"><stop offset="31.61%" stop-color="#FFF"/><stop offset="100%" stop-color="#FFF" stop-opacity="0"/></linearGradient></defs><path d="M15 25.72v15.032h50V25.72C65 11.883 53.807.667 40 .667S15 11.883 15 25.72zm42 7.015H23V25.72q0-3.472 1.333-6.629 1.29-3.056 3.646-5.418 2.357-2.361 5.406-3.654Q36.536 8.684 40 8.684q3.464 0 6.615 1.335 3.05 1.293 5.406 3.654 2.357 2.362 3.646 5.418Q57 22.248 57 25.72v7.015z" fill-rule="evenodd" fill="url(#a)"/><circle cx="40" cy="51.332" fill="#3DC7C4" r="27.333"/><path d="M34.083 57.368q0 1.122-.67 1.122h-7.266q-.326 0-.573-.476-.24-.483-.24-1.142 0-.32.09-.659.098-.34.32-.652.13-.183.618-.6.488-.418 1.133-.98.644-.56 1.36-1.265.723-.71 1.309-1.474.592-.77.983-1.566.397-.796.397-1.599 0-.756-.45-1.226-.442-.47-1.184-.47-.827 0-1.244.542-.416.535-.416 1.526 0 .666-.267.946-.26.28-.925.28-.8 0-1.074-.24-.273-.248-.273-.953 0-2.016 1.087-3.184 1.087-1.168 3.34-1.168 1.894 0 2.917 1.083 1.028 1.083 1.028 2.864 0 .718-.247 1.442-.241.725-.645 1.436-.397.704-.905 1.37-.508.665-1.035 1.252-.631.699-1.335 1.364-.703.665-1.477 1.298h4.974q.67 0 .67 1.129zm4.837-7.98q.235-.038.443-.058.215-.026.716-.026 1.022 0 1.843.326.827.326 1.406.933.586.6.898 1.455.313.848.313 1.892 0 .953-.358 1.82-.352.868-.99 1.534-.631.665-1.504 1.05-.872.385-1.894.385-1.218 0-2.064-.346-.846-.352-1.608-1.246-.371-.326-.371-.75 0-.43.462-1.083.156-.222.482-.294.325-.072.664.294.482.528 1.165.854.684.32 1.205.32.54 0 .957-.248.423-.248.716-.633.293-.391.443-.841.156-.45.156-.868 0-1.07-.534-1.683-.527-.62-1.628-.62h-.833q-.345 0-.625.059-.28.052-.501.15-.222.098-.463.274-.182.124-.384.124-.195 0-.364-.118-.17-.117-.26-.352-.092-.241-.033-.6l.82-5.474q.104-.574.313-.822.208-.248.787-.248h5.222q.618 0 .618 1.122 0 1.129-.618 1.129h-4.219l-.378 2.59zm10.853-.104q.222-.104.358-.124.144-.02.287-.02 1.035 0 1.862.353.827.353 1.432.985.606.633.925 1.514.319.88.319 1.925 0 .887-.306 1.742-.3.848-.873 1.526-.566.672-1.393 1.096-.827.418-1.862.418-1.061 0-1.869-.392-.807-.397-1.36-1.07-.547-.671-.84-1.546-.287-.88-.287-1.84 0-1.01.215-2.08t.606-2.108q.397-1.044.957-1.99.56-.946 1.27-1.735.885-.986 1.477-1.416.593-.437.905-.437.293 0 .54.143.248.144.424.372.254.34.254.724 0 .385-.358.685-.801.607-1.44 1.325-.637.717-1.243 1.95zm.749 7.164q.45 0 .794-.215.352-.222.593-.574.247-.353.377-.803.13-.45.13-.94 0-1.22-.488-1.872-.488-.652-1.387-.652-.904 0-1.373.652-.462.653-.462 1.873 0 .489.123.94.124.45.352.802.234.352.573.574.338.215.768.215z" fill="url(#b)"/><path d="M51.764 47.998q-.1.114-.202.244.585.108 1.11.331 1.015.433 1.763 1.214.751.785 1.142 1.864.379 1.046.379 2.266 0 1.06-.365 2.079-.359 1.016-1.05 1.834-.695.825-1.7 1.341-1.046.528-2.319.528-1.29 0-2.305-.492-1.006-.496-1.696-1.334-.665-.817-1.016-1.864-.095-.292-.164-.59-.095.351-.236.693-.421 1.04-1.192 1.844-.766.807-1.822 1.273-1.065.47-2.298.47-1.414 0-2.442-.42-1.049-.437-1.948-1.473-.187-.174-.32-.368-.013.789-.31 1.285-.458.767-1.36.767h-7.266q-.933 0-1.46-1.015-.354-.708-.354-1.603 0-.452.126-.918.149-.52.468-.97.203-.286.785-.783.485-.415 1.126-.973.622-.541 1.316-1.225.673-.662 1.217-1.37.532-.692.878-1.398.295-.59.295-1.158 0-.355-.172-.535-.152-.16-.462-.16-.335 0-.451.15-.21.27-.21.917 0 1.066-.542 1.636-.548.59-1.649.59-1.179 0-1.736-.49-.611-.555-.611-1.703 0-2.41 1.355-3.865 1.384-1.487 4.072-1.487 2.326 0 3.644 1.397 1.301 1.37 1.301 3.55 0 .884-.3 1.766-.27.809-.722 1.605-.43.763-.98 1.483-.532.698-1.086 1.315-.457.505-.95.993h2.368q.904 0 1.362.772l.006.01q.11-.613.615-1.325.378-.537 1.083-.692.884-.196 1.612.59.356.39.863.632.475.222.774.222.265 0 .445-.107.259-.152.432-.38.191-.255.29-.551.105-.303.105-.552 0-.696-.288-1.027-.236-.276-.874-.276h-.833q-.241 0-.42.037l-.01.003-.012.002q-.165.03-.28.081-.123.054-.276.167l-.014.01-.014.01q-.437.297-.947.297-.508 0-.934-.296-.421-.292-.623-.812-.189-.5-.087-1.123l.82-5.477.003-.015q.152-.835.531-1.287.508-.604 1.553-.604h5.222q.9 0 1.34.798.278.506.278 1.324 0 .82-.277 1.327-.44.802-1.341.802h-3.354l-.074.505q1.208.002 2.202.397 1.029.406 1.76 1.172.728.745 1.115 1.802.078.212.14.433.041-.266.095-.535.23-1.15.65-2.263.429-1.127 1.032-2.146.61-1.032 1.387-1.895.956-1.064 1.633-1.556.852-.628 1.493-.628.562 0 1.042.278.418.243.714.627.462.617.462 1.334 0 .852-.716 1.452l-.019.015-.02.015q-.722.548-1.295 1.192zm-11.82 1.307q-.396.003-.58.025-.21.02-.444.059l.151-1.033.227-1.557h4.219q.618 0 .618-1.129 0-1.122-.618-1.122h-5.222q-.579 0-.787.248-.209.248-.313.822l-.82 5.474q-.059.359.032.6.092.235.26.352.17.118.365.118.202 0 .384-.124.241-.176.463-.274.221-.098.501-.15.28-.06.625-.06h.833q1.1 0 1.628.62.534.614.534 1.684 0 .418-.156.868-.15.45-.443.841-.293.385-.716.633-.417.248-.957.248-.521 0-1.205-.32-.683-.326-1.165-.854-.339-.366-.664-.294-.326.072-.482.294-.462.652-.462 1.083 0 .424.371.75.762.894 1.608 1.246.846.346 2.064.346 1.022 0 1.894-.385.873-.385 1.504-1.05.638-.666.99-1.534.358-.867.358-1.82 0-1.044-.313-1.892-.312-.855-.898-1.455-.58-.607-1.406-.933-.82-.326-1.843-.326h-.136zm-9.964 6.934h-1.54q.6-.49 1.157-1 .162-.148.32-.298.704-.665 1.335-1.364.527-.587 1.035-1.252.508-.666.905-1.37.404-.711.645-1.436.247-.724.247-1.442 0-1.78-1.028-2.864-1.023-1.083-2.917-1.083-2.253 0-3.34 1.168-1.087 1.168-1.087 3.184 0 .705.273.953.274.24 1.074.24.664 0 .925-.28.267-.28.267-.946 0-.991.416-1.526.417-.542 1.244-.542.742 0 1.185.47.45.47.45 1.226 0 .803-.398 1.599-.39.796-.983 1.566-.586.763-1.309 1.474-.716.705-1.36 1.266-.645.561-1.133.979-.488.417-.619.6-.221.313-.319.652-.09.34-.09.66 0 .658.24 1.14.247.477.573.477h7.266q.67 0 .67-1.122 0-1.129-.67-1.129H29.98zm20.983-7.072q.714.07 1.317.326.827.353 1.432.985.606.633.925 1.514.319.88.319 1.925 0 .887-.306 1.742-.3.848-.873 1.526-.566.672-1.393 1.096-.827.418-1.862.418-1.061 0-1.869-.392-.807-.397-1.36-1.07-.547-.671-.84-1.546-.287-.88-.287-1.84 0-1.01.215-2.08t.606-2.108q.397-1.044.957-1.99.56-.946 1.27-1.735.885-.986 1.477-1.416.593-.437.905-.437.293 0 .54.143.248.144.424.372.254.34.254.724 0 .385-.358.685-.801.607-1.44 1.325-.305.344-.604.807-.324.502-.639 1.143.222-.104.358-.124.144-.02.287-.02.28 0 .545.027zm-.441 7.281q.45 0 .794-.215.352-.222.593-.574.247-.353.377-.803.13-.45.13-.94 0-1.22-.488-1.872-.488-.652-1.387-.652-.904 0-1.373.652-.462.653-.462 1.873 0 .489.123.94.124.45.352.802.234.352.573.574.338.215.768.215zm-.22-1.052q.081.052.22.052.163 0 .265-.064.172-.108.296-.29.159-.226.243-.516.09-.314.09-.661 0-.888-.288-1.274-.189-.251-.587-.251-.392 0-.561.236-.274.387-.274 1.289 0 .354.088.674.082.302.226.525.112.167.275.276l.007.004z" fill-rule="evenodd" fill="#000" fill-opacity=".1"/></svg>